{"glyphs":{"0":{"ha":869,"x_min":1,"x_max":835,"o":"m 417 964 q 577 926 501 964 q 710 824 653 889 q 801 671 767 758 q 835 483 835 583 q 801 296 835 383 q 712 143 768 208 q 580 40 656 78 q 419 1 504 1 q 259 39 335 1 q 126 141 183 76 q 35 293 69 206 q 1 481 1 381 q 34 668 1 581 q 124 822 67 756 q 256 926 181 888 q 417 964 332 964 m 574 451 q 578 605 581 532 q 561 734 575 678 q 520 826 547 790 q 453 865 493 861 q 379 844 413 871 q 322 769 346 818 q 281 651 297 719 q 257 501 264 582 q 253 348 250 421 q 272 219 257 275 q 315 127 288 163 q 383 88 343 92 q 456 108 424 82 q 512 184 488 135 q 551 302 536 233 q 574 451 567 371 z "},"1":{"ha":550,"x_min":0,"x_max":519,"o":"m 513 881 q 503 837 511 876 q 481 735 494 797 q 452 596 468 674 q 419 438 436 518 q 385 279 401 357 q 356 140 369 201 q 335 40 343 79 q 326 -3 328 1 l 0 -3 q 83 393 47 217 q 114 540 99 468 q 142 671 129 613 q 162 767 154 729 q 171 811 169 806 q 178 865 178 840 q 167 897 178 889 q 160 922 153 906 q 189 943 167 938 q 327 968 260 961 q 440 969 394 975 q 499 940 479 965 q 513 881 519 915 z "},"2":{"ha":917,"x_min":0,"x_max":886,"o":"m 674 240 q 764 220 721 240 q 834 166 807 200 q 869 88 861 132 q 856 -3 876 44 l 0 -3 q 8 83 0 47 q 40 145 17 118 q 103 194 63 172 q 207 240 143 217 q 345 307 274 265 q 477 401 417 349 q 579 517 538 454 q 626 650 621 581 q 621 753 631 710 q 591 824 611 796 q 545 865 571 851 q 493 879 519 879 q 414 862 446 881 q 364 813 382 843 q 341 749 346 783 q 342 683 336 714 q 363 633 347 653 q 403 613 379 613 q 438 588 440 613 q 397 526 436 563 q 340 494 374 504 q 270 485 306 483 q 201 503 235 488 q 144 549 168 519 q 113 624 121 579 q 118 729 104 669 q 199 869 138 814 q 342 949 260 924 q 515 970 424 974 q 683 933 606 967 q 815 838 761 900 q 879 686 869 776 q 868 565 886 621 q 815 465 850 510 q 734 385 781 421 q 636 322 688 349 q 533 274 585 294 q 439 240 482 254 l 674 240 z "},"3":{"ha":872,"x_min":-1,"x_max":838,"o":"m 838 724 q 749 699 794 714 q 664 663 710 685 q 578 610 618 642 l 576 610 l 576 608 l 578 610 q 683 573 638 599 q 758 511 728 547 q 802 431 788 475 q 817 342 817 388 q 783 206 817 268 q 686 97 749 143 q 536 25 624 51 q 342 -1 449 -1 q 153 38 228 -1 q 42 134 79 76 q 1 257 4 192 q 26 375 -1 322 q 110 458 54 428 q 246 476 165 489 q 289 454 271 472 q 314 413 307 436 q 315 367 321 390 q 290 331 310 344 q 236 315 258 333 q 205 269 214 297 q 199 208 196 242 q 221 144 203 174 q 272 96 239 115 q 354 76 304 76 q 465 112 419 76 q 535 201 511 147 q 559 317 558 254 q 535 433 560 379 q 460 522 511 486 q 329 557 408 557 l 306 557 l 306 636 l 406 643 q 449 664 428 651 q 489 689 469 676 q 528 712 508 701 q 568 728 547 722 l 467 728 q 365 728 422 728 q 250 729 308 729 q 167 746 206 729 q 100 791 129 763 q 54 858 71 819 q 38 942 38 897 l 38 972 l 838 972 l 838 724 z "},"4":{"ha":1013,"x_min":-3,"x_max":978,"o":"m 853 971 q 912 942 892 967 q 925 882 932 917 q 917 843 925 878 q 899 754 910 808 q 872 631 888 700 q 842 486 857 561 l 861 486 q 944 452 910 486 q 978 369 978 418 l 817 369 q 788 233 801 299 q 765 116 775 167 q 747 33 754 65 q 739 -1 740 1 l 415 -1 q 426 52 418 15 q 444 139 433 89 q 467 248 454 189 q 492 369 479 307 l 121 369 q 36 388 61 369 q 4 428 11 406 q 1 467 -3 450 q 6 485 6 485 q 6 486 6 485 q 103 531 60 499 q 178 602 147 563 q 227 683 210 642 q 244 754 244 724 q 211 856 244 819 q 119 890 178 893 q 92 929 79 890 q 117 976 99 953 q 163 1015 135 999 q 231 1038 192 1031 q 321 1038 271 1046 q 426 994 385 1028 q 487 913 468 961 q 499 806 506 864 q 462 691 493 749 q 373 579 431 633 q 231 486 315 525 l 517 486 q 541 603 529 547 q 562 703 553 660 q 577 776 571 747 q 585 813 583 806 q 591 866 590 842 q 579 899 592 890 q 572 923 565 907 q 603 944 579 939 q 740 969 672 963 q 853 971 807 976 z "},"5":{"ha":876,"x_min":-1,"x_max":842,"o":"m 842 972 l 842 942 q 825 858 842 897 q 780 791 808 819 q 713 746 751 763 q 629 729 674 729 l 288 729 l 275 696 q 508 686 410 710 q 668 615 606 663 q 760 501 731 567 q 788 364 789 435 q 754 225 786 293 q 663 104 722 157 q 517 22 603 51 q 321 -3 431 -8 q 142 39 211 3 q 38 126 72 75 q 1 237 4 178 q 22 346 -1 296 q 93 431 46 396 q 204 469 140 465 q 292 456 263 472 q 331 417 321 440 q 334 373 340 394 q 317 343 328 351 q 258 329 283 347 q 220 281 233 311 q 206 215 207 251 q 220 147 206 179 q 267 92 235 115 q 354 68 300 69 q 458 109 415 67 q 519 215 500 151 q 532 353 539 279 q 487 488 525 428 q 376 585 449 549 q 193 610 304 621 q 160 622 174 607 q 153 657 147 638 l 226 972 l 842 972 z "},"6":{"ha":797,"x_min":1,"x_max":769,"o":"m 508 631 q 610 598 560 625 q 698 525 661 571 q 752 415 735 479 q 756 274 769 351 q 703 146 743 203 q 606 51 663 89 q 484 -3 550 14 q 351 -12 418 -19 q 203 33 264 -3 q 103 121 143 69 q 42 232 64 172 q 11 348 21 292 q 1 451 1 404 q 4 522 1 497 q 76 747 22 657 q 198 888 129 836 q 343 958 267 940 q 485 969 419 976 q 613 938 561 961 q 694 885 664 915 q 734 819 724 854 q 738 753 744 785 q 713 698 732 722 q 663 665 693 674 q 611 660 638 657 q 563 673 585 663 q 524 699 540 683 q 501 733 507 715 q 497 746 499 740 q 501 754 494 751 q 533 791 524 768 q 538 835 543 814 q 513 872 533 857 q 456 888 493 888 q 393 853 418 888 q 351 772 368 819 q 325 672 335 724 q 311 586 315 621 q 376 618 343 608 q 435 631 408 628 q 492 632 465 635 q 508 631 503 632 m 511 364 q 490 475 515 436 q 428 524 465 514 q 353 517 392 533 q 294 461 315 500 q 289 399 292 431 q 283 340 286 371 q 279 283 281 310 q 289 169 275 214 q 326 104 303 125 q 377 85 349 83 q 432 106 406 86 q 478 165 458 126 q 503 258 497 204 l 511 364 z "},"7":{"ha":901,"x_min":0,"x_max":867,"o":"m 867 972 l 800 724 q 714 697 761 715 q 619 643 667 678 q 528 554 572 608 q 451 422 485 500 q 396 240 417 344 q 375 -1 375 135 l 64 -1 q 92 214 64 100 q 178 431 121 328 q 324 615 236 535 q 531 728 411 694 l 429 728 q 327 728 383 728 q 213 729 271 729 q 129 746 168 729 q 62 791 90 763 q 17 858 33 819 q 0 942 0 897 l 0 972 l 867 972 z "},"8":{"ha":772,"x_min":-1,"x_max":738,"o":"m 736 350 q 711 219 738 282 q 636 110 685 157 q 521 35 588 63 q 378 7 454 7 q 369 6 372 7 l 368 6 q 360 7 365 7 q 216 35 282 7 q 101 110 150 63 q 26 219 53 157 q 1 350 -1 282 q 15 428 3 385 q 50 513 26 471 q 110 590 74 554 q 197 644 147 625 q 167 685 181 661 q 147 733 156 704 q 142 797 139 761 q 173 883 147 849 q 233 938 199 918 q 303 966 268 958 q 364 972 339 974 q 499 947 446 969 q 581 890 551 924 q 617 815 610 856 q 613 738 624 775 q 578 673 603 701 q 517 633 553 644 q 532 624 525 629 q 546 615 539 619 q 560 606 553 610 q 568 601 564 603 q 576 596 572 599 l 576 594 q 692 483 651 544 q 736 350 733 422 m 368 900 q 310 868 331 899 q 290 801 290 838 q 309 731 290 764 q 368 692 328 699 q 419 706 397 690 q 453 744 440 721 q 467 796 465 768 q 460 847 469 824 q 428 886 450 871 q 368 900 406 901 m 339 106 q 409 122 376 104 q 465 172 442 140 q 497 246 488 204 q 496 335 506 288 q 457 423 485 386 q 401 483 429 460 q 329 529 368 511 q 285 506 308 525 q 240 457 261 486 q 206 391 219 428 q 192 314 192 354 q 201 225 190 264 q 233 160 213 186 q 280 119 253 133 q 339 106 307 106 z "},"9":{"ha":797,"x_min":-7,"x_max":761,"o":"m 254 328 q 152 360 203 333 q 65 433 101 388 q 10 543 28 479 q 7 686 -7 607 q 60 813 19 757 q 156 907 100 869 q 278 962 213 944 q 411 972 344 979 q 559 926 499 963 q 659 839 619 890 q 720 728 699 788 q 751 612 742 668 q 761 509 761 556 q 758 438 761 463 q 686 213 739 301 q 565 72 633 124 q 419 1 496 19 q 278 -10 343 -17 q 150 22 201 -1 q 69 75 99 44 q 28 140 39 106 q 24 206 18 175 q 50 261 31 238 q 100 294 69 285 q 151 299 125 301 q 200 285 178 296 q 239 259 222 275 q 261 225 256 243 q 266 213 264 218 q 261 206 268 208 q 229 169 239 192 q 224 124 219 146 q 249 88 229 103 q 307 72 269 72 q 369 106 344 72 q 411 188 394 140 q 438 288 428 236 q 451 374 447 339 q 386 340 418 350 q 328 328 354 331 q 271 328 297 324 l 254 328 m 251 594 q 272 483 247 522 q 334 435 297 444 q 409 443 371 426 q 468 499 447 460 q 474 561 471 529 q 478 619 476 589 q 483 676 481 649 q 474 790 488 746 q 437 856 460 835 q 385 875 414 876 q 331 853 357 874 q 284 794 304 833 q 260 701 264 756 l 251 594 z "},"\u0000":{"ha":0,"x_min":0,"x_max":0,"o":""},"\r":{"ha":400,"x_min":0,"x_max":0,"o":""}," ":{"ha":400,"x_min":0,"x_max":0,"o":""},"f":{"ha":622,"x_min":0,"x_max":811,"o":"m 801 861 q 776 770 811 801 q 690 742 742 739 l 689 742 q 650 749 669 743 q 616 767 631 756 q 594 793 601 778 q 594 825 588 808 q 599 853 599 839 q 596 878 600 867 q 583 895 592 889 q 563 899 575 901 q 528 869 543 894 q 500 811 513 844 q 479 744 488 778 q 468 693 471 711 l 590 693 l 585 672 q 549 613 578 636 q 485 589 521 589 l 450 589 q 430 497 443 561 q 399 351 417 433 q 363 176 382 268 q 325 -1 343 83 l 0 -1 q 38 177 18 86 q 72 346 57 268 q 97 468 83 404 q 122 589 111 532 l 29 589 l 35 618 q 68 672 42 651 q 128 693 94 693 l 146 693 l 146 697 q 155 726 147 703 q 179 779 163 749 q 224 844 196 810 q 295 906 253 878 q 395 953 338 935 q 531 972 453 972 q 628 966 582 972 q 711 947 675 960 q 772 912 747 933 q 801 861 796 890 z "},"g":{"ha":951,"x_min":-4,"x_max":921,"o":"m 840 692 q 900 664 879 689 q 914 604 921 639 q 906 565 911 597 q 893 499 900 533 q 876 408 886 457 q 869 370 875 403 q 853 287 863 338 q 832 172 844 236 q 807 42 819 108 q 801 10 807 40 q 776 -64 794 -19 q 726 -159 758 -108 q 640 -252 693 -210 q 512 -322 588 -294 q 332 -344 436 -349 q 192 -322 253 -343 q 94 -267 132 -301 q 45 -190 57 -233 q 53 -97 33 -146 q 108 -38 69 -54 q 186 -26 146 -22 q 259 -52 226 -31 q 297 -106 292 -74 q 300 -117 299 -112 q 296 -124 301 -121 q 250 -164 260 -140 q 247 -209 240 -187 q 274 -247 254 -231 q 321 -262 294 -262 l 322 -262 q 381 -239 356 -262 q 426 -179 407 -215 q 456 -100 444 -143 q 476 -18 468 -57 q 488 51 483 21 q 493 89 492 81 q 408 29 457 56 q 307 -3 360 3 q 148 14 211 -12 q 49 90 85 40 q 5 205 14 139 q 9 340 -4 271 q 55 475 22 408 q 138 592 88 542 q 251 669 188 642 q 389 690 315 697 q 508 647 463 682 q 579 578 554 611 q 576 600 579 590 q 567 613 574 610 q 560 638 553 621 q 590 661 567 654 q 727 689 660 681 q 840 692 794 697 m 535 314 q 549 392 543 356 q 561 456 556 428 q 540 479 556 471 q 508 490 524 488 q 440 472 472 496 q 384 410 408 447 q 344 328 360 372 q 324 247 328 283 q 338 172 318 197 q 390 147 358 146 q 459 176 422 147 q 525 261 496 204 q 526 266 525 264 q 526 271 526 268 q 532 299 529 288 q 533 303 533 300 q 535 314 533 308 z "},"h":{"ha":1111,"x_min":0,"x_max":1233,"o":"m 1192 324 q 1222 307 1211 324 q 1225 271 1233 290 q 1165 166 1199 215 q 1088 79 1131 117 q 992 20 1044 42 q 878 -1 940 -1 q 790 15 842 -1 q 693 67 738 31 q 624 160 649 103 q 617 301 599 218 q 628 357 622 332 q 635 398 632 379 q 640 421 639 417 q 640 476 646 454 q 624 510 635 497 q 599 530 613 524 q 575 536 585 536 q 483 489 526 539 q 403 361 439 439 q 360 161 379 257 q 325 -1 340 65 l 0 -1 q 83 399 47 221 q 114 547 99 474 q 142 677 129 619 q 162 771 154 735 q 171 811 169 807 q 178 865 176 840 q 168 897 181 889 q 161 922 154 906 q 192 943 168 938 q 330 968 263 961 q 443 969 397 975 q 501 940 481 965 q 515 881 522 915 q 508 847 514 874 q 494 780 503 821 q 473 687 485 739 q 449 575 461 635 q 558 662 497 629 q 699 694 619 694 q 787 678 735 694 q 883 626 839 663 q 953 533 928 590 q 960 392 978 475 l 949 336 q 940 295 944 314 q 936 272 936 276 q 936 219 931 240 q 953 183 942 197 q 977 164 964 169 q 1001 157 990 158 q 1085 197 1044 154 q 1160 304 1125 239 q 1192 324 1169 324 z "},"i":{"ha":503,"x_min":-11,"x_max":625,"o":"m 583 324 q 614 307 603 324 q 617 271 625 290 q 556 165 590 214 q 478 78 521 115 q 383 19 435 40 q 268 -3 331 -3 q 180 13 232 -3 q 83 65 128 29 q 14 159 39 101 q 7 300 -11 217 q 24 376 15 338 q 39 451 31 410 q 56 533 47 493 q 62 587 61 563 q 50 619 63 611 q 43 644 36 628 q 74 665 50 660 q 210 690 143 683 q 324 692 278 697 q 383 663 363 688 q 396 603 403 638 q 374 501 385 553 q 354 405 364 450 q 338 324 344 360 q 326 271 331 289 q 326 217 321 239 q 343 181 332 194 q 367 162 354 168 q 392 156 381 156 q 476 195 436 153 q 550 304 515 238 q 583 324 563 324 m 269 756 q 214 767 240 756 q 168 797 188 778 q 138 843 149 817 q 126 899 126 869 q 138 954 126 928 q 168 1000 149 981 q 214 1031 188 1019 q 269 1042 240 1042 q 325 1031 299 1042 q 371 1000 351 1019 q 401 954 390 981 q 413 899 413 928 q 401 843 413 869 q 371 797 390 817 q 325 767 351 778 q 269 756 299 756 z "},"j":{"ha":458,"x_min":-439,"x_max":424,"o":"m 333 693 q 220 689 288 697 q 83 661 153 681 q 53 638 60 654 q 61 614 47 622 q 74 582 74 607 q 68 528 74 557 q 58 476 67 519 q 38 367 50 432 q 10 222 25 301 q -19 64 -4 143 l -19 63 q -44 -64 -31 -4 q -78 -168 -58 -124 q -125 -239 -99 -212 q -186 -265 -151 -265 l -187 -265 q -234 -249 -214 -265 q -261 -212 -254 -233 q -258 -167 -268 -190 q -212 -126 -249 -143 q -209 -119 -207 -124 q -211 -108 -211 -115 q -240 -60 -215 -79 q -299 -36 -265 -40 q -365 -46 -332 -32 q -418 -97 -399 -60 q -430 -181 -439 -137 q -385 -261 -421 -225 q -291 -322 -350 -297 q -153 -349 -232 -346 q -7 -334 -71 -351 q 104 -287 57 -317 q 185 -221 151 -258 q 240 -144 218 -183 q 274 -69 261 -106 q 292 -7 286 -33 q 298 25 292 -6 q 313 101 304 56 q 331 199 321 146 q 349 298 340 251 q 364 376 358 344 q 371 413 369 408 q 388 501 381 461 q 400 567 394 536 q 407 604 406 597 q 393 665 414 640 q 333 693 372 689 m 424 899 q 413 843 424 869 q 382 797 401 817 q 336 767 363 778 q 281 756 310 756 q 225 767 251 756 q 179 797 199 778 q 149 843 160 817 q 138 899 138 869 q 149 954 138 928 q 179 1000 160 981 q 225 1031 199 1019 q 281 1042 251 1042 q 336 1031 310 1042 q 382 1000 363 1019 q 413 954 401 981 q 424 899 424 928 z "},"k":{"ha":1038,"x_min":0,"x_max":1160,"o":"m 1118 324 q 1149 307 1139 324 q 1151 271 1160 290 q 1091 164 1125 214 q 1014 76 1057 114 q 918 17 971 39 q 803 -4 865 -4 q 724 9 769 -4 q 635 51 678 22 q 564 126 593 81 q 535 239 535 172 q 539 282 535 258 q 538 339 542 311 q 519 386 533 367 q 477 415 504 406 q 407 419 450 425 q 379 284 394 356 q 351 151 364 213 q 328 46 338 89 q 319 -1 319 3 l 0 -1 q 79 394 43 218 q 109 542 94 469 q 135 672 124 614 q 155 769 147 731 q 164 813 163 807 q 170 866 169 842 q 158 899 171 890 q 151 923 144 907 q 182 944 158 939 q 320 969 253 963 q 433 971 388 976 q 492 942 471 967 q 506 882 513 917 q 497 844 503 875 q 483 778 490 813 q 464 689 475 738 q 460 667 464 685 q 450 623 456 650 q 437 560 444 596 q 421 485 429 525 q 452 490 433 488 q 494 496 471 493 q 572 530 540 508 q 618 573 603 551 q 633 613 633 594 q 618 640 633 632 q 622 653 613 643 q 651 674 631 664 q 703 691 672 685 q 771 692 733 697 q 822 665 803 686 q 842 617 840 644 q 826 562 844 590 q 768 514 808 533 q 740 502 756 507 q 711 494 725 497 q 679 489 696 490 q 749 465 715 481 q 808 419 783 449 q 847 347 833 390 q 858 240 861 303 q 866 200 858 217 q 884 174 874 183 q 906 159 894 164 q 926 154 918 154 q 1011 194 971 151 q 1086 304 1051 236 q 1118 324 1096 324 z "},"l":{"ha":503,"x_min":-10,"x_max":625,"o":"m 583 324 q 614 307 603 324 q 617 271 625 290 q 556 166 590 215 q 479 79 522 117 q 384 20 436 42 q 269 -1 332 -1 q 180 15 232 -1 q 83 67 128 31 q 15 160 39 103 q 8 301 -10 218 l 67 590 q 88 697 78 644 q 107 789 99 749 q 121 855 115 829 q 126 881 126 881 q 133 934 133 910 q 122 967 133 958 q 115 991 108 975 q 146 1013 122 1007 q 283 1038 215 1031 q 396 1039 350 1044 q 455 1010 435 1035 q 468 950 475 985 q 462 920 468 949 q 446 844 456 892 q 424 738 436 797 q 399 615 411 678 q 374 493 386 553 q 351 385 361 433 q 334 306 340 338 q 328 272 328 275 q 326 217 321 239 q 343 183 332 196 q 368 163 354 169 q 392 157 382 157 q 476 196 436 154 q 551 304 517 238 q 583 324 561 324 z "},"m":{"ha":1640,"x_min":0,"x_max":1758,"o":"m 1758 324 q 1698 199 1733 258 q 1617 96 1663 140 q 1514 24 1571 51 q 1388 -3 1457 -3 q 1299 13 1351 -3 q 1203 65 1247 29 q 1133 159 1158 101 q 1126 300 1108 217 q 1138 356 1132 331 q 1145 396 1142 376 q 1150 419 1149 415 q 1150 474 1156 453 q 1133 509 1144 496 q 1108 528 1122 522 q 1085 535 1094 535 q 1022 515 1053 538 q 964 451 992 492 q 963 422 964 436 q 957 390 961 407 q 924 226 939 303 q 910 160 917 193 q 897 95 903 126 q 885 39 890 64 q 878 -3 881 14 l 551 -3 q 563 57 556 19 q 581 139 571 94 q 599 229 590 183 q 617 315 608 275 q 631 383 625 354 q 638 419 636 411 q 638 474 643 453 q 622 509 633 496 q 597 528 611 522 q 574 535 583 535 q 481 488 525 538 q 401 361 438 438 q 363 181 383 276 q 325 -1 343 86 l 0 -1 q 37 174 18 83 q 72 341 56 264 q 98 471 88 418 q 111 533 108 524 q 117 587 117 563 q 106 619 118 611 q 99 644 92 628 q 129 665 106 660 q 267 690 200 683 q 381 692 335 697 q 440 663 419 688 q 453 603 460 638 q 450 592 451 599 q 446 574 449 585 q 556 660 494 628 q 696 693 617 693 q 756 685 722 693 q 825 660 790 678 q 890 617 860 643 q 940 553 921 590 q 1056 654 990 615 q 1208 693 1122 693 q 1297 677 1244 693 q 1393 625 1349 661 q 1463 531 1438 589 q 1469 390 1488 474 l 1458 335 q 1450 294 1454 313 q 1446 271 1446 275 q 1446 217 1440 239 q 1463 181 1451 194 q 1487 162 1474 168 q 1511 156 1500 156 q 1601 201 1558 153 q 1679 324 1643 249 l 1758 324 z "},"n":{"ha":1110,"x_min":0,"x_max":1232,"o":"m 1190 324 q 1221 307 1210 324 q 1224 271 1232 290 q 1163 165 1197 214 q 1086 78 1129 115 q 991 19 1043 40 q 876 -3 939 -3 q 787 14 839 -3 q 690 67 735 31 q 621 160 646 103 q 614 301 596 218 l 625 357 q 633 397 629 378 q 638 419 636 415 q 638 474 643 453 q 622 510 633 496 q 597 529 611 524 q 574 536 583 535 q 526 524 550 538 q 481 488 503 511 q 440 431 460 464 q 401 360 419 399 q 363 181 383 276 q 325 -1 343 86 l 0 -1 q 37 174 18 83 q 72 341 56 264 q 98 471 88 418 q 111 533 108 524 q 117 587 117 563 q 106 619 118 611 q 99 644 92 628 q 129 665 106 660 q 267 691 200 683 q 381 692 335 699 q 440 663 419 688 q 453 603 460 638 q 450 592 451 599 q 446 574 449 585 q 556 660 494 628 q 696 693 618 693 q 785 677 733 693 q 882 625 838 661 q 951 531 926 589 q 958 390 976 474 l 947 335 q 939 294 943 314 q 935 272 935 275 q 933 217 928 239 q 950 182 939 196 q 975 163 961 168 q 999 156 989 157 q 1083 195 1043 153 q 1158 304 1124 238 q 1190 324 1168 324 z "},"p":{"ha":939,"x_min":-425,"x_max":910,"o":"m 597 690 q 751 674 689 700 q 850 598 814 647 q 898 483 886 549 q 899 347 910 417 q 859 211 889 278 q 782 94 829 144 q 672 17 735 44 q 536 -4 610 -11 q 467 12 499 0 q 408 40 435 24 q 360 74 381 56 q 325 110 339 93 q 309 26 315 60 q 303 -10 303 -8 q 270 -106 294 -49 q 196 -218 246 -164 q 64 -310 146 -272 q -143 -349 -18 -349 q -289 -324 -231 -349 q -380 -261 -347 -299 q -419 -181 -412 -224 q -408 -101 -425 -137 q -357 -49 -390 -62 q -290 -40 -324 -36 q -231 -64 -257 -44 q -200 -110 -204 -83 q -198 -120 -200 -115 q -201 -128 -196 -125 q -247 -167 -237 -143 q -250 -212 -257 -190 q -223 -250 -243 -235 q -176 -265 -203 -265 l -175 -265 q -114 -240 -140 -265 q -67 -169 -87 -214 q -33 -66 -47 -125 q -8 60 -19 -7 q 22 220 7 140 q 49 365 36 300 q 69 475 61 431 q 79 528 78 519 q 85 581 85 557 q 72 614 85 606 q 65 638 58 622 q 94 661 71 654 q 231 689 164 681 q 344 693 299 697 q 404 665 383 689 q 419 606 425 640 q 501 660 454 636 q 597 690 547 685 m 581 442 q 567 515 585 490 q 519 542 549 540 q 453 519 489 543 q 388 443 417 494 q 383 418 385 426 q 382 408 382 413 q 378 390 382 406 q 370 348 375 374 q 359 289 365 322 q 346 221 353 256 q 369 206 356 211 q 396 197 383 200 q 464 216 432 192 q 520 278 496 240 q 560 360 544 315 q 581 442 576 406 z "},"o":{"ha":765,"x_min":-7,"x_max":733,"o":"m 704 461 q 728 397 722 439 q 725 304 733 354 q 693 201 717 254 q 627 102 669 147 q 524 26 585 57 q 381 -10 463 -4 q 374 -10 378 -10 q 367 -11 371 -11 q 147 42 231 -11 q 28 174 64 94 q 3 347 -7 254 q 60 520 13 440 q 191 653 108 600 q 386 706 274 706 q 488 691 443 706 q 560 650 532 676 q 601 589 589 624 q 603 515 613 554 q 632 515 617 519 q 664 500 646 513 q 704 461 682 488 m 408 117 q 472 130 440 114 q 528 174 503 146 q 573 237 554 201 q 599 310 592 272 q 600 383 606 347 q 572 444 594 418 q 554 425 563 431 q 526 410 546 419 q 511 406 519 406 q 501 415 503 406 q 487 456 499 442 q 456 475 475 471 q 391 458 421 482 q 340 396 361 435 q 311 310 319 357 q 309 220 303 263 q 339 149 315 178 q 408 117 363 119 z "},"q":{"ha":963,"x_min":-4,"x_max":932,"o":"m 853 693 q 911 664 890 689 q 925 604 932 639 q 915 562 924 600 q 894 464 907 524 q 866 329 882 404 q 833 176 850 254 q 747 -233 794 -6 l 422 -233 q 453 -87 439 -154 q 464 -32 458 -60 q 475 19 469 -4 q 484 60 481 43 q 489 85 488 78 q 406 28 453 53 q 308 -1 360 4 q 154 15 217 -11 q 55 91 92 42 q 7 206 18 140 q 6 342 -4 272 q 47 478 17 411 q 124 594 76 544 q 233 672 171 644 q 369 693 296 700 q 444 675 410 689 q 507 643 479 661 q 556 605 535 625 q 589 568 576 585 q 589 601 592 588 q 578 621 586 614 q 571 645 564 629 q 601 667 578 661 q 740 692 672 685 q 853 693 807 699 m 325 247 q 340 172 319 197 q 392 147 360 146 q 460 176 424 147 q 526 263 497 204 q 549 369 538 319 q 567 456 560 418 q 543 480 561 471 q 510 492 525 489 q 442 473 474 497 q 385 410 410 449 q 344 328 360 372 q 325 247 329 283 z "},"r":{"ha":924,"x_min":0,"x_max":893,"o":"m 574 536 q 526 524 550 538 q 481 488 503 511 q 440 431 460 464 q 401 360 419 399 q 363 181 383 276 q 325 -1 343 86 l 0 -1 q 37 174 18 83 q 72 341 56 264 q 98 471 88 418 q 111 533 108 524 q 117 587 117 563 q 106 619 118 611 q 99 644 92 628 q 129 665 106 660 q 267 691 200 683 q 381 692 335 699 q 440 663 419 688 q 453 603 460 638 q 450 592 451 599 q 446 574 449 585 q 556 660 494 628 q 696 693 618 693 q 750 687 719 693 q 813 667 781 681 q 876 604 860 646 q 883 521 893 563 q 840 446 874 479 q 754 408 807 413 q 697 409 721 406 q 657 418 672 413 q 626 432 639 424 q 635 481 639 461 q 622 512 632 500 q 597 529 611 524 q 574 536 583 535 z "},"s":{"ha":728,"x_min":-39,"x_max":703,"o":"m 675 283 q 688 167 703 222 q 620 71 672 113 q 481 6 568 29 q 281 -14 394 -18 q 88 24 157 -10 q -10 104 18 58 q -32 199 -39 150 q 4 285 -25 249 q 80 334 33 321 q 176 321 126 347 q 192 305 188 315 q 192 283 196 294 q 177 176 167 219 q 217 110 188 133 q 285 81 246 86 q 355 85 324 75 q 401 122 386 96 q 396 185 415 147 q 356 228 385 207 q 292 272 328 249 q 220 324 257 296 q 156 385 183 351 q 117 459 129 418 q 119 551 106 500 q 154 614 129 583 q 219 667 179 644 q 313 700 258 689 q 436 707 367 711 q 515 694 472 704 q 594 666 558 685 q 653 620 631 647 q 674 556 676 593 q 653 501 671 521 q 610 475 635 482 q 558 471 585 468 q 511 482 531 474 q 485 503 492 490 q 494 528 479 515 q 517 561 514 543 q 510 595 519 579 q 482 622 500 611 q 443 633 464 632 q 395 623 410 635 q 378 588 381 611 q 410 532 375 560 q 495 469 446 504 q 595 389 544 433 q 675 283 646 344 z "},"t":{"ha":529,"x_min":0,"x_max":651,"o":"m 610 324 q 640 307 629 324 q 643 271 651 290 q 583 165 617 214 q 506 78 549 115 q 410 19 463 40 q 296 -3 358 -3 q 206 13 258 -3 q 110 65 154 29 q 40 159 65 101 q 33 300 15 217 q 54 404 43 353 q 74 499 64 449 q 92 589 83 549 l 0 589 q 31 664 0 633 q 106 694 61 694 l 110 694 q 190 709 149 694 q 267 747 231 724 q 333 801 304 771 q 376 863 363 831 q 422 892 390 892 q 461 874 446 892 q 471 832 476 856 q 456 765 464 801 q 442 694 449 729 l 528 694 q 497 619 528 650 q 424 589 467 589 l 419 589 q 399 491 408 540 q 380 399 389 442 q 364 322 371 356 q 353 271 357 289 q 353 217 347 239 q 369 181 358 194 q 394 162 381 168 q 418 156 408 156 q 503 195 463 153 q 578 304 543 238 q 610 324 588 324 z "},"u":{"ha":1024,"x_min":-11,"x_max":1146,"o":"m 1104 324 q 1135 307 1125 324 q 1138 271 1146 290 q 1077 165 1111 214 q 1000 78 1043 115 q 905 19 957 40 q 790 -3 853 -3 q 728 6 764 -3 q 658 32 693 14 q 591 78 622 50 q 542 146 560 106 q 424 38 492 79 q 268 -3 356 -3 q 180 13 232 -3 q 83 65 128 29 q 14 159 39 101 q 7 300 -11 217 q 24 376 15 338 q 39 451 31 410 q 56 533 47 493 q 62 587 61 563 q 50 619 63 611 q 43 644 36 628 q 74 665 50 660 q 210 690 143 683 q 324 692 278 697 q 383 663 363 688 q 396 603 403 638 q 374 501 385 553 q 354 405 364 450 q 338 324 344 360 q 326 271 331 289 q 326 217 321 239 q 343 181 332 194 q 367 162 354 168 q 392 156 381 156 q 459 181 426 153 q 522 254 492 208 q 525 277 524 265 q 529 300 526 289 q 544 376 536 338 q 560 451 551 410 q 576 533 568 493 q 583 587 583 563 q 571 619 583 611 q 565 644 557 628 q 594 665 572 660 q 733 690 665 683 q 846 692 800 697 q 905 663 885 688 q 918 603 925 638 q 896 501 907 553 q 876 405 885 450 q 859 324 867 360 q 849 271 851 289 q 847 217 842 239 q 864 181 853 194 q 889 162 875 168 q 913 156 903 156 q 997 195 957 153 q 1072 304 1038 238 q 1104 324 1082 324 z "},"v":{"ha":861,"x_min":-11,"x_max":828,"o":"m 813 506 q 810 496 811 500 q 807 489 808 492 q 721 317 776 404 q 594 158 665 229 q 439 42 522 88 q 268 -3 356 -3 q 180 13 232 -3 q 83 65 128 29 q 14 159 39 101 q 7 300 -11 217 q 24 376 15 338 q 39 451 31 410 q 56 533 47 493 q 62 587 61 563 q 50 619 63 611 q 43 644 36 628 q 74 665 50 660 q 210 690 143 683 q 324 692 278 697 q 383 663 363 688 q 396 603 403 638 q 374 501 385 553 q 354 405 364 450 q 338 324 344 360 q 326 271 331 289 q 326 217 321 239 q 343 181 332 194 q 367 162 354 168 q 392 156 381 156 q 436 164 411 154 q 488 192 461 174 q 543 238 515 211 q 597 296 571 264 q 631 351 614 317 q 656 426 649 386 q 657 503 664 465 q 618 568 650 542 q 601 610 597 585 q 626 656 606 635 q 680 688 647 676 q 750 692 713 700 q 803 659 788 683 q 824 606 819 635 q 823 549 828 576 q 813 506 818 521 z "},"w":{"ha":1564,"x_min":-11,"x_max":1688,"o":"m 1644 324 q 1676 307 1665 324 q 1678 271 1688 290 q 1617 166 1651 215 q 1540 79 1583 117 q 1445 20 1497 42 q 1331 -1 1393 -1 q 1267 8 1303 -1 q 1194 35 1231 17 q 1126 84 1157 54 q 1078 157 1094 114 q 957 42 1026 86 q 796 -1 888 -1 q 733 7 769 -1 q 662 34 697 15 q 595 81 626 53 q 546 151 564 110 q 426 41 494 83 q 268 -1 358 -1 q 180 15 232 -1 q 83 67 128 31 q 14 160 39 103 q 7 301 -11 218 q 24 378 15 339 q 39 453 31 411 q 56 535 47 494 q 62 588 61 563 q 50 619 63 613 q 43 644 36 629 q 74 667 50 660 q 210 692 143 685 q 324 693 278 699 q 383 664 363 689 q 396 604 403 639 q 374 503 385 554 q 354 406 364 451 q 338 326 344 361 q 326 272 331 290 q 326 217 321 239 q 343 183 332 196 q 367 163 354 169 q 392 157 381 157 q 463 185 428 154 q 529 267 497 215 q 531 283 531 275 q 535 301 532 292 q 551 378 543 339 q 567 453 558 411 q 583 535 575 494 q 590 588 589 563 q 578 619 590 613 q 571 644 564 629 q 601 667 578 660 q 739 692 672 685 q 851 693 806 699 q 910 664 890 689 q 924 604 931 639 q 902 503 913 554 q 882 406 892 451 q 865 326 872 361 q 854 272 858 290 q 854 217 849 239 q 871 183 860 196 q 896 163 882 169 q 919 157 910 157 q 997 189 960 154 q 1065 282 1033 224 q 1069 301 1067 288 q 1086 378 1078 339 q 1101 453 1093 411 q 1118 535 1110 494 q 1124 588 1124 563 q 1113 619 1125 613 q 1106 644 1099 629 q 1136 667 1113 660 q 1274 692 1207 685 q 1386 693 1340 699 q 1445 664 1425 689 q 1458 604 1465 639 q 1437 503 1447 554 q 1417 406 1426 451 q 1400 326 1407 361 q 1389 272 1393 290 q 1389 217 1383 239 q 1406 183 1394 196 q 1431 163 1417 169 q 1454 157 1444 157 q 1538 196 1499 154 q 1613 304 1578 238 q 1644 324 1625 324 z "},"x":{"ha":1104,"x_min":-1,"x_max":1226,"o":"m 1186 324 q 1216 307 1206 324 q 1218 272 1226 290 q 1158 170 1192 218 q 1081 85 1124 122 q 986 26 1038 49 q 874 -1 935 3 q 735 8 800 -6 q 613 47 669 21 q 506 109 556 72 q 415 188 457 146 q 348 109 381 146 q 280 45 315 72 q 206 4 244 18 q 122 -3 168 -10 q 49 22 76 3 q 10 67 22 42 q 0 117 -1 92 q 10 163 1 143 q 33 192 19 183 q 63 193 47 201 q 144 174 100 169 q 257 219 188 179 q 290 243 269 226 q 336 282 310 260 q 288 360 317 310 q 228 461 260 411 q 162 548 196 511 q 99 585 128 585 q 83 590 89 585 q 94 610 81 593 q 142 647 108 628 q 233 681 176 665 q 375 696 290 696 q 498 661 446 696 q 578 575 550 626 l 674 426 q 737 526 707 478 q 800 611 767 574 q 873 672 833 649 q 963 694 913 694 q 1039 679 1010 694 q 1083 641 1068 664 q 1100 592 1097 618 q 1097 544 1103 565 q 1077 513 1090 524 q 1049 508 1064 501 q 965 515 1008 525 q 860 456 922 504 q 813 408 843 443 q 744 329 783 374 q 858 201 790 244 q 997 157 926 157 q 1080 198 1040 157 q 1154 304 1119 239 q 1186 324 1163 324 z "},"y":{"ha":960,"x_min":-11,"x_max":931,"o":"m 849 693 q 909 664 888 689 q 924 604 931 639 q 915 566 921 597 q 903 500 910 535 q 886 411 896 460 q 879 376 885 408 q 865 297 874 343 q 846 199 856 251 q 828 101 836 146 q 813 25 819 56 q 807 -7 807 -6 q 774 -104 799 -46 q 700 -217 750 -162 q 569 -310 650 -271 q 363 -349 488 -349 q 199 -319 261 -349 q 107 -247 138 -289 q 75 -160 76 -206 q 93 -86 74 -115 q 151 -40 117 -51 q 217 -35 185 -29 q 275 -62 250 -42 q 304 -110 300 -83 q 307 -120 306 -115 q 303 -128 308 -125 q 257 -167 267 -143 q 254 -212 247 -190 q 281 -250 261 -235 q 328 -265 301 -265 l 329 -265 q 392 -239 365 -265 q 438 -168 418 -212 q 471 -64 457 -124 q 496 63 485 -4 l 497 63 q 500 83 499 74 q 504 101 501 92 q 399 26 457 54 q 268 -3 340 -3 q 180 13 232 -3 q 83 65 128 29 q 14 159 39 101 q 7 300 -11 217 q 24 376 15 338 q 39 451 31 410 q 56 533 47 493 q 62 587 61 563 q 50 619 63 611 q 43 644 36 628 q 74 665 50 660 q 210 690 143 683 q 324 692 278 697 q 383 663 363 688 q 396 603 403 638 q 374 501 385 553 q 354 405 364 450 q 338 324 344 360 q 326 271 331 289 q 326 216 321 238 q 343 181 332 194 q 367 162 354 168 q 392 156 381 156 q 469 188 432 153 q 538 279 506 222 q 568 447 556 378 q 583 528 581 515 q 589 581 589 557 q 576 614 589 606 q 569 638 563 622 q 599 661 576 654 q 736 689 669 681 q 849 693 803 697 z "},"z":{"ha":986,"x_min":-6,"x_max":1106,"o":"m 1078 322 q 1099 306 1092 318 q 1101 278 1106 293 q 1077 203 1093 249 q 1035 106 1061 157 q 974 5 1010 56 q 890 -86 938 -46 q 783 -150 843 -126 q 650 -169 724 -174 l 649 -169 q 520 -156 575 -169 q 422 -124 465 -143 q 344 -81 379 -104 q 273 -37 308 -57 q 200 -5 238 -18 q 114 8 163 8 q 46 0 72 8 q 9 12 24 -6 q 3 50 -6 29 q 10 65 6 57 q 19 81 14 74 q 60 131 35 108 q 194 239 115 188 q 350 335 272 290 q 494 418 428 381 q 592 483 561 456 l 42 483 q 58 565 42 526 q 104 633 75 604 q 172 678 133 661 q 253 694 210 694 l 908 694 q 900 623 908 658 q 869 561 892 588 q 783 472 840 517 q 655 385 725 428 q 509 303 585 343 q 368 229 433 264 q 256 165 303 194 q 193 113 208 135 q 313 136 260 139 q 414 117 365 133 q 514 81 463 101 q 628 53 565 61 q 731 49 675 46 q 842 78 788 53 q 947 155 897 103 q 1033 300 997 207 q 1051 320 1039 314 q 1078 322 1064 326 z "},"A":{"ha":1486,"x_min":-3,"x_max":1454,"o":"m 1117 1010 q 1174 1032 1140 1022 q 1242 1042 1207 1042 q 1309 1031 1276 1042 q 1364 990 1342 1019 q 1394 911 1386 961 q 1389 785 1403 861 l 1304 382 l 1304 378 q 1301 365 1304 374 q 1271 195 1275 267 q 1276 74 1267 124 q 1306 -6 1286 24 q 1350 -51 1326 -36 q 1396 -71 1374 -67 q 1433 -71 1418 -75 q 1449 -79 1444 -68 q 1447 -101 1454 -90 q 1373 -171 1425 -146 q 1258 -197 1321 -196 q 1129 -176 1194 -199 q 1016 -102 1064 -153 q 945 29 968 -51 q 944 222 922 110 l 943 219 q 889 333 921 278 q 819 434 861 382 q 718 526 776 486 q 651 427 685 483 q 588 314 617 371 q 536 206 558 257 q 504 126 514 156 q 485 12 483 64 q 503 -81 486 -40 q 548 -147 519 -121 q 610 -186 576 -174 q 640 -226 638 -196 q 618 -274 642 -256 q 492 -335 557 -319 q 365 -340 426 -350 q 252 -299 304 -331 q 165 -219 200 -267 q 116 -110 129 -171 q 121 21 103 -49 q 183 167 138 89 q 290 324 229 246 q 420 476 351 403 q 551 608 489 550 q 384 653 463 642 q 243 660 306 665 q 137 632 181 654 q 72 576 93 610 q 38 572 57 551 q 8 636 18 592 q 3 739 -3 681 q 44 847 8 797 q 153 928 81 897 q 350 951 226 960 q 562 889 468 943 q 729 758 656 835 q 944 909 842 844 q 1117 1010 1046 974 m 974 360 q 1000 479 986 417 q 1028 602 1014 542 q 1055 717 1042 663 q 1078 815 1068 772 q 1094 882 1088 857 q 1100 908 1100 907 q 1042 867 1075 893 q 972 806 1008 840 q 895 733 935 772 q 818 650 856 693 q 916 488 878 567 q 974 360 954 408 z "},"B":{"ha":1775,"x_min":-3,"x_max":1740,"o":"m 1378 465 q 1526 417 1460 451 q 1641 334 1593 383 q 1715 221 1689 285 q 1740 85 1740 157 q 1708 -74 1740 3 q 1615 -211 1676 -151 q 1465 -306 1554 -271 q 1258 -342 1375 -342 q 1113 -308 1168 -342 q 1029 -231 1057 -275 q 1000 -143 1001 -187 q 1019 -78 999 -99 q 1030 -65 1025 -72 q 1039 -64 1035 -58 q 1139 -145 1079 -129 q 1256 -133 1199 -161 q 1357 -39 1314 -106 q 1406 128 1400 28 l 1406 133 q 1395 222 1407 183 q 1362 290 1383 261 q 1312 340 1340 319 q 1254 376 1283 361 q 1094 419 1185 410 q 1088 344 1090 393 q 1077 233 1085 296 q 1053 101 1069 171 q 1008 -35 1038 32 q 930 -162 978 -103 q 810 -264 882 -222 q 638 -325 738 -306 q 404 -329 538 -344 q 221 -276 299 -317 q 93 -178 143 -235 q 20 -56 43 -122 q 1 72 -3 10 q 49 215 7 157 q 153 305 92 274 q 283 340 214 336 q 409 317 351 343 q 503 237 467 292 q 536 97 540 182 q 531 68 536 82 q 510 57 525 54 q 412 47 454 65 q 344 -1 369 29 q 310 -72 318 -32 q 312 -147 301 -111 q 353 -210 322 -183 q 435 -244 383 -237 q 556 -215 510 -254 q 633 -102 603 -175 q 680 69 663 -29 q 715 274 697 167 q 754 490 732 382 q 815 692 776 599 q 913 855 853 785 q 1067 957 974 925 l 1018 957 l 1029 957 q 863 931 932 957 q 749 867 794 906 q 681 782 703 828 q 656 694 658 736 q 668 622 653 653 q 714 585 683 592 q 729 571 725 582 q 726 549 733 560 q 658 480 703 504 q 563 451 614 456 q 461 463 513 447 q 372 513 410 479 q 315 599 333 547 q 311 721 296 651 q 367 833 324 782 q 478 922 411 883 q 628 985 544 960 q 806 1024 713 1011 q 997 1037 899 1038 q 1188 1021 1094 1036 q 1385 968 1306 1001 q 1511 893 1464 935 q 1578 803 1558 851 q 1595 708 1597 756 q 1573 618 1593 661 q 1522 542 1553 575 q 1454 488 1492 508 q 1378 465 1417 467 m 1110 513 q 1226 544 1176 513 q 1308 624 1276 576 q 1353 726 1340 671 q 1360 826 1367 781 q 1326 899 1353 871 q 1250 922 1299 928 q 1201 865 1226 911 q 1156 743 1181 825 q 1110 513 1131 661 z "},"C":{"ha":1863,"x_min":-7,"x_max":1832,"o":"m 1531 338 q 1541 367 1529 353 q 1567 385 1553 381 q 1705 399 1649 413 q 1792 343 1761 385 q 1827 238 1822 301 q 1811 106 1832 175 q 1745 -33 1790 36 q 1630 -159 1700 -103 q 1466 -250 1560 -215 q 1254 -285 1372 -285 q 1040 -251 1129 -285 q 891 -161 950 -218 q 803 -27 832 -104 q 769 137 774 50 q 785 316 765 224 q 844 498 804 408 q 941 669 883 588 q 1071 814 999 750 q 903 824 993 821 q 726 819 814 828 q 556 789 638 811 q 410 723 474 767 q 310 610 347 679 q 274 443 274 542 q 267 426 274 431 q 249 421 260 421 q 226 424 239 421 q 200 429 213 426 q 74 492 122 444 q 9 605 25 540 q 12 740 -7 669 q 90 872 31 811 q 252 974 150 932 q 503 1022 354 1017 q 676 1017 586 1026 q 856 992 765 1007 q 1035 958 947 976 q 1204 925 1124 939 q 1419 1019 1306 992 q 1653 1028 1533 1046 q 1725 1003 1694 1024 q 1772 953 1756 982 q 1788 890 1788 924 q 1771 825 1788 856 q 1719 771 1754 794 q 1629 739 1685 747 q 1557 734 1593 732 q 1492 742 1521 736 q 1425 757 1457 747 q 1294 606 1356 694 q 1185 422 1232 518 q 1112 230 1139 326 q 1084 53 1085 133 q 1112 -85 1083 -28 q 1207 -157 1140 -142 q 1315 -147 1260 -169 q 1420 -81 1371 -125 q 1508 19 1469 -37 q 1565 133 1546 76 q 1579 238 1585 189 q 1536 314 1574 288 q 1531 324 1532 318 q 1531 338 1531 331 m 1583 903 q 1536 872 1557 889 q 1515 856 1525 864 q 1574 840 1543 846 q 1628 840 1606 833 q 1655 865 1650 849 q 1653 894 1660 881 q 1627 912 1646 907 q 1583 903 1608 917 z "},"F":{"ha":1417,"x_min":-3,"x_max":1390,"o":"m 1371 561 q 1374 454 1390 500 q 1350 415 1367 433 q 1304 381 1333 396 q 1231 356 1275 365 q 1124 347 1186 347 q 1113 299 1118 322 q 1104 254 1108 276 q 975 -58 1064 78 q 885 -171 938 -117 q 762 -265 832 -225 q 603 -327 692 -306 q 404 -340 514 -349 q 220 -292 297 -332 q 93 -193 143 -251 q 20 -67 43 -135 q 1 64 -3 1 q 38 208 7 149 q 115 305 69 268 q 214 357 160 342 q 319 371 268 372 q 381 359 349 371 q 438 326 413 347 q 478 275 464 306 q 488 206 493 244 q 483 191 486 197 q 471 185 479 185 q 371 154 411 186 q 309 74 331 122 q 285 -30 288 26 q 301 -135 283 -86 q 356 -219 318 -185 q 454 -257 394 -254 q 556 -219 510 -260 q 640 -116 603 -179 q 706 23 678 -53 q 754 166 735 99 q 784 282 774 233 q 797 340 794 331 q 798 345 797 343 q 799 350 799 347 q 756 349 775 350 q 714 344 736 347 q 666 335 692 340 q 604 324 640 331 q 629 413 604 374 q 695 474 649 446 q 831 501 742 501 q 849 584 840 544 q 864 658 857 624 q 876 710 867 672 q 905 792 885 747 q 958 879 925 836 q 1039 946 990 922 l 1004 946 l 1001 946 q 808 922 883 944 q 689 866 732 900 q 631 792 646 832 q 619 714 617 751 q 638 647 622 676 q 672 608 653 618 q 683 594 681 604 q 683 575 686 585 q 630 513 667 536 q 548 485 593 490 q 457 492 503 479 q 375 533 411 504 q 320 610 339 563 q 311 725 301 658 q 357 835 319 789 q 449 913 394 881 q 569 966 503 946 q 704 999 636 986 q 1060 1019 863 1025 l 1292 1019 q 1323 1014 1313 1019 q 1335 1001 1333 1008 q 1333 985 1338 993 q 1321 974 1329 978 q 1267 917 1289 957 q 1231 833 1244 876 q 1204 726 1215 783 q 1181 619 1193 678 q 1156 497 1169 560 q 1288 517 1228 503 q 1371 561 1347 532 z "},"H":{"ha":2013,"x_min":0,"x_max":1978,"o":"m 1350 -18 q 1351 -17 1350 -18 l 1350 -19 l 1350 -18 m 1940 1039 q 1967 1032 1958 1038 q 1976 1019 1975 1026 q 1974 1006 1978 1013 q 1963 994 1969 999 q 1908 937 1931 978 q 1872 853 1886 896 q 1846 746 1857 803 l 1715 117 q 1706 54 1708 85 q 1705 -3 1703 24 q 1715 -50 1707 -29 q 1742 -81 1724 -71 q 1751 -96 1753 -86 q 1743 -117 1749 -106 q 1701 -153 1733 -136 q 1625 -181 1668 -171 q 1534 -188 1582 -190 q 1447 -167 1486 -186 q 1385 -110 1408 -149 q 1365 -4 1361 -71 q 1383 86 1374 39 q 1403 180 1392 126 q 1426 292 1414 233 q 1284 340 1353 322 q 1149 364 1215 357 q 1138 317 1143 340 q 1129 274 1133 294 q 1000 -39 1089 96 q 910 -151 963 -97 q 787 -244 857 -204 q 628 -306 717 -285 q 429 -319 539 -328 q 242 -277 322 -312 q 108 -187 163 -242 q 27 -64 54 -133 q 0 83 0 6 q 29 215 0 160 q 104 305 58 271 q 206 351 150 339 q 315 353 261 363 q 412 310 368 343 q 478 222 456 278 q 491 190 485 204 q 479 179 497 176 q 368 163 413 190 q 301 89 324 136 q 279 -16 279 42 q 301 -124 279 -74 q 368 -209 324 -175 q 481 -243 413 -243 q 569 -218 529 -243 q 640 -153 608 -193 q 698 -60 672 -112 q 743 47 724 -8 q 776 153 763 101 q 800 247 790 206 l 799 247 q 808 289 803 268 q 817 332 813 310 q 774 325 789 335 q 750 303 758 315 q 738 268 740 288 q 671 279 699 261 q 631 328 643 297 q 623 398 618 360 q 654 469 628 436 q 731 524 681 501 q 861 544 782 546 q 875 615 868 581 q 889 678 882 649 q 901 730 892 692 q 931 813 911 768 q 983 899 950 857 q 1064 965 1015 942 l 940 965 q 817 942 871 965 q 725 882 763 918 q 666 803 688 846 q 640 721 644 760 q 651 654 636 682 q 699 619 665 626 q 709 609 708 617 q 706 592 710 601 q 693 572 701 582 q 676 554 685 561 q 580 513 638 522 q 468 525 522 504 q 375 599 414 546 q 336 744 336 653 q 362 856 336 808 q 430 935 388 903 q 526 989 472 968 q 636 1021 579 1010 q 938 1039 768 1047 l 1317 1039 q 1348 1033 1338 1039 q 1360 1020 1358 1028 q 1358 1006 1363 1013 q 1346 994 1354 999 q 1292 937 1314 978 q 1256 853 1269 896 q 1229 746 1240 803 q 1203 624 1218 692 q 1174 486 1189 557 q 1335 425 1264 457 q 1443 375 1407 393 q 1463 474 1453 426 q 1482 563 1474 522 q 1497 634 1490 604 q 1506 678 1503 664 q 1574 853 1528 783 q 1678 964 1621 922 q 1794 1022 1735 1006 q 1903 1039 1854 1039 l 1933 1039 l 1940 1039 z "},"I":{"ha":1301,"x_min":-3,"x_max":1267,"o":"m 1222 972 q 1253 967 1243 972 q 1265 954 1263 961 q 1263 939 1267 947 q 1251 926 1258 931 q 1182 876 1208 900 q 1137 809 1156 851 q 1103 697 1118 767 q 1067 508 1088 626 q 1038 385 1057 453 q 988 249 1019 318 q 907 117 956 181 q 788 5 858 53 q 622 -68 717 -43 q 404 -83 528 -93 q 220 -35 297 -75 q 93 64 143 6 q 20 190 43 122 q 1 321 -3 258 q 49 466 7 407 q 153 557 92 525 q 283 592 214 589 q 409 570 351 596 q 503 489 467 544 q 536 346 540 433 q 531 317 536 331 q 510 306 525 303 q 412 296 454 314 q 344 247 369 278 q 310 175 318 215 q 312 98 301 135 q 353 34 322 61 q 435 0 383 7 q 556 16 511 -10 q 627 93 601 42 q 665 215 653 144 q 688 365 676 286 q 717 525 700 443 q 767 680 733 607 q 859 812 801 753 q 1010 904 917 871 l 1008 906 q 1003 908 1007 907 q 993 913 1000 910 q 825 940 896 943 q 708 912 754 936 q 637 851 661 888 q 608 778 613 814 q 615 716 603 743 q 656 685 628 689 q 672 669 669 682 q 664 647 675 656 q 539 599 600 604 q 430 616 478 594 q 351 679 382 638 q 318 772 321 721 q 344 878 315 824 q 444 978 374 932 q 590 1027 506 1017 q 760 1033 674 1038 q 924 1013 846 1028 q 1049 986 1001 999 q 1169 972 1106 972 l 1222 972 l 1222 972 z "},"J":{"ha":1371,"x_min":-3,"x_max":1338,"o":"m 1292 1025 q 1323 1019 1313 1025 q 1335 1006 1333 1014 q 1333 991 1338 999 q 1321 979 1329 983 q 1208 876 1249 949 q 1144 705 1168 803 q 1103 491 1119 607 q 1067 257 1088 375 q 1038 135 1057 203 q 988 -2 1019 67 q 907 -135 956 -71 q 788 -247 858 -200 q 622 -319 717 -294 q 404 -335 528 -344 q 220 -286 297 -326 q 93 -187 143 -246 q 20 -61 43 -129 q 1 69 -3 7 q 49 215 7 156 q 153 306 92 274 q 283 341 214 338 q 409 319 351 344 q 503 238 467 293 q 536 94 540 182 q 531 65 536 79 q 510 54 525 51 q 412 44 454 63 q 344 -5 369 26 q 310 -76 318 -36 q 312 -153 301 -117 q 353 -217 322 -190 q 435 -251 383 -244 q 558 -224 511 -261 q 634 -117 606 -186 q 679 47 663 -47 q 710 247 696 142 q 744 458 725 351 q 799 658 764 564 q 892 824 835 751 q 1039 933 949 896 q 991 933 999 933 q 988 933 983 933 q 1001 933 993 933 q 1001 933 1008 933 q 826 906 894 933 q 718 840 757 879 q 665 756 679 800 q 657 676 651 711 q 682 621 663 640 q 729 614 701 601 q 674 522 714 557 q 583 474 633 486 q 478 472 532 463 q 383 515 425 482 q 320 601 342 547 q 311 731 299 654 q 365 847 322 799 q 471 928 408 894 q 610 981 533 961 q 765 1013 688 1001 q 1174 1025 949 1038 l 1292 1025 l 1292 1025 z "},"K":{"ha":1693,"x_min":-3,"x_max":1918,"o":"m 1856 -194 q 1909 -206 1900 -185 q 1886 -258 1918 -228 q 1819 -304 1860 -283 q 1728 -337 1778 -325 q 1622 -351 1678 -350 q 1509 -338 1565 -353 q 1399 -291 1453 -324 q 1299 -204 1344 -258 q 1215 -76 1244 -140 q 1172 49 1186 -11 q 1151 161 1157 108 q 1139 254 1146 214 q 1120 319 1132 294 q 1081 349 1108 343 q 1074 310 1076 322 q 1067 271 1072 297 q 1038 147 1057 217 q 988 6 1019 78 q 907 -134 956 -67 q 788 -251 858 -201 q 622 -328 717 -301 q 404 -346 528 -356 q 220 -293 297 -337 q 93 -186 143 -249 q 20 -51 43 -124 q 1 83 -3 21 q 49 229 7 169 q 153 321 92 289 q 283 356 214 353 q 409 334 351 360 q 503 252 467 308 q 536 108 540 196 q 531 79 536 93 q 510 68 525 65 q 412 58 454 76 q 344 9 369 40 q 310 -62 318 -22 q 312 -139 301 -103 q 353 -203 322 -175 q 435 -237 383 -231 q 558 -210 511 -247 q 634 -104 606 -174 q 679 60 663 -35 q 710 258 696 154 q 744 467 725 361 q 799 667 764 574 q 892 832 835 760 q 1039 942 949 904 l 990 942 l 1001 942 q 826 915 894 942 q 718 850 757 889 q 665 767 679 811 q 657 688 651 724 q 682 634 663 653 q 729 628 701 615 q 674 535 714 569 q 583 488 633 500 q 478 486 532 476 q 383 528 425 496 q 320 615 342 561 q 311 744 299 668 q 365 860 322 813 q 471 942 408 908 q 610 994 533 975 q 765 1024 688 1014 q 1174 1032 949 1047 l 1292 1032 q 1323 1026 1313 1032 q 1335 1013 1333 1021 q 1333 998 1338 1006 q 1321 986 1329 990 q 1231 915 1267 963 q 1173 808 1196 868 q 1135 679 1150 747 q 1110 547 1121 611 q 1153 638 1126 589 q 1217 734 1181 686 q 1299 825 1254 782 q 1398 897 1344 868 q 1511 938 1451 926 q 1638 936 1571 950 q 1713 900 1685 926 q 1755 840 1740 874 q 1772 772 1769 807 q 1768 710 1774 736 q 1744 677 1764 689 q 1707 678 1724 665 q 1613 715 1671 704 q 1482 706 1554 725 q 1328 633 1410 688 q 1165 478 1247 579 q 1278 451 1229 474 q 1367 381 1326 429 q 1445 256 1408 333 q 1524 64 1482 178 q 1597 -81 1557 -26 q 1680 -165 1636 -136 q 1769 -199 1724 -193 q 1856 -194 1814 -204 z "},"M":{"ha":2272,"x_min":-4,"x_max":2369,"o":"m 2368 919 q 2366 909 2369 913 q 2355 904 2363 906 q 2339 905 2347 903 q 2324 910 2331 907 q 2241 933 2275 932 q 2185 919 2207 933 q 2151 880 2163 906 q 2136 822 2139 854 q 2128 791 2131 806 q 2122 765 2125 776 q 2118 743 2119 753 l 2071 303 q 2056 187 2060 246 q 2069 82 2053 128 q 2126 9 2085 36 q 2244 -10 2167 -18 l 2244 -18 q 2244 -27 2244 -22 q 2243 -37 2243 -32 q 2199 -133 2236 -94 q 2111 -191 2163 -171 q 2001 -212 2060 -211 q 1894 -197 1943 -214 q 1810 -149 1849 -181 q 1747 -63 1771 -117 q 1718 69 1724 -10 q 1736 258 1713 149 q 1748 304 1739 271 q 1769 383 1757 338 q 1794 480 1781 428 q 1822 581 1808 532 q 1845 673 1835 631 q 1861 740 1856 715 q 1776 633 1817 690 q 1699 517 1735 576 q 1633 400 1664 458 q 1576 289 1601 342 q 1471 40 1517 164 l 1485 -78 q 1463 -190 1485 -144 q 1411 -266 1442 -236 q 1348 -312 1381 -296 q 1290 -333 1315 -328 q 1200 -343 1246 -344 q 1116 -328 1154 -342 q 1049 -288 1078 -314 q 1010 -225 1021 -262 q 1012 -203 1007 -214 q 1028 -190 1017 -193 q 1069 -170 1044 -186 q 1114 -126 1093 -154 q 1145 -60 1135 -99 q 1146 29 1156 -21 q 1140 56 1146 29 q 1123 125 1133 82 q 1100 224 1113 168 q 1074 336 1088 279 l 1001 642 q 984 552 989 607 q 975 427 979 497 q 963 276 971 357 q 935 107 954 194 q 870 -62 915 17 q 760 -198 825 -140 q 613 -288 694 -256 q 439 -321 531 -321 q 249 -284 332 -321 q 108 -190 165 -247 q 24 -65 51 -133 q 1 67 -4 4 q 59 229 10 165 q 176 325 108 293 q 319 357 243 357 q 455 328 394 357 q 550 242 515 299 q 572 101 585 185 q 565 72 569 86 q 546 61 561 58 q 461 51 497 68 q 403 3 425 33 q 373 -62 381 -26 q 374 -130 365 -99 q 407 -182 382 -161 q 476 -200 432 -203 q 603 -150 557 -196 q 674 -30 649 -104 q 710 139 699 44 q 733 334 721 233 q 763 534 744 435 q 822 717 782 633 q 930 860 861 800 q 1110 944 999 921 q 1045 944 1069 944 q 1006 942 1021 943 q 982 941 990 942 q 967 940 974 940 q 791 913 860 940 q 683 847 722 886 q 631 762 644 807 q 622 681 617 717 q 647 626 628 646 q 694 619 667 607 q 639 528 679 563 q 548 481 599 493 q 444 479 497 469 q 349 522 390 489 q 285 608 307 554 q 276 738 264 661 q 331 853 288 806 q 436 935 374 901 q 576 988 499 968 q 731 1019 653 1008 q 1139 1032 914 1044 l 1257 1032 q 1288 1026 1278 1032 q 1301 1012 1299 1019 q 1299 997 1303 1004 q 1286 986 1294 989 q 1258 958 1265 978 q 1244 918 1250 939 q 1247 810 1236 886 q 1281 638 1258 735 q 1336 435 1304 542 q 1401 233 1368 328 q 1599 601 1489 438 q 1702 739 1646 671 q 1823 863 1758 807 q 1960 955 1888 918 q 2113 999 2033 992 q 2287 988 2221 1010 q 2368 919 2353 965 z "},"N":{"ha":1896,"x_min":-4,"x_max":2086,"o":"m 1918 1042 q 1974 1036 1950 1043 q 2017 1015 1999 1029 q 2047 983 2035 1001 q 2067 944 2058 964 q 2086 839 2085 899 q 1959 826 2015 850 q 1858 752 1903 801 q 1781 634 1814 703 q 1724 487 1747 565 q 1688 326 1701 408 q 1669 167 1675 243 q 1665 24 1664 90 q 1675 -87 1667 -43 l 1675 -93 q 1665 -172 1672 -135 q 1633 -239 1658 -210 q 1557 -288 1607 -268 q 1419 -314 1507 -308 q 1374 -298 1393 -317 q 1357 -251 1354 -279 q 1335 -119 1360 -187 q 1273 21 1311 -51 q 1189 169 1235 93 q 1103 322 1143 244 q 1035 478 1063 399 q 1006 638 1007 557 q 1003 639 1006 639 q 1001 636 1001 639 q 1001 559 1000 617 q 999 424 1001 501 q 990 260 997 347 q 965 93 982 172 q 904 -73 946 3 q 797 -203 863 -149 q 642 -287 732 -257 q 439 -317 553 -317 q 249 -280 332 -317 q 108 -185 165 -243 q 24 -60 51 -128 q 1 71 -4 8 q 59 233 10 169 q 176 329 108 297 q 319 361 243 361 q 455 332 394 361 q 550 246 515 303 q 572 106 585 189 q 565 76 569 90 q 546 65 561 63 q 461 55 497 72 q 403 8 425 38 q 373 -58 381 -22 q 374 -126 365 -94 q 407 -178 382 -157 q 476 -196 432 -199 q 603 -146 557 -192 q 674 -26 649 -100 q 710 143 699 49 q 733 338 721 238 q 763 538 744 439 q 822 721 782 638 q 930 865 861 804 q 1110 949 999 925 q 1045 948 1069 949 q 1006 947 1021 947 q 982 947 990 947 q 967 946 974 946 q 791 919 860 946 q 683 852 722 892 q 631 767 644 813 q 622 687 617 722 q 647 632 628 651 q 694 625 667 613 q 639 532 679 567 q 548 485 599 497 q 444 483 497 474 q 349 526 390 493 q 285 612 307 558 q 276 742 264 665 q 331 858 288 810 q 436 939 374 906 q 576 992 499 972 q 731 1024 653 1013 q 1139 1036 914 1049 l 1257 1036 q 1288 1030 1278 1036 q 1301 1016 1299 1024 q 1299 1001 1303 1008 q 1286 990 1294 993 q 1259 963 1265 982 q 1244 922 1253 943 q 1238 825 1229 883 q 1272 699 1247 767 q 1333 557 1296 631 q 1410 413 1369 483 q 1490 280 1450 343 q 1561 169 1529 217 q 1569 354 1561 257 q 1593 547 1576 451 q 1637 729 1610 642 q 1703 885 1664 817 q 1797 994 1743 953 q 1918 1042 1850 1036 z "},"O":{"ha":2075,"x_min":-7,"x_max":2040,"o":"m 2019 654 q 2039 546 2040 613 q 2017 399 2038 479 q 1958 232 1997 319 q 1862 63 1918 144 q 1734 -91 1806 -19 q 1577 -212 1663 -162 q 1394 -281 1492 -261 q 1186 -279 1296 -300 q 964 -177 1046 -253 q 846 1 882 -101 q 815 223 810 104 q 853 454 819 342 q 944 662 888 567 q 1071 814 1001 757 q 903 824 993 821 q 726 819 814 828 q 556 789 638 811 q 410 723 474 767 q 310 610 347 679 q 274 443 274 542 q 267 426 274 431 q 249 421 260 421 q 226 424 239 421 q 200 429 213 426 q 74 492 122 444 q 9 605 25 540 q 12 740 -7 669 q 90 872 31 811 q 252 974 150 932 q 503 1022 354 1017 q 676 1017 586 1026 q 856 992 765 1007 q 1035 958 947 976 q 1204 925 1124 939 q 1419 1019 1306 992 q 1653 1028 1533 1046 q 1725 1003 1694 1024 q 1772 953 1756 982 q 1788 890 1788 924 q 1771 825 1788 856 q 1719 771 1754 794 q 1629 739 1685 747 q 1557 734 1593 732 q 1492 742 1521 736 q 1425 757 1457 747 q 1299 607 1356 694 q 1204 422 1243 519 q 1146 228 1165 325 q 1130 49 1126 131 q 1161 -93 1133 -33 q 1246 -172 1189 -153 q 1344 -175 1289 -187 q 1454 -124 1399 -162 q 1562 -23 1510 -86 q 1651 126 1614 40 q 1707 297 1690 215 q 1722 444 1724 379 q 1699 551 1719 508 q 1643 607 1679 594 q 1625 626 1628 613 q 1629 657 1622 640 q 1666 710 1639 688 q 1730 747 1693 733 q 1808 764 1767 761 q 1890 756 1850 767 q 1965 720 1931 744 q 2019 654 1999 696 m 1628 840 q 1655 865 1650 849 q 1653 894 1660 881 q 1627 912 1646 907 q 1583 903 1608 917 q 1536 872 1557 889 q 1515 856 1525 864 q 1574 840 1543 846 q 1628 840 1606 833 z "},"P":{"ha":1571,"x_min":-3,"x_max":1700,"o":"m 311 718 q 399 865 328 803 q 576 968 471 928 q 808 1026 681 1008 q 1063 1037 935 1043 q 1310 1000 1192 1031 q 1517 913 1429 969 q 1653 775 1606 857 q 1685 583 1700 693 q 1624 401 1669 474 q 1517 283 1578 328 q 1386 217 1456 238 q 1253 194 1317 197 q 1138 203 1189 192 q 1065 232 1088 214 q 1035 110 1054 176 q 984 -24 1017 43 q 902 -154 951 -92 q 783 -262 853 -217 q 619 -331 713 -307 q 404 -346 526 -356 q 220 -297 297 -337 q 93 -199 143 -257 q 20 -74 43 -142 q 1 57 -3 -6 q 49 203 7 143 q 153 294 92 263 q 283 330 214 326 q 409 308 351 333 q 503 226 467 282 q 536 83 540 171 q 531 53 536 68 q 510 42 525 39 q 412 32 454 50 q 344 -17 369 14 q 310 -89 318 -49 q 312 -165 301 -129 q 353 -229 322 -201 q 435 -264 383 -257 q 558 -234 511 -274 q 635 -120 606 -194 q 681 53 664 -46 q 715 262 699 153 q 753 481 732 371 q 813 687 775 592 q 912 854 851 782 q 1067 958 972 926 l 1018 958 l 1029 958 q 851 928 922 958 q 738 855 781 899 q 679 762 696 811 q 665 673 663 713 q 684 611 667 633 q 729 601 701 589 q 673 510 714 544 q 580 463 632 475 q 474 460 528 450 q 378 503 419 471 q 316 589 336 535 q 311 718 296 643 m 1407 583 q 1413 678 1415 635 q 1402 754 1411 721 q 1378 813 1393 788 q 1346 858 1363 839 q 1250 924 1306 903 q 1181 810 1208 881 q 1134 656 1153 740 q 1101 481 1115 572 q 1075 306 1088 390 q 1153 304 1104 296 q 1254 344 1203 313 q 1349 433 1306 375 q 1407 583 1392 492 z "},"Q":{"ha":2113,"x_min":-7,"x_max":2369,"o":"m 2347 -60 q 2358 -60 2354 -56 q 2363 -72 2361 -64 q 2356 -167 2369 -118 q 2305 -257 2343 -217 q 2202 -322 2267 -297 q 2040 -342 2138 -346 q 1922 -317 1982 -340 q 1802 -260 1863 -293 q 1682 -187 1742 -226 q 1564 -117 1622 -149 q 1406 -160 1489 -149 q 1229 -158 1322 -172 q 1003 -74 1089 -139 q 876 80 917 -10 q 835 274 836 169 q 864 481 835 379 q 947 670 893 582 q 1071 815 1001 758 q 903 826 993 822 q 726 821 814 829 q 556 790 638 813 q 410 724 474 768 q 310 612 347 681 q 274 444 274 543 q 267 428 274 432 q 249 424 260 424 q 226 426 239 424 q 200 431 213 428 q 74 494 122 446 q 9 607 25 543 q 12 742 -7 671 q 90 874 31 814 q 252 977 150 935 q 503 1025 354 1019 q 676 1019 586 1028 q 856 994 765 1010 q 1035 960 947 979 q 1204 928 1124 942 q 1419 1022 1306 994 q 1653 1031 1533 1049 q 1725 1004 1694 1025 q 1772 954 1756 983 q 1788 892 1788 925 q 1771 828 1788 858 q 1719 773 1754 797 q 1629 740 1685 749 q 1557 736 1593 733 q 1492 744 1521 739 q 1425 760 1457 750 q 1312 632 1361 703 q 1228 486 1263 561 q 1177 335 1194 411 q 1160 191 1160 258 q 1178 69 1160 124 q 1235 -19 1196 14 q 1290 19 1257 7 q 1362 33 1322 32 q 1448 28 1401 35 q 1546 7 1494 21 q 1651 129 1607 54 q 1719 294 1701 213 q 1733 441 1738 375 q 1703 552 1728 507 q 1643 608 1679 597 q 1625 628 1628 614 q 1629 658 1622 643 q 1666 712 1639 689 q 1730 749 1693 735 q 1808 765 1767 763 q 1890 757 1850 768 q 1965 722 1931 746 q 2019 656 1999 697 q 2040 565 2038 618 q 2028 451 2042 513 q 1988 324 2015 390 q 1917 192 1960 257 q 1821 68 1875 128 q 1700 -39 1767 8 q 1888 -111 1794 -89 q 2067 -133 1982 -133 q 2224 -113 2151 -133 q 2347 -60 2296 -93 m 1583 906 q 1536 874 1554 888 q 1515 857 1525 865 q 1574 841 1543 847 q 1628 843 1606 835 q 1655 867 1650 851 q 1653 897 1660 883 q 1627 915 1646 910 q 1583 906 1608 919 m 1290 -51 q 1354 -62 1321 -62 q 1424 -54 1388 -62 q 1353 -42 1388 -43 q 1288 -50 1319 -40 q 1290 -51 1289 -50 z "},"R":{"ha":1750,"x_min":-3,"x_max":1810,"o":"m 1493 54 q 1549 -32 1518 6 q 1616 -92 1579 -69 q 1697 -119 1653 -115 q 1793 -101 1740 -122 q 1805 -102 1801 -99 q 1809 -112 1808 -106 q 1808 -128 1810 -119 q 1803 -146 1807 -137 q 1696 -269 1765 -225 q 1549 -325 1626 -314 q 1399 -315 1472 -336 q 1279 -243 1326 -294 q 1231 -165 1246 -208 q 1207 -76 1215 -122 q 1192 14 1199 -31 q 1172 96 1186 58 q 1133 160 1158 133 q 1058 197 1107 188 q 1027 78 1047 142 q 973 -47 1007 15 q 890 -167 939 -110 q 772 -265 840 -224 q 612 -329 703 -307 q 404 -346 521 -351 q 220 -300 297 -340 q 93 -201 143 -260 q 20 -74 43 -143 q 1 58 -3 -4 q 49 203 7 144 q 153 294 92 263 q 283 330 214 326 q 409 308 351 333 q 503 226 467 282 q 536 83 540 171 q 531 54 536 68 q 510 43 525 40 q 412 33 454 51 q 344 -16 369 15 q 310 -87 318 -47 q 312 -165 301 -128 q 353 -228 322 -201 q 435 -262 383 -256 q 558 -233 511 -272 q 635 -119 606 -193 q 681 55 664 -44 q 715 263 699 154 q 753 482 732 372 q 813 687 775 592 q 912 854 851 782 q 1067 958 972 926 q 1035 960 1046 960 q 1018 960 1024 960 l 1029 960 q 851 930 922 960 q 738 856 781 900 q 679 763 696 813 q 665 674 663 714 q 684 613 667 635 q 729 603 701 590 q 673 510 714 544 q 580 464 632 476 q 474 462 528 451 q 378 504 419 472 q 316 590 336 536 q 311 719 296 644 q 384 851 326 793 q 528 949 442 908 q 721 1012 614 989 q 942 1040 828 1035 q 1168 1031 1056 1044 q 1378 986 1281 1018 q 1567 883 1496 947 q 1667 744 1638 819 q 1688 590 1696 669 q 1643 442 1681 511 q 1542 319 1606 372 q 1396 243 1478 265 q 1349 231 1368 236 q 1312 224 1329 226 q 1277 222 1294 222 q 1238 221 1260 221 q 1268 222 1242 221 q 1331 211 1294 224 q 1411 163 1368 199 q 1493 54 1454 128 m 1250 924 q 1181 813 1208 881 q 1134 663 1153 744 q 1102 493 1115 582 q 1076 319 1089 404 q 1143 321 1101 314 q 1228 356 1185 328 q 1310 438 1272 383 q 1369 582 1349 492 q 1383 683 1382 638 q 1379 763 1385 728 q 1361 822 1374 797 q 1335 865 1349 847 q 1250 924 1300 907 z "},"S":{"ha":1433,"x_min":-6,"x_max":1404,"o":"m 968 711 q 1038 639 994 676 q 1133 558 1082 601 q 1234 466 1183 515 q 1323 360 1285 417 q 1383 238 1361 303 q 1396 99 1404 174 q 1349 -49 1386 17 q 1256 -164 1313 -115 q 1130 -244 1200 -212 q 985 -293 1060 -276 q 835 -310 911 -310 q 694 -297 760 -311 q 528 -233 597 -276 q 416 -133 458 -189 q 357 -12 374 -76 q 349 113 340 51 q 397 240 360 186 q 484 326 433 294 q 592 367 535 358 q 701 357 650 375 q 759 328 736 346 q 797 292 782 311 q 820 252 813 272 q 831 214 828 232 q 824 190 833 200 q 800 183 814 181 q 681 167 728 193 q 613 98 635 142 q 593 0 592 54 q 618 -101 594 -54 q 687 -181 642 -149 q 799 -212 732 -212 q 950 -177 888 -212 q 1046 -83 1013 -142 q 1083 49 1079 -25 q 1057 196 1086 122 q 1005 290 1038 243 q 935 382 972 336 q 858 473 897 428 q 790 565 819 518 q 742 658 760 611 q 729 754 725 706 q 535 816 615 799 q 401 832 456 833 q 317 813 347 831 q 273 771 286 796 q 261 717 260 746 q 272 664 263 688 q 268 644 276 653 q 249 631 260 635 q 130 611 182 603 q 46 651 78 619 q 4 728 14 682 q 12 822 -6 775 q 76 908 29 868 q 203 967 122 947 q 291 976 244 976 q 384 969 338 976 q 476 951 431 963 q 563 926 521 940 q 753 847 660 894 q 759 860 756 854 q 767 874 763 867 q 841 960 796 929 q 935 999 886 990 q 1033 999 985 1008 q 1119 966 1082 990 q 1175 904 1156 942 q 1185 819 1194 867 q 1153 753 1176 779 q 1099 715 1131 728 q 1033 702 1068 703 q 968 711 999 701 m 943 785 q 991 788 967 781 q 1035 813 1015 794 q 1060 852 1054 831 q 1064 892 1067 874 q 1049 922 1061 910 q 1021 935 1038 933 q 978 920 996 936 q 952 881 961 904 q 941 831 943 857 q 943 785 939 804 z "},"T":{"ha":1258,"x_min":-3,"x_max":1728,"o":"m 1679 1022 q 1723 917 1718 967 q 1702 834 1728 868 q 1622 783 1676 800 q 1490 778 1568 767 q 1456 782 1468 781 q 1431 786 1443 783 q 1403 793 1419 789 q 1354 806 1386 797 q 1285 820 1318 814 q 1221 833 1253 826 q 1178 704 1194 779 q 1151 549 1163 629 q 1129 390 1139 469 q 1104 249 1119 311 q 975 -64 1064 71 q 885 -176 938 -122 q 762 -269 832 -229 q 603 -331 692 -310 q 404 -344 514 -353 q 220 -297 297 -337 q 93 -199 143 -257 q 20 -72 43 -140 q 1 60 -3 -3 q 49 205 7 146 q 153 296 92 264 q 283 331 214 328 q 409 309 351 335 q 503 228 467 283 q 536 85 540 172 q 531 55 536 69 q 510 44 525 40 q 396 46 442 61 q 325 -3 350 31 q 295 -80 300 -36 q 305 -163 290 -124 q 352 -231 319 -203 q 435 -262 385 -260 q 558 -231 510 -265 q 635 -133 606 -196 q 682 13 665 -71 q 712 191 699 97 q 739 383 725 285 q 778 571 753 481 q 843 739 803 661 q 949 869 883 817 q 718 863 811 879 q 567 817 625 847 q 480 744 508 786 q 442 661 451 703 q 436 581 432 619 q 449 518 440 543 q 444 495 453 506 q 424 481 435 485 q 307 459 363 457 q 207 482 251 461 q 131 540 163 503 q 85 622 100 576 q 76 721 71 668 q 110 828 81 774 q 243 962 157 915 q 439 1025 329 1008 q 676 1034 549 1042 q 935 1008 804 1026 q 1195 964 1067 989 q 1435 919 1324 939 q 1481 914 1453 917 q 1540 919 1510 911 q 1599 953 1569 928 q 1651 1029 1629 978 q 1660 1035 1654 1033 q 1679 1022 1668 1038 z "},"U":{"ha":1679,"x_min":-8,"x_max":1797,"o":"m 1760 971 q 1786 964 1778 969 q 1796 951 1794 958 q 1793 936 1797 943 q 1782 925 1789 929 q 1726 868 1749 908 q 1690 785 1704 828 q 1670 710 1676 743 q 1664 676 1664 676 l 1535 47 q 1524 -15 1528 15 q 1523 -72 1521 -46 q 1534 -119 1525 -99 q 1561 -149 1543 -139 q 1570 -165 1572 -156 q 1563 -185 1568 -174 q 1520 -222 1553 -204 q 1444 -249 1488 -239 q 1353 -257 1401 -258 q 1267 -237 1306 -256 q 1204 -179 1228 -218 q 1185 -74 1181 -140 q 1183 -69 1185 -71 q 1179 -71 1182 -68 q 996 -212 1083 -168 q 835 -262 908 -257 q 706 -238 763 -267 q 613 -161 649 -210 q 566 -49 578 -112 q 572 79 554 14 l 708 728 q 720 822 719 775 q 708 901 721 869 q 669 940 696 932 q 597 919 642 949 q 481 826 533 879 q 391 715 428 774 q 334 595 354 656 q 316 480 314 535 q 344 380 318 425 q 422 307 369 335 q 424 304 422 307 q 367 211 408 247 q 275 162 326 175 q 170 158 224 149 q 75 199 117 167 q 13 286 33 231 q 6 422 -8 342 q 58 576 19 499 q 153 723 96 653 q 285 854 211 793 q 447 958 360 915 q 629 1024 533 1001 q 825 1040 725 1046 q 920 1017 882 1038 q 981 964 958 996 q 1014 892 1004 932 q 1026 812 1024 853 q 1024 732 1028 771 q 1017 663 1021 693 q 1016 659 1017 660 q 1015 657 1015 658 l 1015 656 l 913 154 q 903 28 897 75 q 929 -37 908 -18 q 983 -51 950 -56 q 1056 -23 1017 -46 q 1139 37 1096 0 q 1224 118 1182 74 l 1224 119 q 1253 265 1238 188 q 1283 413 1269 343 q 1308 535 1297 482 q 1324 608 1319 588 q 1392 784 1346 714 q 1496 896 1439 854 q 1613 954 1553 938 q 1721 971 1672 971 l 1753 971 l 1760 971 l 1760 971 z "},"V":{"ha":1619,"x_min":-8,"x_max":1663,"o":"m 1308 935 q 1326 984 1303 961 q 1387 1021 1349 1007 q 1472 1035 1425 1035 q 1559 1015 1518 1035 q 1628 950 1600 994 q 1660 831 1657 906 q 1629 626 1663 742 q 1537 390 1596 511 q 1397 149 1478 268 q 1225 -65 1317 31 q 1034 -222 1133 -160 q 839 -292 935 -283 q 708 -270 765 -299 q 616 -193 651 -242 q 569 -81 581 -144 q 574 47 557 -18 l 707 696 q 719 791 718 744 q 707 869 719 838 q 667 908 694 900 q 594 889 639 917 q 478 795 531 849 q 390 683 426 742 q 333 563 353 624 q 316 448 314 503 q 344 348 318 393 q 422 275 369 303 q 424 271 424 274 q 367 178 408 214 q 276 129 326 143 q 171 124 225 115 q 76 165 117 133 q 13 253 35 197 q 6 389 -8 308 q 56 542 18 465 q 151 689 94 618 q 283 821 208 760 q 444 925 357 882 q 626 991 531 968 q 821 1010 721 1014 q 917 986 879 1007 q 980 934 956 965 q 1016 863 1004 903 q 1031 783 1028 824 q 1033 703 1035 742 q 1026 633 1031 664 q 1026 629 1026 631 q 1025 626 1025 628 l 1025 625 l 914 124 q 905 -3 899 44 q 932 -70 911 -50 q 985 -85 953 -90 q 1056 -53 1018 -79 q 1160 56 1103 -19 q 1272 229 1218 132 q 1368 435 1326 326 q 1426 640 1410 543 q 1422 814 1442 738 q 1335 924 1403 890 q 1317 926 1324 929 q 1308 935 1311 924 z "},"W":{"ha":2249,"x_min":-8,"x_max":2292,"o":"m 2289 829 q 2258 625 2292 740 q 2166 388 2225 510 q 2026 147 2107 265 q 1854 -67 1946 28 q 1663 -224 1763 -162 q 1468 -293 1564 -285 q 1369 -283 1414 -297 q 1290 -242 1324 -269 q 1232 -176 1256 -214 q 1199 -93 1208 -137 q 1020 -232 1111 -178 q 839 -293 929 -286 q 708 -272 765 -300 q 616 -195 651 -244 q 569 -83 581 -146 q 574 46 557 -19 l 707 694 q 719 790 718 743 q 707 867 719 836 q 667 907 694 899 q 594 886 639 915 q 478 792 531 846 q 390 680 426 739 q 333 560 353 621 q 316 445 314 500 q 344 345 318 390 q 422 272 369 300 q 424 269 424 272 q 367 176 408 213 q 276 127 326 140 q 171 122 225 114 q 76 163 117 131 q 13 250 35 194 q 6 386 -8 306 q 56 540 18 463 q 151 688 94 617 q 283 819 208 758 q 444 924 357 881 q 626 990 531 967 q 821 1008 721 1013 q 951 962 907 1004 q 1011 861 994 919 q 1024 740 1028 803 q 1015 631 1021 676 q 1015 627 1015 628 q 1014 625 1014 626 l 1014 624 l 914 122 q 905 -4 899 43 q 932 -72 911 -51 q 985 -87 953 -92 q 1056 -56 1018 -82 q 1135 22 1092 -29 q 1222 143 1178 74 l 1336 694 q 1340 717 1339 706 q 1344 739 1342 728 q 1346 813 1351 779 q 1325 866 1342 840 q 1268 899 1308 892 q 1259 907 1261 900 q 1261 921 1257 914 q 1291 955 1271 935 q 1344 990 1311 975 q 1422 1007 1376 1004 q 1531 992 1468 1010 q 1612 925 1585 969 q 1648 828 1639 881 q 1653 723 1657 776 q 1644 631 1650 669 q 1644 627 1644 628 q 1643 625 1643 626 l 1643 624 l 1543 122 q 1534 -4 1528 43 q 1561 -72 1540 -51 q 1615 -87 1582 -92 q 1685 -56 1647 -82 q 1790 53 1732 -22 q 1901 226 1847 129 q 1997 432 1956 324 q 2055 638 2039 540 q 2051 813 2071 736 q 1964 922 2032 889 q 1947 925 1953 928 q 1938 933 1940 922 q 1955 983 1932 960 q 2016 1019 1978 1006 q 2101 1033 2054 1033 q 2188 1013 2147 1033 q 2258 949 2229 993 q 2289 829 2286 904 z "},"X":{"ha":1881,"x_min":-3,"x_max":1903,"o":"m 1626 1033 q 1756 1013 1703 1033 q 1842 958 1810 992 q 1889 884 1875 925 q 1901 803 1903 843 q 1885 727 1900 763 q 1843 671 1869 692 q 1806 651 1821 653 q 1788 676 1790 649 q 1754 763 1783 729 q 1676 797 1725 796 q 1563 759 1628 797 q 1425 632 1499 721 q 1376 569 1407 610 q 1315 488 1346 528 q 1240 386 1279 440 q 1388 143 1315 257 q 1533 -56 1461 29 q 1675 -192 1606 -142 q 1814 -243 1744 -243 q 1824 -250 1822 -243 q 1824 -265 1826 -257 q 1815 -281 1821 -274 q 1800 -292 1808 -289 q 1625 -326 1707 -324 q 1470 -307 1543 -328 q 1334 -246 1397 -286 q 1216 -153 1271 -206 q 1114 -41 1161 -101 q 1028 82 1067 19 q 899 -74 972 3 q 743 -210 825 -150 q 575 -306 661 -269 q 408 -342 489 -342 q 255 -312 315 -342 q 163 -237 194 -282 q 126 -140 131 -193 q 140 -42 122 -87 q 197 36 158 4 q 289 72 235 68 q 297 69 296 72 q 300 61 299 65 l 300 49 q 316 -73 293 -22 q 382 -147 339 -124 q 485 -160 425 -169 q 614 -99 544 -150 q 758 50 683 -47 q 904 299 832 147 q 883 339 892 324 q 870 365 875 354 q 860 385 865 376 q 850 406 856 394 q 781 534 817 468 q 706 661 744 600 q 627 775 668 722 q 542 863 586 828 q 449 913 497 899 q 349 911 401 926 q 277 867 304 897 q 241 803 250 838 q 240 733 232 768 q 272 672 247 697 q 337 636 296 646 q 435 642 378 626 q 454 631 450 646 q 461 601 458 617 q 452 449 478 511 q 377 356 426 388 q 265 322 328 324 q 146 347 203 319 q 48 430 89 374 q 1 572 7 486 q 10 708 -3 635 q 66 847 24 782 q 184 963 108 913 q 381 1029 260 1013 q 635 1021 524 1049 q 832 934 746 993 q 984 792 918 875 q 1106 619 1050 710 q 1249 826 1168 735 q 1324 902 1283 865 q 1413 968 1365 939 q 1515 1015 1461 997 q 1626 1033 1568 1033 z "},"Y":{"ha":1738,"x_min":-8,"x_max":1703,"o":"m 1703 1039 l 1585 463 q 1504 135 1557 288 q 1369 -126 1451 -17 q 1172 -295 1288 -236 q 904 -343 1057 -354 q 769 -315 826 -337 q 673 -258 711 -292 q 615 -183 635 -225 q 589 -100 594 -142 q 592 -18 583 -58 q 619 53 600 22 q 650 89 629 69 q 701 123 671 108 q 768 143 731 138 q 851 138 806 149 q 931 100 906 124 q 965 53 956 76 q 972 -6 976 25 q 967 -7 971 -6 q 951 -11 963 -8 q 857 -68 883 -31 q 835 -144 831 -106 q 868 -212 839 -182 q 939 -243 897 -242 q 1050 -194 1003 -247 q 1133 -56 1097 -142 q 1194 135 1168 29 q 1239 346 1219 242 q 1234 346 1238 346 q 1229 344 1231 346 q 1083 235 1160 271 q 932 195 1006 200 q 794 212 858 190 q 686 275 731 233 q 623 373 642 317 q 621 494 604 429 l 669 713 q 692 810 681 761 q 703 899 703 860 q 686 958 703 938 q 624 971 669 979 q 492 922 550 957 q 393 841 433 888 q 333 741 353 794 q 315 636 313 688 q 343 540 317 585 q 422 467 369 494 q 424 464 422 467 q 367 372 408 407 q 275 322 326 336 q 170 317 224 308 q 75 359 117 326 q 13 447 33 392 q 6 583 -8 503 q 60 726 19 660 q 159 848 100 793 q 292 944 218 903 q 449 1010 367 986 q 618 1038 532 1033 q 786 1026 704 1043 q 914 964 871 1008 q 974 865 957 919 q 988 751 990 810 q 978 647 985 693 q 977 644 978 644 q 976 642 976 643 l 976 640 l 963 569 q 964 400 939 450 q 1040 353 989 350 q 1154 406 1090 357 q 1272 535 1218 456 q 1274 536 1274 535 q 1297 644 1285 585 q 1319 763 1308 703 q 1363 874 1332 822 q 1440 961 1394 925 q 1541 1018 1485 997 q 1660 1039 1597 1039 l 1703 1039 z "},"Z":{"ha":1301,"x_min":-8,"x_max":1442,"o":"m 1424 -86 q 1442 -110 1442 -83 q 1420 -176 1442 -137 q 1356 -256 1399 -215 q 1247 -318 1314 -296 q 1072 -349 1160 -349 q 899 -331 985 -349 q 731 -282 814 -312 q 569 -221 647 -251 q 418 -166 490 -190 q 281 -135 346 -142 q 160 -144 217 -128 q 60 -214 104 -161 q 15 -185 28 -206 q 4 -151 7 -172 q 19 17 -8 -58 q 99 156 46 93 q 225 269 151 218 q 381 363 299 319 q 549 444 464 406 q 708 519 633 482 q 844 595 783 557 q 936 676 904 633 q 762 684 849 674 q 592 706 675 694 q 434 723 510 717 q 294 720 358 729 q 181 682 231 711 q 100 592 131 653 l 99 592 q 53 605 69 592 q 31 638 38 618 q 26 682 25 658 q 33 726 28 706 q 85 848 51 797 q 162 933 119 899 q 253 990 204 968 q 350 1022 301 1011 q 593 1036 463 1049 q 764 1024 664 1038 q 974 1001 864 1011 q 1193 996 1083 992 q 1394 1038 1303 1000 q 1407 1038 1400 1039 q 1419 1001 1419 1031 q 1385 832 1424 911 q 1280 683 1347 753 q 1124 555 1213 614 q 941 445 1036 496 q 751 351 846 394 q 574 272 656 308 q 433 203 493 235 q 350 144 374 171 q 462 144 408 150 q 556 129 515 139 q 644 103 603 118 q 749 72 690 93 q 872 27 807 51 q 1006 -22 936 3 q 1147 -63 1076 -46 q 1288 -88 1218 -81 q 1424 -86 1358 -96 z "},".":{"ha":268,"x_min":0,"x_max":233,"o":"m 233 115 q 199 33 233 67 q 117 -1 165 -1 q 34 33 68 -1 q 0 115 0 67 q 9 161 0 140 q 34 198 18 182 q 72 223 50 214 q 117 232 93 232 q 162 223 140 232 q 199 198 183 214 q 224 161 215 182 q 233 115 233 140 z "},",":{"ha":271,"x_min":0,"x_max":236,"o":"m 115 231 q 198 197 164 232 q 235 114 232 163 q 225 54 236 85 q 189 -3 214 24 q 126 -49 164 -29 q 36 -76 88 -68 q 22 -73 28 -79 q 15 -58 15 -67 q 26 -42 15 -46 q 54 -26 38 -36 q 89 0 71 -17 q 28 40 53 10 q 1 110 3 69 q 33 193 0 158 q 115 231 67 228 z "},";":{"ha":271,"x_min":0,"x_max":236,"o":"m 235 578 q 201 495 235 529 q 118 461 167 461 q 35 495 69 461 q 1 578 1 529 q 35 660 1 626 q 118 694 69 694 q 201 660 167 694 q 235 578 235 626 m 115 231 q 33 193 67 228 q 1 110 0 158 q 28 40 3 69 q 89 0 53 10 q 54 -26 71 -17 q 26 -42 38 -36 q 15 -58 15 -46 q 22 -73 15 -67 q 36 -76 28 -79 q 126 -49 88 -68 q 189 -3 164 -29 q 225 54 214 24 q 235 114 236 85 q 198 197 232 163 q 115 231 164 232 z "},":":{"ha":268,"x_min":0,"x_max":233,"o":"m 233 578 q 199 495 233 529 q 117 461 165 461 q 34 495 68 461 q 0 578 0 529 q 34 660 0 626 q 117 694 68 694 q 199 660 165 694 q 233 578 233 626 m 233 114 q 224 68 233 89 q 199 31 215 47 q 162 6 183 15 q 117 -3 140 -3 q 72 6 93 -3 q 34 31 50 15 q 9 68 18 47 q 0 114 0 89 q 34 197 0 163 q 117 231 68 231 q 199 197 165 231 q 233 114 233 163 z "},"(":{"ha":406,"x_min":0,"x_max":371,"o":"m 371 971 l 371 885 q 303 814 332 868 q 253 686 274 760 q 224 528 233 613 q 214 369 214 444 q 226 203 214 286 q 259 49 238 119 q 309 -72 281 -21 q 371 -143 338 -124 l 371 -232 q 272 -202 319 -231 q 183 -126 225 -174 q 108 -16 142 -78 q 51 115 75 46 q 13 256 26 185 q 0 393 0 328 q 29 594 0 492 q 108 778 58 696 q 226 915 158 861 q 371 971 293 968 z "},")":{"ha":406,"x_min":0,"x_max":371,"o":"m 0 971 q 144 915 76 968 q 263 778 213 861 q 342 594 313 696 q 371 393 371 492 q 358 256 371 328 q 320 115 344 185 q 263 -16 296 46 q 188 -126 229 -78 q 99 -202 146 -174 q 0 -232 51 -231 l 0 -143 q 62 -72 33 -124 q 112 49 90 -21 q 145 203 133 119 q 157 369 157 286 q 147 528 157 444 q 117 686 136 613 q 68 814 97 760 q 0 885 39 868 l 0 971 l 0 971 z "},"[":{"ha":417,"x_min":0,"x_max":382,"o":"m 382 874 l 238 874 l 238 -133 l 382 -133 l 382 -224 l 238 -224 l 238 -224 l 0 -224 l 0 963 l 238 963 l 382 963 l 382 874 l 382 874 z "},"]":{"ha":417,"x_min":0,"x_max":382,"o":"m 0 874 l 0 963 l 146 963 l 382 963 l 382 -224 l 146 -224 l 146 -224 l 0 -224 l 0 -133 l 146 -133 l 146 874 l 0 874 l 0 874 z "},"{":{"ha":535,"x_min":0,"x_max":458,"o":"m 399 882 q 342 856 364 882 q 325 797 319 831 l 342 571 q 315 471 342 518 q 242 396 288 424 q 227 381 232 390 q 222 361 222 371 q 228 342 222 351 q 243 328 233 333 q 315 262 289 304 q 342 168 342 219 l 326 -47 q 328 -83 324 -67 q 345 -114 333 -100 q 373 -135 357 -128 q 408 -143 389 -143 l 458 -143 l 458 -232 l 313 -232 q 223 -213 264 -232 q 152 -162 182 -194 q 107 -87 122 -129 q 96 4 92 -44 l 104 218 q 92 265 104 243 q 58 301 81 288 l 18 328 q 0 360 0 339 q 17 393 0 382 l 47 414 q 104 519 104 451 l 96 736 q 107 826 92 783 q 152 901 122 869 q 223 953 182 933 q 313 972 264 972 l 458 972 l 458 882 l 399 882 z "},"}":{"ha":535,"x_min":0,"x_max":458,"o":"m 0 882 l 0 972 l 146 972 q 234 953 193 972 q 305 901 275 933 q 350 826 335 869 q 361 736 365 783 l 353 519 q 368 460 353 488 q 410 414 383 432 l 440 393 q 458 360 458 382 q 440 328 458 339 l 399 301 q 365 265 378 288 q 353 218 353 243 l 363 4 q 351 -87 367 -44 q 306 -162 336 -129 q 235 -213 276 -194 q 146 -232 193 -232 l 0 -232 l 0 -143 l 49 -143 q 113 -114 88 -143 q 132 -47 138 -85 l 117 168 q 143 262 117 219 q 214 328 169 304 q 235 361 235 338 q 217 396 236 385 q 143 471 169 424 q 117 571 117 518 l 132 797 q 115 856 138 831 q 58 882 93 882 l 0 882 z "},"=":{"ha":938,"x_min":0,"x_max":903,"o":"m 0 294 l 903 294 l 903 57 l 0 57 l 0 294 l 0 294 m 0 638 l 903 638 l 903 400 l 0 400 l 0 638 l 0 638 z "},"-":{"ha":938,"x_min":0,"x_max":903,"o":"m 0 465 l 903 465 l 903 229 l 0 229 l 0 465 l 0 465 z "},"@":{"ha":1682,"x_min":0,"x_max":1653,"o":"m 1247 -83 q 1249 -85 1249 -83 q 1294 -123 1279 -97 q 1308 -177 1308 -149 q 1294 -231 1308 -206 q 1249 -268 1279 -256 q 1058 -327 1158 -307 q 847 -347 957 -347 q 618 -322 728 -347 q 415 -252 508 -297 q 244 -144 321 -207 q 113 -3 168 -81 q 29 163 58 74 q 0 347 0 251 q 65 617 0 490 q 244 838 131 744 q 513 987 358 932 q 847 1042 668 1042 q 1133 1003 999 1042 q 1378 896 1268 965 q 1513 775 1456 846 q 1604 622 1571 704 q 1645 453 1638 540 q 1633 284 1653 365 q 1565 134 1614 203 q 1436 19 1517 65 q 1261 -34 1349 -31 q 1100 -12 1174 -37 q 976 58 1026 13 q 911 150 925 103 q 872 103 896 128 q 816 58 847 79 q 749 21 785 36 q 674 1 713 6 q 515 18 578 -8 q 416 94 451 44 q 372 209 381 143 q 376 344 363 275 q 422 479 389 413 q 504 596 454 546 q 618 674 554 646 q 756 693 682 701 q 826 676 794 689 q 881 647 857 664 q 923 610 906 629 q 953 574 940 590 q 951 603 954 590 q 942 621 949 615 q 935 645 928 629 q 964 667 942 661 q 1102 692 1035 685 q 1215 693 1169 699 q 1274 664 1254 689 q 1288 604 1294 639 q 1266 503 1276 554 q 1246 407 1256 451 q 1228 327 1236 363 q 1218 274 1221 292 q 1211 205 1213 240 q 1215 139 1210 169 q 1235 89 1221 108 q 1278 69 1250 69 q 1335 86 1306 69 q 1412 161 1381 111 q 1458 276 1443 211 q 1469 416 1472 342 q 1440 564 1465 490 q 1368 706 1415 638 q 1248 826 1321 774 q 1076 909 1175 878 q 847 940 976 940 q 708 925 779 940 q 570 878 638 910 q 442 797 503 846 q 337 683 382 749 q 265 533 292 617 q 239 347 239 450 q 267 165 239 247 q 342 17 294 82 q 451 -95 389 -47 q 581 -174 514 -143 q 717 -221 649 -206 q 847 -236 786 -236 q 957 -228 903 -236 q 1063 -201 1011 -219 q 1160 -153 1114 -182 q 1247 -83 1207 -125 m 929 454 q 910 481 926 471 q 875 494 893 492 q 807 476 839 500 q 751 414 775 451 q 711 331 726 376 q 692 250 696 286 q 706 174 686 200 q 757 150 725 149 q 826 180 789 151 q 893 267 864 208 q 895 284 894 275 q 899 303 896 293 q 904 329 900 314 q 910 359 907 342 q 918 397 914 376 l 929 454 z "},"+":{"ha":731,"x_min":0,"x_max":696,"o":"m 475 -1 l 239 -1 l 239 228 l 0 228 l 0 465 l 239 465 l 239 694 l 475 694 l 475 465 l 696 465 l 696 228 l 475 228 l 475 -1 l 475 -1 z "},"#":{"ha":1221,"x_min":0,"x_max":1186,"o":"m 1186 743 q 1169 660 1186 699 q 1124 592 1153 621 q 1056 546 1094 563 q 972 529 1017 529 l 956 529 l 918 410 l 1076 410 l 1076 407 q 1058 316 1076 358 q 1008 242 1040 274 q 933 191 976 210 q 842 172 890 172 l 836 153 q 790 70 821 106 q 719 14 760 35 q 631 -12 678 -7 q 539 -1 585 -17 q 556 50 540 3 q 594 172 571 97 l 438 172 l 433 158 q 388 76 418 111 q 317 19 357 40 q 230 -6 276 -1 q 136 4 183 -11 q 152 54 138 8 q 190 172 167 100 l 0 172 q 19 265 0 222 q 69 340 38 308 q 144 391 101 372 q 236 410 188 410 l 265 410 q 284 469 275 439 q 303 529 293 499 q 227 544 263 529 q 165 586 192 560 q 124 648 139 613 q 108 724 108 683 l 108 765 l 379 765 q 385 785 382 776 q 392 804 389 794 q 437 887 406 851 q 508 943 468 922 q 595 969 549 964 q 689 958 642 974 l 628 765 l 783 765 q 789 783 786 775 q 794 800 792 792 q 840 881 808 846 q 911 938 871 917 q 998 963 951 958 q 1092 953 1044 968 l 1032 765 l 1186 765 l 1186 743 m 669 410 q 688 469 679 439 q 707 529 697 499 l 551 529 l 514 410 l 669 410 z "},"":{"ha":701,"x_min":0,"x_max":667,"o":"m 174 14 l 7 181 l 168 343 l 0 513 l 168 679 l 336 511 l 499 674 l 667 506 l 504 343 l 660 188 l 492 19 l 336 175 l 174 14 l 174 14 z "},"*":{"ha":343,"x_min":0,"x_max":308,"o":"m 308 894 l 206 792 l 301 696 l 250 644 l 190 704 l 190 618 l 118 618 l 118 704 l 58 644 l 6 696 l 103 792 l 0 894 l 51 946 l 118 881 l 118 972 l 190 972 l 190 881 l 257 946 l 308 894 l 308 894 z "},"$":{"ha":974,"x_min":-4,"x_max":943,"o":"m 642 629 q 743 543 689 589 q 842 440 797 497 q 915 314 888 383 q 938 160 943 244 q 891 -1 931 69 q 789 -120 851 -71 q 647 -198 726 -169 q 482 -231 568 -226 l 468 -310 q 452 -337 465 -326 q 424 -347 439 -347 q 388 -331 401 -347 q 379 -294 375 -315 l 390 -229 q 381 -228 385 -229 q 371 -228 376 -228 q 200 -182 272 -215 q 82 -101 128 -149 q 16 1 36 -54 q 1 111 -4 57 q 41 228 7 178 q 124 309 75 278 q 229 352 172 340 q 339 351 286 364 q 399 329 374 343 q 440 299 424 315 q 464 265 456 282 q 476 232 472 247 l 501 369 q 440 449 472 410 q 382 530 408 489 q 339 613 356 571 q 324 701 322 656 l 325 704 q 327 729 325 710 q 338 774 329 749 q 364 829 346 800 q 413 883 382 858 q 492 923 444 907 q 607 939 539 939 l 619 1004 q 635 1031 622 1021 q 664 1042 647 1042 q 698 1026 685 1042 q 708 989 711 1010 l 697 933 q 758 912 731 926 q 807 877 786 897 q 838 833 828 857 q 847 782 849 808 q 846 779 846 781 q 825 732 843 750 q 784 708 807 714 q 736 708 761 701 q 694 739 711 715 q 699 757 686 750 q 726 785 717 767 q 735 822 736 803 q 722 858 733 842 q 686 881 710 874 l 642 629 m 474 219 q 443 204 465 204 q 332 183 375 207 q 267 121 289 158 q 246 38 246 83 q 264 -47 246 -7 q 318 -116 282 -87 q 406 -149 354 -144 l 474 219 m 596 879 q 555 853 568 872 q 539 809 542 833 q 543 758 536 785 q 564 707 550 731 l 596 879 m 500 -137 q 586 -78 557 -119 q 624 16 615 -36 q 622 123 632 68 q 592 224 613 178 q 583 242 588 233 q 574 260 578 250 l 500 -137 z "},"!":{"ha":533,"x_min":0,"x_max":500,"o":"m 228 -65 q 195 -145 228 -112 q 114 -178 163 -178 q 33 -145 67 -178 q 0 -65 0 -112 q 33 15 0 -18 q 114 49 67 49 q 195 15 163 49 q 228 -65 228 -18 m 496 917 q 483 872 494 913 q 452 766 471 831 q 410 622 433 701 q 363 460 386 542 q 317 304 339 379 q 281 175 296 229 q 241 116 271 139 q 174 93 211 93 q 125 103 147 93 q 88 132 103 114 q 65 173 72 150 q 63 221 58 196 q 88 378 72 283 q 121 576 104 474 q 153 775 138 679 q 179 936 168 871 q 220 1010 186 981 q 299 1040 254 1039 q 331 1042 318 1042 q 353 1042 343 1042 q 374 1040 364 1042 q 397 1038 383 1039 q 435 1025 415 1035 q 470 999 456 1015 q 492 962 485 983 q 496 917 500 940 m 228 -65 q 195 -145 228 -112 q 114 -178 163 -178 q 33 -145 67 -178 q 0 -65 0 -112 q 33 15 0 -18 q 114 49 67 49 q 195 15 163 49 q 228 -65 228 -18 m 496 917 q 483 872 494 913 q 452 766 471 831 q 410 622 433 701 q 363 460 386 542 q 317 304 339 379 q 281 175 296 229 q 241 116 271 139 q 174 93 211 93 q 125 103 147 93 q 88 132 103 114 q 65 173 72 150 q 63 221 58 196 q 88 378 72 283 q 121 576 104 474 q 153 775 138 679 q 179 936 168 871 q 220 1010 186 981 q 299 1040 254 1039 q 331 1042 318 1042 q 353 1042 343 1042 q 374 1040 364 1042 q 397 1038 383 1039 q 435 1025 415 1035 q 470 999 456 1015 q 492 962 485 983 q 496 917 500 940 z "},"?":{"ha":986,"x_min":-7,"x_max":951,"o":"m 386 460 q 315 400 358 419 q 223 383 271 381 q 129 407 175 385 q 51 472 83 429 q 6 576 18 514 q 11 718 -7 638 q 83 872 32 808 q 205 976 135 936 q 357 1031 275 1015 q 522 1040 439 1046 q 681 1007 604 1033 q 818 936 758 981 q 914 829 878 892 q 950 689 950 767 q 913 519 951 586 q 815 408 874 453 q 689 335 757 364 q 562 276 621 306 q 464 212 503 247 q 425 121 425 176 q 400 82 425 96 q 349 68 375 68 l 347 68 q 288 99 307 68 q 268 169 268 129 q 292 278 268 235 q 353 356 317 322 q 434 420 390 390 q 517 486 478 450 q 584 569 556 522 q 618 686 613 617 q 584 853 628 790 q 463 917 540 917 q 368 894 407 917 q 306 838 329 872 q 276 763 283 804 q 277 685 269 722 q 307 619 285 647 q 365 581 329 590 q 397 562 386 575 q 409 532 407 549 q 405 497 411 515 q 386 460 399 478 m 476 -96 q 442 -178 476 -144 q 360 -212 408 -212 q 314 -203 335 -212 q 277 -178 293 -194 q 252 -141 261 -162 q 243 -96 243 -119 q 277 -13 243 -47 q 360 21 311 21 q 405 12 383 21 q 442 -13 426 3 q 467 -50 458 -29 q 476 -96 476 -71 z "},"%":{"ha":885,"x_min":-4,"x_max":853,"o":"m 100 -1 l 474 972 l 728 972 l 354 -1 l 100 -1 m 703 435 q 768 409 739 428 q 817 363 797 390 q 845 301 838 335 q 847 231 853 267 q 822 165 840 194 q 775 115 803 135 q 713 88 747 96 q 643 85 679 79 q 578 110 607 90 q 528 157 549 129 q 500 219 508 185 q 499 290 492 254 q 524 356 504 326 q 571 405 543 385 q 633 433 599 425 q 703 435 667 440 m 653 188 q 699 210 676 183 q 728 281 721 238 q 723 358 735 325 q 688 394 711 390 q 642 372 664 399 q 613 300 619 344 q 617 224 606 257 q 653 188 629 192 m 207 975 q 272 951 243 969 q 322 904 301 932 q 349 842 342 876 q 351 771 357 807 q 326 706 344 735 q 279 656 307 676 q 217 628 251 636 q 147 626 183 619 q 82 651 111 632 q 33 699 53 671 q 4 760 13 726 q 3 831 -4 794 q 28 896 8 867 q 75 945 47 925 q 137 973 103 965 q 207 975 171 981 m 157 728 q 203 751 181 724 q 232 822 225 779 q 227 899 239 865 q 192 935 215 932 q 146 912 168 939 q 117 842 124 885 q 122 765 110 799 q 157 728 133 732 z "},"":{"ha":586,"x_min":0,"x_max":510,"o":"m 115 972 q 198 939 164 974 q 235 856 232 904 q 225 796 236 826 q 189 740 214 765 q 126 694 164 714 q 36 665 88 674 q 22 669 28 664 q 15 683 15 675 q 26 701 15 697 q 54 715 38 706 q 89 742 71 725 q 28 782 53 751 q 1 853 3 813 q 33 936 0 901 q 115 972 67 971 m 389 972 q 472 939 438 974 q 508 856 506 904 q 499 796 510 826 q 463 740 488 765 q 399 694 438 714 q 310 665 361 674 q 295 669 301 664 q 289 683 289 675 q 300 701 289 697 q 328 715 311 706 q 363 742 344 725 q 301 782 326 751 q 275 853 276 813 q 307 936 274 901 q 389 972 340 971 z "},"":{"ha":544,"x_min":0,"x_max":510,"o":"m 115 972 q 198 939 164 974 q 235 856 232 904 q 225 796 236 826 q 189 740 214 765 q 126 694 164 714 q 36 665 88 674 q 22 669 28 664 q 15 683 15 675 q 26 701 15 697 q 54 715 38 706 q 89 742 71 725 q 28 782 53 751 q 1 853 3 813 q 33 936 0 901 q 115 972 67 971 m 389 972 q 472 939 438 974 q 508 856 506 904 q 499 796 510 826 q 463 740 488 765 q 399 694 438 714 q 310 665 361 674 q 295 669 301 664 q 289 683 289 675 q 300 701 289 697 q 328 715 311 706 q 363 742 344 725 q 301 782 326 751 q 275 853 276 813 q 307 936 274 901 q 389 972 340 971 z "},"\"":{"ha":375,"x_min":0,"x_max":340,"o":"m 86 972 l 190 972 l 104 839 l 0 839 l 86 972 m 236 972 l 340 972 l 254 839 l 150 839 l 236 972 z "},"'":{"ha":225,"x_min":0,"x_max":190,"o":"m 86 972 l 190 972 l 104 839 l 0 839 l 86 972 l 86 972 z "},"<":{"ha":475,"x_min":0,"x_max":440,"o":"m 440 164 l 440 -8 l 3 342 l 0 343 l 0 343 l 0 343 l 1 344 l 440 694 l 440 522 l 217 343 l 440 164 l 440 164 z "},">":{"ha":475,"x_min":0,"x_max":440,"o":"m 0 164 l 224 343 l 0 522 l 0 694 l 439 344 l 440 343 l 440 343 l 440 343 l 438 342 l 0 -8 l 0 164 l 0 164 z "},"^":{"ha":478,"x_min":0,"x_max":443,"o":"m 113 694 l 0 694 l 221 971 l 221 972 l 221 972 l 222 972 l 222 971 l 443 694 l 331 694 l 221 831 l 113 694 l 113 694 z "},"_":{"ha":1472,"x_min":0,"x_max":1438,"o":"m 0 117 l 1438 117 l 1438 -1 l 0 -1 l 0 117 l 0 117 z "},"/":{"ha":739,"x_min":0,"x_max":940,"o":"m 0 -128 l 843 1036 l 940 967 l 96 -197 l 0 -128 l 0 -128 z "},"\\":{"ha":975,"x_min":0,"x_max":940,"o":"m 940 -128 l 843 -197 l 0 967 l 96 1036 l 940 -128 l 940 -128 z "},"~":{"ha":979,"x_min":-1,"x_max":903,"o":"m 236 442 q 353 433 297 442 q 462 413 410 424 q 563 392 514 401 q 660 382 611 382 q 757 394 708 382 q 857 438 806 406 q 872 442 865 442 q 894 433 885 442 q 901 411 903 424 q 886 329 899 367 q 846 265 874 292 q 774 222 818 238 q 665 206 731 206 q 494 222 576 206 q 336 249 413 238 q 189 257 260 261 q 53 211 118 253 q 35 206 42 206 q 9 216 19 206 q 1 242 -1 226 q 24 321 7 285 q 71 384 42 357 q 142 426 100 411 q 236 442 183 442 z "},"D":{"ha":1735,"x_min":-12,"x_max":1710,"o":"m 869 1039 q 1096 1030 985 1046 q 1306 976 1207 1014 q 1484 878 1404 938 q 1617 738 1564 818 q 1690 556 1669 657 q 1689 335 1710 456 q 1610 84 1664 189 q 1483 -89 1556 -21 q 1327 -192 1411 -157 q 1158 -232 1243 -226 q 991 -218 1072 -237 q 843 -158 910 -199 q 826 -150 835 -154 q 811 -140 818 -146 l 769 -117 q 597 -273 692 -219 q 409 -340 503 -326 q 231 -331 315 -354 q 88 -258 146 -308 q 9 -131 31 -207 q 19 36 -12 -56 q 83 135 40 97 q 181 192 126 174 q 295 211 235 211 q 413 197 356 211 q 445 187 429 192 q 476 175 461 182 q 558 142 515 161 q 572 240 565 186 q 588 348 579 293 q 605 455 596 403 q 624 551 614 507 q 674 703 642 631 q 753 831 706 776 q 867 915 801 885 q 1018 942 933 946 l 1019 943 q 846 944 946 956 q 688 891 758 933 q 568 785 617 849 q 497 641 519 722 q 481 472 474 560 q 462 449 482 454 q 424 449 442 443 q 288 531 331 478 q 248 647 246 585 q 294 776 250 710 q 420 898 339 842 q 615 992 501 954 q 869 1039 728 1031 m 308 -174 q 425 -144 381 -174 q 493 -79 469 -115 q 533 15 521 -37 q 359 76 432 69 q 241 63 286 83 q 177 2 196 42 q 167 -76 158 -37 q 212 -144 176 -115 q 308 -174 247 -174 m 1322 375 q 1307 757 1369 617 q 1063 933 1244 897 q 1019 861 1038 908 q 988 753 1001 814 q 967 623 975 692 q 952 489 958 554 q 940 366 946 424 q 928 271 935 308 q 894 137 917 204 q 831 -1 871 69 q 966 -58 893 -50 q 1108 -24 1039 -65 q 1233 115 1176 18 q 1322 375 1290 213 z "},"E":{"ha":1043,"x_min":0,"x_max":1014,"o":"m 676 193 q 867 236 790 250 q 978 167 943 222 q 1006 31 1014 111 q 944 -127 999 -50 q 784 -260 889 -204 q 522 -324 679 -317 q 314 -301 410 -328 q 149 -224 218 -275 q 40 -103 79 -174 q 0 49 0 -33 q 24 189 0 121 q 96 313 47 257 q 217 412 144 369 q 390 475 290 454 q 235 566 290 503 q 186 718 179 629 q 219 819 190 772 q 297 899 249 865 q 408 952 344 933 q 546 971 472 971 q 701 944 636 971 q 805 879 767 918 q 852 797 843 840 q 839 718 861 753 q 776 676 819 686 q 683 678 732 667 q 663 686 672 681 q 658 700 654 692 q 681 775 676 739 q 676 840 685 811 q 642 885 667 868 q 579 906 618 903 q 504 890 538 908 q 448 840 471 871 q 413 770 425 808 q 401 694 401 732 q 435 588 401 635 q 526 525 468 540 q 554 524 542 525 q 578 519 567 522 q 647 496 618 513 q 664 477 660 489 q 665 453 668 465 q 651 434 661 442 q 625 429 640 426 q 613 431 622 431 q 508 413 558 433 q 421 351 457 392 q 353 245 379 306 q 317 121 326 185 q 315 -5 307 57 q 347 -117 322 -67 q 416 -202 372 -168 q 522 -242 460 -236 q 634 -226 588 -249 q 710 -166 681 -204 q 751 -79 739 -128 q 758 17 763 -31 q 732 103 753 64 q 675 161 711 142 q 665 177 664 168 q 676 193 665 186 z "},"G":{"ha":1846,"x_min":-7,"x_max":1811,"o":"m 1779 568 q 1802 558 1793 568 q 1811 535 1811 549 q 1793 506 1811 514 q 1770 479 1778 499 q 1760 437 1763 460 q 1758 390 1757 414 q 1761 347 1758 365 q 1763 81 1778 207 q 1690 -139 1747 -44 q 1531 -289 1633 -233 q 1269 -344 1428 -344 q 1101 -316 1175 -344 q 978 -242 1028 -287 q 906 -141 929 -197 q 886 -29 882 -85 q 923 98 892 50 q 999 169 954 146 q 1092 193 1043 193 q 1181 176 1140 193 q 1244 126 1221 158 q 1261 51 1268 93 q 1249 28 1257 36 q 1178 -69 1194 -19 q 1172 -160 1163 -118 q 1212 -230 1182 -201 q 1281 -265 1242 -258 q 1362 -250 1319 -271 q 1438 -171 1404 -229 q 1492 -12 1472 -112 q 1507 239 1513 88 q 1295 220 1390 211 q 1131 267 1200 229 q 1019 365 1061 304 q 968 499 978 425 q 983 655 958 572 q 1071 818 1007 738 q 903 828 993 825 q 726 824 814 832 q 556 793 638 815 q 410 727 474 771 q 310 615 347 683 q 274 447 274 546 q 267 431 274 435 q 249 426 260 426 q 226 428 239 425 q 200 433 213 431 q 74 497 122 449 q 9 609 25 544 q 12 744 -7 674 q 90 876 31 815 q 252 979 150 938 q 503 1028 354 1021 q 676 1021 586 1031 q 856 996 765 1011 q 1035 962 947 981 q 1204 929 1124 943 q 1419 1023 1306 996 q 1653 1032 1533 1050 q 1725 1007 1694 1028 q 1772 957 1756 986 q 1788 894 1788 928 q 1771 831 1788 861 q 1719 776 1754 800 q 1629 743 1685 751 q 1557 738 1593 736 q 1492 746 1521 740 q 1425 763 1457 751 q 1348 677 1381 725 q 1299 580 1315 629 q 1284 485 1282 531 q 1311 407 1286 439 q 1387 362 1336 375 q 1518 364 1438 349 l 1519 364 q 1522 392 1521 376 q 1522 424 1522 407 q 1535 481 1524 454 q 1567 526 1547 507 q 1614 557 1588 546 q 1671 568 1640 568 l 1779 568 m 1583 907 q 1536 876 1557 893 q 1515 860 1525 868 q 1574 844 1543 850 q 1628 844 1606 838 q 1655 869 1650 853 q 1653 898 1660 885 q 1627 916 1646 911 q 1583 907 1608 921 z "},"L":{"ha":1057,"x_min":-6,"x_max":1701,"o":"m 1678 -54 q 1635 -251 1701 -178 q 1421 -340 1569 -325 q 1197 -331 1304 -351 q 997 -276 1090 -311 q 826 -201 903 -242 q 692 -131 749 -160 q 625 -207 671 -165 q 515 -282 579 -249 q 372 -331 451 -315 q 207 -329 293 -347 q 63 -260 113 -310 q 4 -151 14 -210 q 21 -31 -6 -92 q 105 70 47 29 q 248 124 163 111 q 442 101 333 136 q 468 263 454 178 q 501 431 482 347 q 546 595 519 515 q 609 742 572 675 q 697 862 646 810 q 817 943 747 914 l 768 943 l 779 943 q 603 916 672 943 q 495 849 535 889 q 442 765 456 810 q 433 684 428 719 q 458 629 439 649 q 506 622 478 610 q 450 529 490 564 q 359 483 410 494 q 255 481 308 471 q 160 523 201 490 q 97 609 118 556 q 88 739 75 663 q 142 856 99 807 q 248 938 185 904 q 388 991 311 971 q 542 1022 464 1011 q 951 1033 725 1047 l 1069 1033 q 1101 1028 1090 1033 q 1113 1015 1111 1022 q 1111 999 1115 1007 q 1099 988 1107 992 q 985 884 1026 957 q 920 713 944 811 q 881 499 896 615 q 844 265 865 383 q 832 206 840 240 q 813 134 824 172 q 790 58 803 96 q 765 -14 778 19 q 887 -64 817 -40 q 1037 -103 957 -87 q 1202 -124 1117 -118 q 1369 -124 1288 -131 q 1522 -97 1450 -118 q 1649 -36 1594 -75 q 1669 -31 1664 -25 q 1678 -54 1675 -36 m 211 -243 q 272 -240 240 -251 q 331 -200 303 -229 q 383 -126 360 -171 q 419 -24 406 -81 q 305 -4 356 0 q 219 -30 254 -8 q 164 -83 183 -51 q 143 -147 144 -115 q 158 -206 142 -179 q 211 -243 175 -233 z "},"e":{"ha":707,"x_min":-4,"x_max":825,"o":"m 786 322 q 808 316 799 322 q 821 300 817 310 q 824 279 825 290 q 814 258 822 268 q 719 163 772 210 q 603 81 667 117 q 467 22 540 44 q 308 -1 393 -1 q 151 27 214 -1 q 53 102 89 56 q 6 209 17 149 q 7 333 -4 269 q 48 458 18 396 q 124 569 78 519 q 231 652 171 619 q 361 692 290 685 q 515 681 453 700 q 616 630 578 663 q 671 558 654 597 q 686 483 688 518 q 660 397 683 436 q 603 328 638 357 q 528 280 569 299 q 451 255 488 261 q 385 256 414 249 q 346 285 357 263 q 342 265 343 274 q 339 247 340 256 q 365 153 332 186 q 458 123 399 119 q 595 171 517 126 q 757 310 674 215 q 786 322 767 322 m 528 535 q 474 520 500 539 q 425 470 447 501 q 385 399 403 439 q 356 322 367 360 q 488 349 439 318 q 554 420 536 381 q 565 495 572 460 q 528 535 557 531 z "},"&":{"ha":1465,"x_min":0,"x_max":1436,"o":"m 1236 438 q 1319 426 1281 439 q 1385 387 1358 413 q 1424 324 1413 361 q 1425 240 1436 286 q 1399 231 1418 217 q 1295 281 1356 263 q 1172 303 1235 299 q 1047 299 1108 307 q 943 271 986 290 q 998 192 982 242 q 1006 85 1014 143 q 965 -31 997 28 q 872 -140 932 -90 q 725 -222 813 -189 q 522 -260 638 -256 q 314 -237 410 -264 q 149 -160 218 -211 q 40 -40 79 -110 q 0 113 0 31 q 24 253 0 185 q 96 377 47 321 q 217 476 144 433 q 390 539 290 518 q 235 630 290 567 q 186 782 179 693 q 219 883 190 836 q 297 963 249 929 q 408 1016 344 997 q 546 1035 472 1035 q 701 1008 636 1035 q 805 943 767 982 q 852 860 843 904 q 839 782 861 817 q 776 740 819 750 q 683 742 732 731 q 663 750 672 744 q 658 764 654 756 q 681 839 676 803 q 676 903 685 875 q 642 949 667 932 q 579 969 618 967 q 504 953 538 972 q 448 903 471 935 q 413 834 425 872 q 401 758 401 796 q 435 651 401 699 q 526 589 468 604 q 554 588 542 589 q 578 583 567 586 q 647 560 618 576 q 664 541 660 553 q 665 517 668 529 q 651 498 661 506 q 625 493 640 490 q 613 494 622 494 q 508 476 558 497 q 421 415 457 456 q 353 309 379 369 q 317 185 326 249 q 315 59 307 121 q 347 -53 322 -3 q 416 -138 372 -104 q 522 -178 460 -172 q 627 -166 582 -185 q 701 -113 672 -147 q 745 -35 731 -79 q 760 53 760 8 q 750 103 760 79 q 723 144 740 126 q 682 172 706 161 q 632 182 658 182 q 585 188 608 182 q 547 207 563 193 q 527 243 532 221 q 535 299 522 265 q 542 311 538 307 q 551 307 547 315 q 600 276 564 278 q 688 289 636 275 q 805 326 740 303 q 941 374 869 350 q 1088 417 1013 399 q 1236 438 1164 435 z "},"":{"ha":1025,"x_min":-4,"x_max":1149,"o":"m 408 738 l 536 972 l 696 972 l 569 738 l 408 738 m 1106 324 q 1138 307 1126 324 q 1139 271 1149 290 q 1078 166 1113 215 q 1002 80 1044 117 q 908 22 960 43 q 793 0 856 0 q 731 8 767 0 q 660 35 696 17 q 594 81 625 53 q 544 150 563 110 q 505 103 529 128 q 449 58 481 79 q 382 21 418 36 q 307 1 346 6 q 148 18 211 -8 q 49 94 85 44 q 5 209 14 143 q 9 344 -4 275 q 55 479 22 413 q 138 596 88 546 q 251 674 188 646 q 389 693 315 701 q 459 676 428 689 q 515 647 490 664 q 556 610 539 629 q 585 574 572 590 q 585 603 588 590 q 574 621 582 615 q 568 645 561 629 q 597 667 575 661 q 735 692 668 685 q 849 693 803 699 q 908 664 888 689 q 921 604 928 639 q 899 503 910 554 q 878 407 888 451 q 862 327 869 363 q 851 274 854 292 q 850 219 844 240 q 867 184 856 197 q 892 165 879 171 q 917 158 906 158 q 999 197 960 156 q 1074 304 1039 238 q 1106 324 1086 324 m 563 454 q 543 481 560 471 q 508 494 526 492 q 440 476 472 500 q 384 414 408 451 q 344 331 360 376 q 324 250 328 286 q 338 174 318 200 q 390 150 358 149 q 460 180 422 151 q 526 267 497 208 q 528 284 526 275 q 532 303 529 293 q 538 329 533 314 q 544 359 540 342 q 551 397 547 376 l 563 454 z "},"":{"ha":1025,"x_min":-4,"x_max":1149,"o":"m 536 738 l 408 972 l 569 972 l 696 738 l 536 738 m 1106 324 q 1074 304 1086 324 q 999 197 1039 238 q 917 158 960 156 q 892 165 906 158 q 867 184 879 171 q 850 219 856 197 q 851 274 844 240 q 862 327 854 292 q 878 407 869 363 q 899 503 888 451 q 921 604 910 554 q 908 664 928 639 q 849 693 888 689 q 735 692 803 699 q 597 667 668 685 q 568 645 575 661 q 574 621 561 629 q 585 603 582 615 q 585 574 588 590 q 556 610 572 590 q 515 647 539 629 q 459 676 490 664 q 389 693 428 689 q 251 674 315 701 q 138 596 188 646 q 55 479 88 546 q 9 344 22 413 q 5 209 -4 275 q 49 94 14 143 q 148 18 85 44 q 307 1 211 -8 q 382 21 346 6 q 449 58 418 36 q 505 103 481 79 q 544 150 529 128 q 594 81 563 110 q 660 35 625 53 q 731 8 696 17 q 793 0 767 0 q 908 22 856 0 q 1002 80 960 43 q 1078 166 1044 117 q 1139 271 1113 215 q 1138 307 1149 290 q 1106 324 1126 324 m 551 397 q 544 359 547 376 q 538 329 540 342 q 532 303 533 314 q 528 284 529 293 q 526 267 526 275 q 460 180 497 208 q 390 150 422 151 q 338 174 358 149 q 324 250 318 200 q 344 331 328 286 q 384 414 360 376 q 440 476 408 451 q 508 494 472 500 q 543 481 526 492 q 563 454 560 471 l 551 397 z "},"":{"ha":1025,"x_min":-4,"x_max":1149,"o":"m 553 738 l 507 822 l 461 738 l 300 738 l 426 971 l 426 972 l 428 972 l 586 972 l 589 972 l 588 971 l 714 738 l 553 738 m 1106 324 q 1138 307 1126 324 q 1139 271 1149 290 q 1078 166 1113 215 q 1002 80 1044 117 q 908 22 960 43 q 793 0 856 0 q 731 8 767 0 q 660 35 696 17 q 594 81 625 53 q 544 150 563 110 q 505 103 529 128 q 449 58 481 79 q 382 21 418 36 q 307 1 346 6 q 148 18 211 -8 q 49 94 85 44 q 5 209 14 143 q 9 344 -4 275 q 55 479 22 413 q 138 596 88 546 q 251 674 188 646 q 389 693 315 701 q 459 676 428 689 q 515 647 490 664 q 556 610 539 629 q 585 574 572 590 q 585 603 588 590 q 574 621 582 615 q 568 645 561 629 q 597 667 575 661 q 735 692 668 685 q 849 693 803 699 q 908 664 888 689 q 921 604 928 639 q 899 503 910 554 q 878 407 888 451 q 862 327 869 363 q 851 274 854 292 q 850 219 844 240 q 867 184 856 197 q 892 165 879 171 q 917 158 906 158 q 999 197 960 156 q 1074 304 1039 238 q 1106 324 1086 324 m 563 454 q 543 481 560 471 q 508 494 526 492 q 440 476 472 500 q 384 414 408 451 q 344 331 360 376 q 324 250 328 286 q 338 174 318 200 q 390 150 358 149 q 460 180 422 151 q 526 267 497 208 q 528 284 526 275 q 532 303 529 293 q 538 329 533 314 q 544 359 540 342 q 551 397 547 376 l 563 454 z "},"":{"ha":1025,"x_min":-4,"x_max":1149,"o":"m 411 969 q 493 936 460 969 q 526 854 526 903 q 493 774 526 807 q 411 740 460 740 q 331 774 364 740 q 297 854 297 807 q 331 936 297 903 q 411 969 364 969 m 664 969 q 744 936 711 969 q 778 854 778 903 q 744 774 778 807 q 664 740 711 740 q 583 774 615 740 q 550 854 550 807 q 583 936 550 903 q 664 969 615 969 m 1106 324 q 1138 307 1126 324 q 1139 271 1149 290 q 1078 166 1113 215 q 1002 80 1044 117 q 908 22 960 43 q 793 0 856 0 q 731 8 767 0 q 660 35 696 17 q 594 81 625 53 q 544 150 563 110 q 505 103 529 128 q 449 58 481 79 q 382 21 418 36 q 307 1 346 6 q 148 18 211 -8 q 49 94 85 44 q 5 209 14 143 q 9 344 -4 275 q 55 479 22 413 q 138 596 88 546 q 251 674 188 646 q 389 693 315 701 q 459 676 428 689 q 515 647 490 664 q 556 610 539 629 q 585 574 572 590 q 585 603 588 590 q 574 621 582 615 q 568 645 561 629 q 597 667 575 661 q 735 692 668 685 q 849 693 803 699 q 908 664 888 689 q 921 604 928 639 q 899 503 910 554 q 878 407 888 451 q 862 327 869 363 q 851 274 854 292 q 850 219 844 240 q 867 184 856 197 q 892 165 879 171 q 917 158 906 158 q 999 197 960 156 q 1074 304 1039 238 q 1106 324 1086 324 m 563 454 q 543 481 560 471 q 508 494 526 492 q 440 476 472 500 q 384 414 408 451 q 344 331 360 376 q 324 250 328 286 q 338 174 318 200 q 390 150 358 149 q 460 180 422 151 q 526 267 497 208 q 528 284 526 275 q 532 303 529 293 q 538 329 533 314 q 544 359 540 342 q 551 397 547 376 l 563 454 z "},"":{"ha":1025,"x_min":-4,"x_max":1149,"o":"m 539 969 q 619 936 586 969 q 653 854 653 903 q 619 774 653 807 q 539 740 586 740 q 457 774 490 740 q 424 854 424 807 q 457 936 424 903 q 539 969 490 969 m 539 781 q 591 802 569 781 q 613 854 613 824 q 591 908 613 886 q 539 929 569 929 q 486 908 507 929 q 465 854 465 886 q 486 802 465 824 q 539 781 507 781 m 1106 324 q 1138 307 1126 324 q 1139 271 1149 290 q 1078 166 1113 215 q 1002 80 1044 117 q 908 22 960 43 q 793 0 856 0 q 731 8 767 0 q 660 35 696 17 q 594 81 625 53 q 544 150 563 110 q 505 103 529 128 q 449 58 481 79 q 382 21 418 36 q 307 1 346 6 q 148 18 211 -8 q 49 94 85 44 q 5 209 14 143 q 9 344 -4 275 q 55 479 22 413 q 138 596 88 546 q 251 674 188 646 q 389 693 315 701 q 459 676 428 689 q 515 647 490 664 q 556 610 539 629 q 585 574 572 590 q 585 603 588 590 q 574 621 582 615 q 568 645 561 629 q 597 667 575 661 q 735 692 668 685 q 849 693 803 699 q 908 664 888 689 q 921 604 928 639 q 899 503 910 554 q 878 407 888 451 q 862 327 869 363 q 851 274 854 292 q 850 219 844 240 q 867 184 856 197 q 892 165 879 171 q 917 158 906 158 q 999 197 960 156 q 1074 304 1039 238 q 1106 324 1086 324 m 563 454 q 543 481 560 471 q 508 494 526 492 q 440 476 472 500 q 384 414 408 451 q 344 331 360 376 q 324 250 328 286 q 338 174 318 200 q 390 150 358 149 q 460 180 422 151 q 526 267 497 208 q 528 284 526 275 q 532 303 529 293 q 538 329 533 314 q 544 359 540 342 q 551 397 547 376 l 563 454 z "},"":{"ha":1025,"x_min":-4,"x_max":1149,"o":"m 431 914 q 517 903 476 914 q 594 884 557 892 q 667 880 631 876 q 742 911 703 883 q 750 914 744 914 q 764 896 764 914 q 736 808 761 843 q 646 774 711 774 q 560 783 601 774 q 480 799 518 793 q 406 803 442 806 q 338 776 371 801 q 329 774 335 774 q 317 780 322 774 q 313 796 311 786 q 348 880 318 846 q 431 914 378 914 m 1106 324 q 1074 304 1086 324 q 999 197 1039 238 q 917 158 960 156 q 892 165 906 158 q 867 184 879 171 q 850 219 856 197 q 851 274 844 240 q 862 327 854 292 q 878 407 869 363 q 899 503 888 451 q 921 604 910 554 q 908 664 928 639 q 849 693 888 689 q 735 692 803 699 q 597 667 668 685 q 568 645 575 661 q 574 621 561 629 q 585 603 582 615 q 585 574 588 590 q 556 610 572 590 q 515 647 539 629 q 459 676 490 664 q 389 693 428 689 q 251 674 315 701 q 138 596 188 646 q 55 479 88 546 q 9 344 22 413 q 5 209 -4 275 q 49 94 14 143 q 148 18 85 44 q 307 1 211 -8 q 382 21 346 6 q 449 58 418 36 q 505 103 481 79 q 544 150 529 128 q 594 81 563 110 q 660 35 625 53 q 731 8 696 17 q 793 0 767 0 q 908 22 856 0 q 1002 80 960 43 q 1078 166 1044 117 q 1139 271 1113 215 q 1138 307 1149 290 q 1106 324 1126 324 m 551 397 q 544 359 547 376 q 538 329 540 342 q 532 303 533 314 q 528 284 529 293 q 526 267 526 275 q 460 180 497 208 q 390 150 422 151 q 338 174 358 149 q 324 250 318 200 q 344 331 328 286 q 384 414 360 376 q 440 476 408 451 q 508 494 472 500 q 543 481 526 492 q 563 454 560 471 l 551 397 z "},"":{"ha":1665,"x_min":-4,"x_max":1783,"o":"m 1744 322 q 1766 316 1757 322 q 1779 300 1775 310 q 1782 279 1783 290 q 1772 258 1781 268 q 1678 163 1731 210 q 1562 81 1625 117 q 1425 22 1499 44 q 1267 -1 1351 -1 q 1115 24 1176 -1 q 1018 94 1054 50 q 917 25 974 50 q 793 0 861 0 q 731 8 767 0 q 660 35 696 17 q 594 81 625 53 q 544 150 563 110 q 505 103 529 128 q 449 58 481 79 q 382 21 418 36 q 307 1 346 6 q 148 18 211 -8 q 49 94 85 44 q 5 209 14 143 q 9 344 -4 275 q 55 479 22 413 q 138 596 88 546 q 251 674 188 646 q 389 693 315 701 q 459 676 428 689 q 515 647 490 664 q 556 610 539 629 q 585 574 572 590 q 585 603 588 590 q 574 621 582 615 q 568 645 561 629 q 597 667 575 661 q 735 692 668 685 q 849 693 803 699 q 908 664 888 689 q 921 604 928 639 q 899 503 910 554 q 878 407 888 451 q 862 327 869 363 q 851 274 854 292 q 850 219 844 240 q 867 184 856 197 q 892 165 879 171 q 917 158 906 158 q 945 162 932 157 q 974 175 958 167 q 960 281 957 225 q 980 392 963 336 q 1030 499 997 447 q 1106 592 1063 551 q 1203 660 1150 633 q 1319 692 1257 686 q 1474 681 1411 700 q 1574 630 1536 663 q 1629 558 1613 597 q 1644 483 1646 518 q 1619 397 1642 436 q 1562 328 1596 357 q 1487 280 1528 299 q 1409 255 1446 261 q 1344 256 1372 249 q 1304 285 1315 263 q 1300 265 1301 274 q 1297 247 1299 256 q 1324 153 1290 186 q 1416 123 1357 119 q 1553 171 1475 126 q 1715 310 1632 215 q 1744 322 1725 322 m 1486 535 q 1432 520 1458 539 q 1383 470 1406 501 q 1343 399 1361 439 q 1314 322 1325 360 q 1446 349 1397 318 q 1513 420 1494 381 q 1523 495 1531 460 q 1486 535 1515 531 m 563 454 q 543 481 560 471 q 508 494 526 492 q 440 476 472 500 q 384 414 408 451 q 344 331 360 376 q 324 250 328 286 q 338 174 318 200 q 390 150 358 149 q 460 180 422 151 q 526 267 497 208 q 528 284 526 275 q 532 303 529 293 q 538 329 533 314 q 544 359 540 342 q 551 397 547 376 l 563 454 z "},"":{"ha":707,"x_min":-4,"x_max":825,"o":"m 346 738 l 474 972 l 635 972 l 507 738 l 346 738 m 786 322 q 808 316 799 322 q 821 300 817 310 q 824 279 825 290 q 814 258 822 268 q 719 163 772 210 q 603 81 667 117 q 467 22 540 44 q 308 -1 393 -1 q 151 27 214 -1 q 53 102 89 56 q 6 209 17 149 q 7 333 -4 269 q 48 458 18 396 q 124 569 78 519 q 231 652 171 619 q 361 692 290 685 q 515 681 453 700 q 616 630 578 663 q 671 558 654 597 q 686 483 688 518 q 660 397 683 436 q 603 328 638 357 q 528 280 569 299 q 451 255 488 261 q 385 256 414 249 q 346 285 357 263 q 342 265 343 274 q 339 247 340 256 q 365 153 332 186 q 458 123 399 119 q 595 171 517 126 q 757 310 674 215 q 786 322 767 322 m 528 535 q 565 495 557 531 q 554 420 572 460 q 488 349 536 381 q 356 322 439 318 q 385 399 367 360 q 425 470 403 439 q 474 520 447 501 q 528 535 500 539 m 346 738 l 474 972 l 635 972 l 507 738 l 346 738 m 786 322 q 808 316 799 322 q 821 300 817 310 q 824 279 825 290 q 814 258 822 268 q 719 163 772 210 q 603 81 667 117 q 467 22 540 44 q 308 -1 393 -1 q 151 27 214 -1 q 53 102 89 56 q 6 209 17 149 q 7 333 -4 269 q 48 458 18 396 q 124 569 78 519 q 231 652 171 619 q 361 692 290 685 q 515 681 453 700 q 616 630 578 663 q 671 558 654 597 q 686 483 688 518 q 660 397 683 436 q 603 328 638 357 q 528 280 569 299 q 451 255 488 261 q 385 256 414 249 q 346 285 357 263 q 342 265 343 274 q 339 247 340 256 q 365 153 332 186 q 458 123 399 119 q 595 171 517 126 q 757 310 674 215 q 786 322 767 322 m 528 535 q 565 495 557 531 q 554 420 572 460 q 488 349 536 381 q 356 322 439 318 q 385 399 367 360 q 425 470 403 439 q 474 520 447 501 q 528 535 500 539 z "},"":{"ha":707,"x_min":-4,"x_max":825,"o":"m 351 738 l 224 972 l 385 972 l 513 738 l 351 738 m 786 322 q 757 310 767 322 q 595 171 674 215 q 458 123 517 126 q 365 153 399 119 q 339 247 332 186 q 342 265 340 256 q 346 285 343 274 q 385 256 357 263 q 451 255 414 249 q 528 280 488 261 q 603 328 569 299 q 660 397 638 357 q 686 483 683 436 q 671 558 688 518 q 616 630 654 597 q 515 681 578 663 q 361 692 453 700 q 231 652 290 685 q 124 569 171 619 q 48 458 78 519 q 7 333 18 396 q 6 209 -4 269 q 53 102 17 149 q 151 27 89 56 q 308 -1 214 -1 q 467 22 393 -1 q 603 81 540 44 q 719 163 667 117 q 814 258 772 210 q 824 279 822 268 q 821 300 825 290 q 808 316 817 310 q 786 322 799 322 m 528 535 q 565 495 557 531 q 554 420 572 460 q 488 349 536 381 q 356 322 439 318 q 385 399 367 360 q 425 470 403 439 q 474 520 447 501 q 528 535 500 539 z "},"":{"ha":707,"x_min":-4,"x_max":825,"o":"m 458 738 l 413 822 l 367 738 l 206 738 l 332 971 l 332 972 l 333 972 l 492 972 l 494 972 l 493 971 l 619 738 l 458 738 m 786 322 q 808 316 799 322 q 821 300 817 310 q 824 279 825 290 q 814 258 822 268 q 719 163 772 210 q 603 81 667 117 q 467 22 540 44 q 308 -1 393 -1 q 151 27 214 -1 q 53 102 89 56 q 6 209 17 149 q 7 333 -4 269 q 48 458 18 396 q 124 569 78 519 q 231 652 171 619 q 361 692 290 685 q 515 681 453 700 q 616 630 578 663 q 671 558 654 597 q 686 483 688 518 q 660 397 683 436 q 603 328 638 357 q 528 280 569 299 q 451 255 488 261 q 385 256 414 249 q 346 285 357 263 q 342 265 343 274 q 339 247 340 256 q 365 153 332 186 q 458 123 399 119 q 595 171 517 126 q 757 310 674 215 q 786 322 767 322 m 528 535 q 474 520 500 539 q 425 470 447 501 q 385 399 403 439 q 356 322 367 360 q 488 349 439 318 q 554 420 536 381 q 565 495 572 460 q 528 535 557 531 z "},"":{"ha":707,"x_min":-4,"x_max":825,"o":"m 286 969 q 368 936 335 969 q 401 854 401 903 q 368 774 401 807 q 286 740 335 740 q 206 774 239 740 q 172 854 172 807 q 206 936 172 903 q 286 969 239 969 m 539 969 q 619 936 586 969 q 653 854 653 903 q 619 774 653 807 q 539 740 586 740 q 458 774 490 740 q 425 854 425 807 q 458 936 425 903 q 539 969 490 969 m 786 322 q 808 316 799 322 q 821 300 817 310 q 824 279 825 290 q 814 258 822 268 q 719 163 772 210 q 603 81 667 117 q 467 22 540 44 q 308 -1 393 -1 q 151 27 214 -1 q 53 102 89 56 q 6 209 17 149 q 7 333 -4 269 q 48 458 18 396 q 124 569 78 519 q 231 652 171 619 q 361 692 290 685 q 515 681 453 700 q 616 630 578 663 q 671 558 654 597 q 686 483 688 518 q 660 397 683 436 q 603 328 638 357 q 528 280 569 299 q 451 255 488 261 q 385 256 414 249 q 346 285 357 263 q 342 265 343 274 q 339 247 340 256 q 365 153 332 186 q 458 123 399 119 q 595 171 517 126 q 757 310 674 215 q 786 322 767 322 m 528 535 q 474 520 500 539 q 425 470 447 501 q 385 399 403 439 q 356 322 367 360 q 488 349 439 318 q 554 420 536 381 q 565 495 572 460 q 528 535 557 531 z "},"":{"ha":503,"x_min":-11,"x_max":625,"o":"m 186 738 l 58 972 l 219 972 l 347 738 l 186 738 m 583 324 q 550 304 563 324 q 476 195 515 238 q 392 156 436 153 q 367 162 381 156 q 343 181 354 168 q 326 217 332 194 q 326 271 321 239 q 338 324 331 289 q 354 405 344 360 q 374 501 364 450 q 396 603 385 553 q 383 663 403 638 q 324 692 363 688 q 210 690 278 697 q 74 665 143 683 q 43 644 50 660 q 50 619 36 628 q 62 587 63 611 q 56 533 61 563 q 39 451 47 493 q 24 376 31 410 q 7 300 15 338 q 14 159 -11 217 q 83 65 39 101 q 180 13 128 29 q 268 -3 232 -3 q 383 19 331 -3 q 478 78 435 40 q 556 165 521 115 q 617 271 590 214 q 614 307 625 290 q 583 324 603 324 z "},"":{"ha":503,"x_min":-11,"x_max":625,"o":"m 128 738 l 256 972 l 417 972 l 289 738 l 128 738 m 583 324 q 614 307 603 324 q 617 271 625 290 q 556 165 590 214 q 478 78 521 115 q 383 19 435 40 q 268 -3 331 -3 q 180 13 232 -3 q 83 65 128 29 q 14 159 39 101 q 7 300 -11 217 q 24 376 15 338 q 39 451 31 410 q 56 533 47 493 q 62 587 61 563 q 50 619 63 611 q 43 644 36 628 q 74 665 50 660 q 210 690 143 683 q 324 692 278 697 q 383 663 363 688 q 396 603 403 638 q 374 501 385 553 q 354 405 364 450 q 338 324 344 360 q 326 271 331 289 q 326 217 321 239 q 343 181 332 194 q 367 162 354 168 q 392 156 381 156 q 476 195 436 153 q 550 304 515 238 q 583 324 563 324 z "},"":{"ha":503,"x_min":-11,"x_max":625,"o":"m 303 738 l 257 822 l 211 738 l 50 738 l 176 971 l 175 972 l 178 972 l 336 972 l 338 972 l 338 971 l 464 738 l 303 738 m 583 324 q 614 307 603 324 q 617 271 625 290 q 556 165 590 214 q 478 78 521 115 q 383 19 435 40 q 268 -3 331 -3 q 180 13 232 -3 q 83 65 128 29 q 14 159 39 101 q 7 300 -11 217 q 24 376 15 338 q 39 451 31 410 q 56 533 47 493 q 62 587 61 563 q 50 619 63 611 q 43 644 36 628 q 74 665 50 660 q 210 690 143 683 q 324 692 278 697 q 383 663 363 688 q 396 603 403 638 q 374 501 385 553 q 354 405 364 450 q 338 324 344 360 q 326 271 331 289 q 326 217 321 239 q 343 181 332 194 q 367 162 354 168 q 392 156 381 156 q 476 195 436 153 q 550 304 515 238 q 583 324 563 324 z "},"":{"ha":503,"x_min":-11,"x_max":625,"o":"m 131 969 q 211 936 178 969 q 244 854 244 903 q 211 774 244 807 q 131 740 178 740 q 50 774 83 740 q 17 854 17 807 q 50 936 17 903 q 131 969 83 969 m 382 969 q 464 936 431 969 q 497 854 497 903 q 464 774 497 807 q 382 740 431 740 q 301 774 335 740 q 268 854 268 807 q 301 936 268 903 q 382 969 335 969 m 583 324 q 614 307 603 324 q 617 271 625 290 q 556 165 590 214 q 478 78 521 115 q 383 19 435 40 q 268 -3 331 -3 q 180 13 232 -3 q 83 65 128 29 q 14 159 39 101 q 7 300 -11 217 q 24 376 15 338 q 39 451 31 410 q 56 533 47 493 q 62 587 61 563 q 50 619 63 611 q 43 644 36 628 q 74 665 50 660 q 210 690 143 683 q 324 692 278 697 q 383 663 363 688 q 396 603 403 638 q 374 501 385 553 q 354 405 364 450 q 338 324 344 360 q 326 271 331 289 q 326 217 321 239 q 343 181 332 194 q 367 162 354 168 q 392 156 381 156 q 476 195 436 153 q 550 304 515 238 q 583 324 563 324 z "},"":{"ha":644,"x_min":-7,"x_max":761,"o":"m 254 328 q 152 360 203 333 q 65 433 101 388 q 10 543 28 479 q 7 686 -7 607 q 60 813 19 757 q 156 907 100 869 q 278 962 213 944 q 411 972 344 979 q 559 926 499 963 q 659 839 619 890 q 720 728 699 788 q 751 612 742 668 q 761 509 761 556 q 758 438 761 463 q 686 213 739 301 q 565 72 633 124 q 419 1 496 19 q 278 -10 343 -17 q 150 22 201 -1 q 69 75 99 44 q 28 140 39 106 q 24 206 18 175 q 50 261 31 238 q 100 294 69 285 q 151 299 125 301 q 200 285 178 296 q 239 259 222 275 q 261 225 256 243 q 266 213 264 218 q 261 206 268 208 q 229 169 239 192 q 224 124 219 146 q 249 88 229 103 q 307 72 269 72 q 369 106 344 72 q 411 188 394 140 q 438 288 428 236 q 451 374 447 339 q 386 340 418 350 q 328 328 354 331 q 271 328 297 324 l 254 328 m 251 594 q 272 483 247 522 q 334 435 297 444 q 409 443 371 426 q 468 499 447 460 q 474 561 471 529 q 478 619 476 589 q 483 676 481 649 q 474 790 488 746 q 437 856 460 835 q 385 875 414 876 q 331 853 357 874 q 284 794 304 833 q 260 701 264 756 l 251 594 z "},"":{"ha":1110,"x_min":0,"x_max":1232,"o":"m 431 914 q 517 903 476 914 q 594 884 557 892 q 668 880 632 876 q 743 911 704 883 q 750 914 744 914 q 765 896 765 914 q 737 808 763 843 q 646 774 711 774 q 560 783 601 774 q 481 799 519 793 q 408 803 443 806 q 339 776 372 801 q 331 774 333 774 q 313 796 313 774 q 349 880 319 846 q 431 914 378 914 m 1190 324 q 1158 304 1168 324 q 1083 195 1124 238 q 999 156 1043 153 q 975 163 989 157 q 950 182 961 168 q 933 217 939 196 q 935 272 928 239 q 939 294 935 275 q 947 335 943 314 l 958 390 q 951 531 976 474 q 882 625 926 589 q 785 677 838 661 q 696 693 733 693 q 556 660 618 693 q 446 574 494 628 q 450 592 449 585 q 453 603 451 599 q 440 663 460 638 q 381 692 419 688 q 267 691 335 699 q 129 665 200 683 q 99 644 106 660 q 106 619 92 628 q 117 587 118 611 q 111 533 117 563 q 98 471 108 524 q 72 341 88 418 q 37 174 56 264 q 0 -1 18 83 l 325 -1 q 363 181 343 86 q 401 360 383 276 q 440 431 419 399 q 481 488 460 464 q 526 524 503 511 q 574 536 550 538 q 597 529 583 535 q 622 510 611 524 q 638 474 633 496 q 638 419 643 453 q 633 397 636 415 q 625 357 629 378 l 614 301 q 621 160 596 218 q 690 67 646 103 q 787 14 735 31 q 876 -3 839 -3 q 991 19 939 -3 q 1086 78 1043 40 q 1163 165 1129 115 q 1224 271 1197 214 q 1221 307 1232 290 q 1190 324 1210 324 z "},"":{"ha":765,"x_min":-7,"x_max":733,"o":"m 299 914 q 385 903 344 914 q 463 884 425 892 q 536 880 500 876 q 611 911 572 883 q 618 914 613 914 q 633 896 633 914 q 605 808 631 843 q 514 774 579 774 q 428 783 469 774 q 349 799 388 793 q 276 803 311 806 q 207 776 240 801 q 199 774 201 774 q 181 796 181 774 q 217 880 188 846 q 299 914 246 914 m 704 461 q 664 500 682 488 q 632 515 646 513 q 603 515 617 519 q 601 589 613 554 q 560 650 589 624 q 488 691 532 676 q 386 706 443 706 q 191 653 274 706 q 60 520 108 600 q 3 347 13 440 q 28 174 -7 254 q 147 42 64 94 q 367 -11 231 -11 q 374 -10 371 -11 q 381 -10 378 -10 q 524 26 463 -4 q 627 102 585 57 q 693 201 669 147 q 725 304 717 254 q 728 397 733 354 q 704 461 722 439 m 408 117 q 339 149 363 119 q 309 220 315 178 q 311 310 303 263 q 340 396 319 357 q 391 458 361 435 q 456 475 421 482 q 487 456 475 471 q 501 415 499 442 q 511 406 503 406 q 526 410 519 406 q 554 425 546 419 q 572 444 563 431 q 600 383 594 418 q 599 310 606 347 q 573 237 592 272 q 528 174 554 201 q 472 130 503 146 q 408 117 440 114 z "},"":{"ha":765,"x_min":-7,"x_max":733,"o":"m 461 738 l 415 822 l 369 738 l 208 738 l 335 971 l 333 972 l 336 972 l 494 972 l 497 972 l 496 971 l 622 738 l 461 738 m 704 461 q 728 397 722 439 q 725 304 733 354 q 693 201 717 254 q 627 102 669 147 q 524 26 585 57 q 381 -10 463 -4 q 374 -10 378 -10 q 367 -11 371 -11 q 147 42 231 -11 q 28 174 64 94 q 3 347 -7 254 q 60 520 13 440 q 191 653 108 600 q 386 706 274 706 q 488 691 443 706 q 560 650 532 676 q 601 589 589 624 q 603 515 613 554 q 632 515 617 519 q 664 500 646 513 q 704 461 682 488 m 408 117 q 472 130 440 114 q 528 174 503 146 q 573 237 554 201 q 599 310 592 272 q 600 383 606 347 q 572 444 594 418 q 554 425 563 431 q 526 410 546 419 q 511 406 519 406 q 501 415 503 406 q 487 456 499 442 q 456 475 475 471 q 391 458 421 482 q 340 396 361 435 q 311 310 319 357 q 309 220 303 263 q 339 149 315 178 q 408 117 363 119 z "},"":{"ha":765,"x_min":-7,"x_max":733,"o":"m 289 738 l 417 972 l 578 972 l 450 738 l 289 738 m 704 461 q 728 397 722 439 q 725 304 733 354 q 693 201 717 254 q 627 102 669 147 q 524 26 585 57 q 381 -10 463 -4 q 374 -10 378 -10 q 367 -11 371 -11 q 147 42 231 -11 q 28 174 64 94 q 3 347 -7 254 q 60 520 13 440 q 191 653 108 600 q 386 706 274 706 q 488 691 443 706 q 560 650 532 676 q 601 589 589 624 q 603 515 613 554 q 632 515 617 519 q 664 500 646 513 q 704 461 682 488 m 408 117 q 472 130 440 114 q 528 174 503 146 q 573 237 554 201 q 599 310 592 272 q 600 383 606 347 q 572 444 594 418 q 554 425 563 431 q 526 410 546 419 q 511 406 519 406 q 501 415 503 406 q 487 456 499 442 q 456 475 475 471 q 391 458 421 482 q 340 396 361 435 q 311 310 319 357 q 309 220 303 263 q 339 149 315 178 q 408 117 363 119 z "},"":{"ha":765,"x_min":-7,"x_max":733,"o":"m 349 738 l 222 972 l 382 972 l 510 738 l 349 738 m 704 461 q 664 500 682 488 q 632 515 646 513 q 603 515 617 519 q 601 589 613 554 q 560 650 589 624 q 488 691 532 676 q 386 706 443 706 q 191 653 274 706 q 60 520 108 600 q 3 347 13 440 q 28 174 -7 254 q 147 42 64 94 q 367 -11 231 -11 q 374 -10 371 -11 q 381 -10 378 -10 q 524 26 463 -4 q 627 102 585 57 q 693 201 669 147 q 725 304 717 254 q 728 397 733 354 q 704 461 722 439 m 408 117 q 339 149 363 119 q 309 220 315 178 q 311 310 303 263 q 340 396 319 357 q 391 458 361 435 q 456 475 421 482 q 487 456 475 471 q 501 415 499 442 q 511 406 503 406 q 526 410 519 406 q 554 425 546 419 q 572 444 563 431 q 600 383 594 418 q 599 310 606 347 q 573 237 592 272 q 528 174 554 201 q 472 130 503 146 q 408 117 440 114 z "},"":{"ha":765,"x_min":-7,"x_max":733,"o":"m 272 969 q 353 936 319 969 q 386 854 386 903 q 353 774 386 807 q 272 740 319 740 q 191 774 224 740 q 158 854 158 807 q 191 936 158 903 q 272 969 224 969 m 524 969 q 606 936 572 969 q 639 854 639 903 q 606 774 639 807 q 524 740 572 740 q 443 774 476 740 q 410 854 410 807 q 443 936 410 903 q 524 969 476 969 m 704 461 q 728 397 722 439 q 725 304 733 354 q 693 201 717 254 q 627 102 669 147 q 524 26 585 57 q 381 -10 463 -4 q 374 -10 378 -10 q 367 -11 371 -11 q 147 42 231 -11 q 28 174 64 94 q 3 347 -7 254 q 60 520 13 440 q 191 653 108 600 q 386 706 274 706 q 488 691 443 706 q 560 650 532 676 q 601 589 589 624 q 603 515 613 554 q 632 515 617 519 q 664 500 646 513 q 704 461 682 488 m 408 117 q 472 130 440 114 q 528 174 503 146 q 573 237 554 201 q 599 310 592 272 q 600 383 606 347 q 572 444 594 418 q 554 425 563 431 q 526 410 546 419 q 511 406 519 406 q 501 415 503 406 q 487 456 499 442 q 456 475 475 471 q 391 458 421 482 q 340 396 361 435 q 311 310 319 357 q 309 220 303 263 q 339 149 315 178 q 408 117 363 119 z "},"":{"ha":1024,"x_min":-11,"x_max":1146,"o":"m 385 969 q 466 936 433 969 q 499 854 499 903 q 466 774 499 807 q 385 740 433 740 q 304 774 338 740 q 271 854 271 807 q 304 936 271 903 q 385 969 338 969 m 638 969 q 718 936 685 969 q 751 854 751 903 q 718 774 751 807 q 638 740 685 740 q 556 774 589 740 q 522 854 522 807 q 556 936 522 903 q 638 969 589 969 m 1104 324 q 1135 307 1125 324 q 1138 271 1146 290 q 1077 165 1111 214 q 1000 78 1043 115 q 905 19 957 40 q 790 -3 853 -3 q 728 6 764 -3 q 658 32 693 14 q 591 78 622 50 q 542 146 560 106 q 424 38 492 79 q 268 -3 356 -3 q 180 13 232 -3 q 83 65 128 29 q 14 159 39 101 q 7 300 -11 217 q 24 376 15 338 q 39 451 31 410 q 56 533 47 493 q 62 587 61 563 q 50 619 63 611 q 43 644 36 628 q 74 665 50 660 q 210 690 143 683 q 324 692 278 697 q 383 663 363 688 q 396 603 403 638 q 374 501 385 553 q 354 405 364 450 q 338 324 344 360 q 326 271 331 289 q 326 217 321 239 q 343 181 332 194 q 367 162 354 168 q 392 156 381 156 q 459 181 426 153 q 522 254 492 208 q 525 277 524 265 q 529 300 526 289 q 544 376 536 338 q 560 451 551 410 q 576 533 568 493 q 583 587 583 563 q 571 619 583 611 q 565 644 557 628 q 594 665 572 660 q 733 690 665 683 q 846 692 800 697 q 905 663 885 688 q 918 603 925 638 q 896 501 907 553 q 876 405 885 450 q 859 324 867 360 q 849 271 851 289 q 847 217 842 239 q 864 181 853 194 q 889 162 875 168 q 913 156 903 156 q 997 195 957 153 q 1072 304 1038 238 q 1104 324 1082 324 z "},"":{"ha":1024,"x_min":-11,"x_max":1146,"o":"m 585 738 l 538 822 l 492 738 l 332 738 l 458 971 l 457 972 l 458 972 l 617 972 l 619 972 l 618 971 l 744 738 l 585 738 m 1104 324 q 1135 307 1125 324 q 1138 271 1146 290 q 1077 165 1111 214 q 1000 78 1043 115 q 905 19 957 40 q 790 -3 853 -3 q 728 6 764 -3 q 658 32 693 14 q 591 78 622 50 q 542 146 560 106 q 424 38 492 79 q 268 -3 356 -3 q 180 13 232 -3 q 83 65 128 29 q 14 159 39 101 q 7 300 -11 217 q 24 376 15 338 q 39 451 31 410 q 56 533 47 493 q 62 587 61 563 q 50 619 63 611 q 43 644 36 628 q 74 665 50 660 q 210 690 143 683 q 324 692 278 697 q 383 663 363 688 q 396 603 403 638 q 374 501 385 553 q 354 405 364 450 q 338 324 344 360 q 326 271 331 289 q 326 217 321 239 q 343 181 332 194 q 367 162 354 168 q 392 156 381 156 q 459 181 426 153 q 522 254 492 208 q 525 277 524 265 q 529 300 526 289 q 544 376 536 338 q 560 451 551 410 q 576 533 568 493 q 583 587 583 563 q 571 619 583 611 q 565 644 557 628 q 594 665 572 660 q 733 690 665 683 q 846 692 800 697 q 905 663 885 688 q 918 603 925 638 q 896 501 907 553 q 876 405 885 450 q 859 324 867 360 q 849 271 851 289 q 847 217 842 239 q 864 181 853 194 q 889 162 875 168 q 913 156 903 156 q 997 195 957 153 q 1072 304 1038 238 q 1104 324 1082 324 z "},"":{"ha":1024,"x_min":-11,"x_max":1146,"o":"m 504 738 l 376 972 l 536 972 l 664 738 l 504 738 m 1104 324 q 1072 304 1082 324 q 997 195 1038 238 q 913 156 957 153 q 889 162 903 156 q 864 181 875 168 q 847 217 853 194 q 849 271 842 239 q 859 324 851 289 q 876 405 867 360 q 896 501 885 450 q 918 603 907 553 q 905 663 925 638 q 846 692 885 688 q 733 690 800 697 q 594 665 665 683 q 565 644 572 660 q 571 619 557 628 q 583 587 583 611 q 576 533 583 563 q 560 451 568 493 q 544 376 551 410 q 529 300 536 338 q 525 277 526 289 q 522 254 524 265 q 459 181 492 208 q 392 156 426 153 q 367 162 381 156 q 343 181 354 168 q 326 217 332 194 q 326 271 321 239 q 338 324 331 289 q 354 405 344 360 q 374 501 364 450 q 396 603 385 553 q 383 663 403 638 q 324 692 363 688 q 210 690 278 697 q 74 665 143 683 q 43 644 50 660 q 50 619 36 628 q 62 587 63 611 q 56 533 61 563 q 39 451 47 493 q 24 376 31 410 q 7 300 15 338 q 14 159 -11 217 q 83 65 39 101 q 180 13 128 29 q 268 -3 232 -3 q 424 38 356 -3 q 542 146 492 79 q 591 78 560 106 q 658 32 622 50 q 728 6 693 14 q 790 -3 764 -3 q 905 19 853 -3 q 1000 78 957 40 q 1077 165 1043 115 q 1138 271 1111 214 q 1135 307 1146 290 q 1104 324 1125 324 z "},"":{"ha":1024,"x_min":-11,"x_max":1146,"o":"m 407 738 l 535 972 l 694 972 l 568 738 l 407 738 m 1104 324 q 1135 307 1125 324 q 1138 271 1146 290 q 1077 165 1111 214 q 1000 78 1043 115 q 905 19 957 40 q 790 -3 853 -3 q 728 6 764 -3 q 658 32 693 14 q 591 78 622 50 q 542 146 560 106 q 424 38 492 79 q 268 -3 356 -3 q 180 13 232 -3 q 83 65 128 29 q 14 159 39 101 q 7 300 -11 217 q 24 376 15 338 q 39 451 31 410 q 56 533 47 493 q 62 587 61 563 q 50 619 63 611 q 43 644 36 628 q 74 665 50 660 q 210 690 143 683 q 324 692 278 697 q 383 663 363 688 q 396 603 403 638 q 374 501 385 553 q 354 405 364 450 q 338 324 344 360 q 326 271 331 289 q 326 217 321 239 q 343 181 332 194 q 367 162 354 168 q 392 156 381 156 q 459 181 426 153 q 522 254 492 208 q 525 277 524 265 q 529 300 526 289 q 544 376 536 338 q 560 451 551 410 q 576 533 568 493 q 583 587 583 563 q 571 619 583 611 q 565 644 557 628 q 594 665 572 660 q 733 690 665 683 q 846 692 800 697 q 905 663 885 688 q 918 603 925 638 q 896 501 907 553 q 876 405 885 450 q 859 324 867 360 q 849 271 851 289 q 847 217 842 239 q 864 181 853 194 q 889 162 875 168 q 913 156 903 156 q 997 195 957 153 q 1072 304 1038 238 q 1104 324 1082 324 z "},"":{"ha":960,"x_min":-11,"x_max":931,"o":"m 407 738 l 535 972 l 694 972 l 568 738 l 407 738 m 849 693 q 909 664 888 689 q 924 604 931 639 q 915 566 921 597 q 903 500 910 535 q 886 411 896 460 q 879 376 885 408 q 865 297 874 343 q 846 199 856 251 q 828 101 836 146 q 813 25 819 56 q 807 -7 807 -6 q 774 -104 799 -46 q 700 -217 750 -162 q 569 -310 650 -271 q 363 -349 488 -349 q 199 -319 261 -349 q 107 -247 138 -289 q 75 -160 76 -206 q 93 -86 74 -115 q 151 -40 117 -51 q 217 -35 185 -29 q 275 -62 250 -42 q 304 -110 300 -83 q 307 -120 306 -115 q 303 -128 308 -125 q 257 -167 267 -143 q 254 -212 247 -190 q 281 -250 261 -235 q 328 -265 301 -265 l 329 -265 q 392 -239 365 -265 q 438 -168 418 -212 q 471 -64 457 -124 q 496 63 485 -4 l 497 63 q 500 83 499 74 q 504 101 501 92 q 399 26 457 54 q 268 -3 340 -3 q 180 13 232 -3 q 83 65 128 29 q 14 159 39 101 q 7 300 -11 217 q 24 376 15 338 q 39 451 31 410 q 56 533 47 493 q 62 587 61 563 q 50 619 63 611 q 43 644 36 628 q 74 665 50 660 q 210 690 143 683 q 324 692 278 697 q 383 663 363 688 q 396 603 403 638 q 374 501 385 553 q 354 405 364 450 q 338 324 344 360 q 326 271 331 289 q 326 216 321 238 q 343 181 332 194 q 367 162 354 168 q 392 156 381 156 q 469 188 432 153 q 538 279 506 222 q 568 447 556 378 q 583 528 581 515 q 589 581 589 557 q 576 614 589 606 q 569 638 563 622 q 599 661 576 654 q 736 689 669 681 q 849 693 803 697 z "},"":{"ha":960,"x_min":-11,"x_max":931,"o":"m 388 969 q 468 936 435 969 q 501 854 501 903 q 468 774 501 807 q 388 740 435 740 q 306 774 339 740 q 272 854 272 807 q 306 936 272 903 q 388 969 339 969 m 639 969 q 721 936 688 969 q 754 854 754 903 q 721 774 754 807 q 639 740 688 740 q 558 774 592 740 q 525 854 525 807 q 558 936 525 903 q 639 969 592 969 m 849 693 q 909 664 888 689 q 924 604 931 639 q 915 566 921 597 q 903 500 910 535 q 886 411 896 460 q 879 376 885 408 q 865 297 874 343 q 846 199 856 251 q 828 101 836 146 q 813 25 819 56 q 807 -7 807 -6 q 774 -104 799 -46 q 700 -217 750 -162 q 569 -310 650 -271 q 363 -349 488 -349 q 199 -319 261 -349 q 107 -247 138 -289 q 75 -160 76 -206 q 93 -86 74 -115 q 151 -40 117 -51 q 217 -35 185 -29 q 275 -62 250 -42 q 304 -110 300 -83 q 307 -120 306 -115 q 303 -128 308 -125 q 257 -167 267 -143 q 254 -212 247 -190 q 281 -250 261 -235 q 328 -265 301 -265 l 329 -265 q 392 -239 365 -265 q 438 -168 418 -212 q 471 -64 457 -124 q 496 63 485 -4 l 497 63 q 500 83 499 74 q 504 101 501 92 q 399 26 457 54 q 268 -3 340 -3 q 180 13 232 -3 q 83 65 128 29 q 14 159 39 101 q 7 300 -11 217 q 24 376 15 338 q 39 451 31 410 q 56 533 47 493 q 62 587 61 563 q 50 619 63 611 q 43 644 36 628 q 74 665 50 660 q 210 690 143 683 q 324 692 278 697 q 383 663 363 688 q 396 603 403 638 q 374 501 385 553 q 354 405 364 450 q 338 324 344 360 q 326 271 331 289 q 326 216 321 238 q 343 181 332 194 q 367 162 354 168 q 392 156 381 156 q 469 188 432 153 q 538 279 506 222 q 568 447 556 378 q 583 528 581 515 q 589 581 589 557 q 576 614 589 606 q 569 638 563 622 q 599 661 576 654 q 736 689 669 681 q 849 693 803 697 z "},"":{"ha":1544,"x_min":-3,"x_max":1510,"o":"m 1144 1319 q 1225 1286 1192 1319 q 1258 1206 1258 1253 q 1225 1125 1258 1158 q 1144 1092 1192 1092 q 1063 1125 1096 1092 q 1029 1206 1029 1158 q 1063 1286 1029 1253 q 1144 1319 1096 1319 m 1396 1319 q 1477 1286 1444 1319 q 1510 1206 1510 1253 q 1477 1125 1510 1158 q 1396 1092 1444 1092 q 1315 1125 1349 1092 q 1282 1206 1282 1158 q 1315 1286 1282 1253 q 1396 1319 1349 1319 m 1117 1010 q 1174 1032 1140 1022 q 1242 1042 1207 1042 q 1309 1031 1276 1042 q 1364 990 1342 1019 q 1394 911 1386 961 q 1389 785 1403 861 l 1304 382 l 1304 378 q 1301 365 1304 374 q 1271 195 1275 267 q 1276 74 1267 124 q 1306 -6 1286 24 q 1350 -51 1326 -36 q 1396 -71 1374 -67 q 1433 -71 1418 -75 q 1449 -79 1444 -68 q 1447 -101 1454 -90 q 1373 -171 1425 -146 q 1258 -197 1321 -196 q 1129 -176 1194 -199 q 1016 -102 1064 -153 q 945 29 968 -51 q 944 222 922 110 l 943 219 q 889 333 921 278 q 819 434 861 382 q 718 526 776 486 q 651 427 685 483 q 588 314 617 371 q 536 206 558 257 q 504 126 514 156 q 485 12 483 64 q 503 -81 486 -40 q 548 -147 519 -121 q 610 -186 576 -174 q 640 -226 638 -196 q 618 -274 642 -256 q 492 -335 557 -319 q 365 -340 426 -350 q 252 -299 304 -331 q 165 -219 200 -267 q 116 -110 129 -171 q 121 21 103 -49 q 183 167 138 89 q 290 324 229 246 q 420 476 351 403 q 551 608 489 550 q 384 653 463 642 q 243 660 306 665 q 137 632 181 654 q 72 576 93 610 q 38 572 57 551 q 8 636 18 592 q 3 739 -3 681 q 44 847 8 797 q 153 928 81 897 q 350 951 226 960 q 562 889 468 943 q 729 758 656 835 q 944 909 842 844 q 1117 1010 1046 974 m 974 360 q 1000 479 986 417 q 1028 602 1014 542 q 1055 717 1042 663 q 1078 815 1068 772 q 1094 882 1088 857 q 1100 908 1100 907 q 1042 867 1075 893 q 972 806 1008 840 q 895 733 935 772 q 818 650 856 693 q 916 488 878 567 q 974 360 954 408 z "},"":{"ha":1517,"x_min":-3,"x_max":1482,"o":"m 1194 1089 l 1322 1324 l 1482 1324 l 1356 1089 l 1194 1089 m 1117 1010 q 1174 1032 1140 1022 q 1242 1042 1207 1042 q 1309 1031 1276 1042 q 1364 990 1342 1019 q 1394 911 1386 961 q 1389 785 1403 861 l 1304 382 l 1304 378 q 1301 365 1304 374 q 1271 195 1275 267 q 1276 74 1267 124 q 1306 -6 1286 24 q 1350 -51 1326 -36 q 1396 -71 1374 -67 q 1433 -71 1418 -75 q 1449 -79 1444 -68 q 1447 -101 1454 -90 q 1373 -171 1425 -146 q 1258 -197 1321 -196 q 1129 -176 1194 -199 q 1016 -102 1064 -153 q 945 29 968 -51 q 944 222 922 110 l 943 219 q 889 333 921 278 q 819 434 861 382 q 718 526 776 486 q 651 427 685 483 q 588 314 617 371 q 536 206 558 257 q 504 126 514 156 q 485 12 483 64 q 503 -81 486 -40 q 548 -147 519 -121 q 610 -186 576 -174 q 640 -226 638 -196 q 618 -274 642 -256 q 492 -335 557 -319 q 365 -340 426 -350 q 252 -299 304 -331 q 165 -219 200 -267 q 116 -110 129 -171 q 121 21 103 -49 q 183 167 138 89 q 290 324 229 246 q 420 476 351 403 q 551 608 489 550 q 384 653 463 642 q 243 660 306 665 q 137 632 181 654 q 72 576 93 610 q 38 572 57 551 q 8 636 18 592 q 3 739 -3 681 q 44 847 8 797 q 153 928 81 897 q 350 951 226 960 q 562 889 468 943 q 729 758 656 835 q 944 909 842 844 q 1117 1010 1046 974 m 974 360 q 1000 479 986 417 q 1028 602 1014 542 q 1055 717 1042 663 q 1078 815 1068 772 q 1094 882 1088 857 q 1100 908 1100 907 q 1042 867 1075 893 q 972 806 1008 840 q 895 733 935 772 q 818 650 856 693 q 916 488 878 567 q 974 360 954 408 z "},"":{"ha":1486,"x_min":-3,"x_max":1454,"o":"m 1244 1089 l 1117 1324 l 1278 1324 l 1404 1089 l 1244 1089 m 1117 1010 q 944 909 1046 974 q 729 758 842 844 q 562 889 656 835 q 350 951 468 943 q 153 928 226 960 q 44 847 81 897 q 3 739 8 797 q 8 636 -3 681 q 38 572 18 592 q 72 576 57 551 q 137 632 93 610 q 243 660 181 654 q 384 653 306 665 q 551 608 463 642 q 420 476 489 550 q 290 324 351 403 q 183 167 229 246 q 121 21 138 89 q 116 -110 103 -49 q 165 -219 129 -171 q 252 -299 200 -267 q 365 -340 304 -331 q 492 -335 426 -350 q 618 -274 557 -319 q 640 -226 642 -256 q 610 -186 638 -196 q 548 -147 576 -174 q 503 -81 519 -121 q 485 12 486 -40 q 504 126 483 64 q 536 206 514 156 q 588 314 558 257 q 651 427 617 371 q 718 526 685 483 q 819 434 776 486 q 889 333 861 382 q 943 219 921 278 l 944 222 q 945 29 922 110 q 1016 -102 968 -51 q 1129 -176 1064 -153 q 1258 -197 1194 -199 q 1373 -171 1321 -196 q 1447 -101 1425 -146 q 1449 -79 1454 -90 q 1433 -71 1444 -68 q 1396 -71 1418 -75 q 1350 -51 1374 -67 q 1306 -6 1326 -36 q 1276 74 1286 24 q 1271 195 1267 124 q 1301 365 1275 267 q 1304 378 1304 374 l 1304 382 l 1389 785 q 1394 911 1403 861 q 1364 990 1386 961 q 1309 1031 1342 1019 q 1242 1042 1276 1042 q 1174 1032 1207 1042 q 1117 1010 1140 1022 m 974 360 q 916 488 954 408 q 818 650 878 567 q 895 733 856 693 q 972 806 935 772 q 1042 867 1008 840 q 1100 908 1075 893 q 1094 882 1100 907 q 1078 815 1088 857 q 1055 717 1068 772 q 1028 602 1042 663 q 1000 479 1014 542 q 974 360 986 417 z "},"":{"ha":1486,"x_min":-3,"x_max":1454,"o":"m 844 1089 l 971 1324 l 1132 1324 l 1004 1089 l 844 1089 m 1290 1089 l 1163 1324 l 1324 1324 l 1450 1089 l 1290 1089 m 1117 1010 q 1174 1032 1140 1022 q 1242 1042 1207 1042 q 1309 1031 1276 1042 q 1364 990 1342 1019 q 1394 911 1386 961 q 1389 785 1403 861 l 1304 382 l 1304 378 q 1301 365 1304 374 q 1271 195 1275 267 q 1276 74 1267 124 q 1306 -6 1286 24 q 1350 -51 1326 -36 q 1396 -71 1374 -67 q 1433 -71 1418 -75 q 1449 -79 1444 -68 q 1447 -101 1454 -90 q 1373 -171 1425 -146 q 1258 -197 1321 -196 q 1129 -176 1194 -199 q 1016 -102 1064 -153 q 945 29 968 -51 q 944 222 922 110 l 943 219 q 889 333 921 278 q 819 434 861 382 q 718 526 776 486 q 651 427 685 483 q 588 314 617 371 q 536 206 558 257 q 504 126 514 156 q 485 12 483 64 q 503 -81 486 -40 q 548 -147 519 -121 q 610 -186 576 -174 q 640 -226 638 -196 q 618 -274 642 -256 q 492 -335 557 -319 q 365 -340 426 -350 q 252 -299 304 -331 q 165 -219 200 -267 q 116 -110 129 -171 q 121 21 103 -49 q 183 167 138 89 q 290 324 229 246 q 420 476 351 403 q 551 608 489 550 q 384 653 463 642 q 243 660 306 665 q 137 632 181 654 q 72 576 93 610 q 38 572 57 551 q 8 636 18 592 q 3 739 -3 681 q 44 847 8 797 q 153 928 81 897 q 350 951 226 960 q 562 889 468 943 q 729 758 656 835 q 944 909 842 844 q 1117 1010 1046 974 m 974 360 q 1000 479 986 417 q 1028 602 1014 542 q 1055 717 1042 663 q 1078 815 1068 772 q 1094 882 1088 857 q 1100 908 1100 907 q 1042 867 1075 893 q 972 806 1008 840 q 895 733 935 772 q 818 650 856 693 q 916 488 878 567 q 974 360 954 408 z "},"":{"ha":1558,"x_min":-3,"x_max":1524,"o":"m 1189 1276 q 1275 1265 1235 1276 q 1352 1247 1315 1254 q 1425 1242 1389 1239 q 1500 1274 1461 1244 q 1508 1276 1506 1276 q 1519 1271 1515 1276 q 1522 1258 1524 1265 q 1494 1170 1519 1206 q 1404 1135 1469 1135 q 1318 1144 1360 1135 q 1238 1161 1276 1154 q 1165 1166 1200 1168 q 1096 1139 1129 1164 q 1088 1136 1094 1136 q 1075 1142 1081 1135 q 1071 1157 1069 1149 q 1106 1242 1076 1208 q 1189 1276 1136 1276 m 1117 1010 q 944 909 1046 974 q 729 758 842 844 q 562 889 656 835 q 350 951 468 943 q 153 928 226 960 q 44 847 81 897 q 3 739 8 797 q 8 636 -3 681 q 38 572 18 592 q 72 576 57 551 q 137 632 93 610 q 243 660 181 654 q 384 653 306 665 q 551 608 463 642 q 420 476 489 550 q 290 324 351 403 q 183 167 229 246 q 121 21 138 89 q 116 -110 103 -49 q 165 -219 129 -171 q 252 -299 200 -267 q 365 -340 304 -331 q 492 -335 426 -350 q 618 -274 557 -319 q 640 -226 642 -256 q 610 -186 638 -196 q 548 -147 576 -174 q 503 -81 519 -121 q 485 12 486 -40 q 504 126 483 64 q 536 206 514 156 q 588 314 558 257 q 651 427 617 371 q 718 526 685 483 q 819 434 776 486 q 889 333 861 382 q 943 219 921 278 l 944 222 q 945 29 922 110 q 1016 -102 968 -51 q 1129 -176 1064 -153 q 1258 -197 1194 -199 q 1373 -171 1321 -196 q 1447 -101 1425 -146 q 1449 -79 1454 -90 q 1433 -71 1444 -68 q 1396 -71 1418 -75 q 1350 -51 1374 -67 q 1306 -6 1326 -36 q 1276 74 1286 24 q 1271 195 1267 124 q 1301 365 1275 267 q 1304 378 1304 374 l 1304 382 l 1389 785 q 1394 911 1403 861 q 1364 990 1386 961 q 1309 1031 1342 1019 q 1242 1042 1276 1042 q 1174 1032 1207 1042 q 1117 1010 1140 1022 m 974 360 q 916 488 954 408 q 818 650 878 567 q 895 733 856 693 q 972 806 935 772 q 1042 867 1008 840 q 1100 908 1075 893 q 1094 882 1100 907 q 1078 815 1088 857 q 1055 717 1068 772 q 1028 602 1042 663 q 1000 479 1014 542 q 974 360 986 417 z "},"":{"ha":1486,"x_min":-3,"x_max":1454,"o":"m 1321 1324 q 1403 1290 1369 1324 q 1436 1208 1436 1257 q 1403 1128 1436 1161 q 1321 1094 1369 1094 q 1240 1128 1274 1094 q 1207 1208 1207 1161 q 1240 1290 1207 1257 q 1321 1324 1274 1324 m 1321 1135 q 1374 1156 1353 1135 q 1396 1208 1396 1178 q 1374 1261 1396 1240 q 1321 1282 1353 1282 q 1269 1261 1290 1282 q 1247 1208 1247 1240 q 1269 1156 1247 1178 q 1321 1135 1290 1135 m 1117 1010 q 1174 1032 1140 1022 q 1242 1042 1207 1042 q 1309 1031 1276 1042 q 1364 990 1342 1019 q 1394 911 1386 961 q 1389 785 1403 861 l 1304 382 l 1304 378 q 1301 365 1304 374 q 1271 195 1275 267 q 1276 74 1267 124 q 1306 -6 1286 24 q 1350 -51 1326 -36 q 1396 -71 1374 -67 q 1433 -71 1418 -75 q 1449 -79 1444 -68 q 1447 -101 1454 -90 q 1373 -171 1425 -146 q 1258 -197 1321 -196 q 1129 -176 1194 -199 q 1016 -102 1064 -153 q 945 29 968 -51 q 944 222 922 110 l 943 219 q 889 333 921 278 q 819 434 861 382 q 718 526 776 486 q 651 427 685 483 q 588 314 617 371 q 536 206 558 257 q 504 126 514 156 q 485 12 483 64 q 503 -81 486 -40 q 548 -147 519 -121 q 610 -186 576 -174 q 640 -226 638 -196 q 618 -274 642 -256 q 492 -335 557 -319 q 365 -340 426 -350 q 252 -299 304 -331 q 165 -219 200 -267 q 116 -110 129 -171 q 121 21 103 -49 q 183 167 138 89 q 290 324 229 246 q 420 476 351 403 q 551 608 489 550 q 384 653 463 642 q 243 660 306 665 q 137 632 181 654 q 72 576 93 610 q 38 572 57 551 q 8 636 18 592 q 3 739 -3 681 q 44 847 8 797 q 153 928 81 897 q 350 951 226 960 q 562 889 468 943 q 729 758 656 835 q 944 909 842 844 q 1117 1010 1046 974 m 974 360 q 1000 479 986 417 q 1028 602 1014 542 q 1055 717 1042 663 q 1078 815 1068 772 q 1094 882 1088 857 q 1100 908 1100 907 q 1042 867 1075 893 q 972 806 1008 840 q 895 733 935 772 q 818 650 856 693 q 916 488 878 567 q 974 360 954 408 z "},"":{"ha":2428,"x_min":-3,"x_max":2399,"o":"m 2060 193 q 2251 236 2174 250 q 2363 167 2328 222 q 2391 31 2399 111 q 2328 -127 2383 -50 q 2168 -260 2272 -204 q 1907 -324 2064 -317 q 1754 -316 1828 -326 q 1617 -283 1681 -306 q 1502 -224 1553 -260 q 1417 -142 1451 -189 q 1328 -187 1382 -174 q 1214 -195 1274 -201 q 1097 -162 1154 -189 q 1000 -83 1040 -135 q 942 44 960 -32 q 944 222 924 119 l 943 219 q 889 333 921 278 q 819 434 861 382 q 718 526 776 486 q 651 427 685 483 q 588 314 617 371 q 536 206 558 257 q 504 126 514 156 q 485 12 483 64 q 503 -81 486 -40 q 548 -147 519 -121 q 610 -186 576 -174 q 640 -226 638 -196 q 618 -274 642 -256 q 492 -335 557 -319 q 365 -340 426 -350 q 252 -299 304 -331 q 165 -219 200 -267 q 116 -110 129 -171 q 121 21 103 -49 q 183 167 138 89 q 290 324 229 246 q 420 476 351 403 q 551 608 489 550 q 384 653 463 642 q 243 660 306 665 q 137 632 181 654 q 72 576 93 610 q 38 572 57 551 q 8 636 18 592 q 3 739 -3 681 q 44 847 8 797 q 153 928 81 897 q 350 951 226 960 q 562 889 468 943 q 729 758 656 835 q 944 909 842 844 q 1117 1010 1046 974 q 1174 1032 1140 1022 q 1242 1042 1207 1042 q 1309 1031 1276 1042 q 1364 990 1342 1019 q 1394 911 1386 961 q 1389 785 1403 861 l 1304 382 l 1304 378 q 1301 365 1304 374 q 1270 176 1272 253 q 1283 49 1268 99 q 1323 -28 1297 -1 q 1375 -65 1349 -56 q 1356 49 1356 -11 q 1464 334 1356 226 q 1775 475 1572 442 q 1664 496 1713 478 q 1585 545 1615 514 q 1544 619 1556 576 q 1546 715 1533 663 q 1592 815 1558 768 q 1677 896 1626 861 q 1792 951 1728 931 q 1931 971 1857 971 q 2089 941 2021 971 q 2198 868 2157 911 q 2251 777 2239 825 q 2240 694 2263 729 q 2206 665 2231 679 q 2149 644 2181 651 q 2083 640 2117 638 q 2019 660 2049 643 q 2007 679 2010 665 q 2011 700 2004 693 q 2041 761 2032 726 q 2046 827 2050 796 q 2022 881 2042 858 q 1963 906 2001 903 q 1889 888 1921 908 q 1836 836 1857 868 q 1805 764 1815 804 q 1794 686 1794 724 q 1823 583 1794 626 q 1911 525 1851 540 q 1939 524 1926 525 q 1963 519 1951 522 q 2032 496 2003 513 q 2049 477 2044 489 q 2049 453 2053 465 q 2035 434 2046 442 q 2010 429 2025 426 q 1997 431 2006 431 q 1892 413 1943 433 q 1806 351 1842 392 q 1737 245 1764 306 q 1701 121 1710 185 q 1699 -5 1692 57 q 1731 -117 1706 -67 q 1801 -202 1757 -168 q 1907 -242 1844 -236 q 2019 -226 1972 -249 q 2094 -166 2065 -204 q 2135 -79 2124 -128 q 2142 17 2147 -31 q 2116 103 2138 64 q 2058 161 2094 142 q 2048 177 2047 168 q 2060 193 2049 186 m 974 360 q 1000 479 986 417 q 1028 602 1014 542 q 1055 717 1042 663 q 1078 815 1068 772 q 1094 882 1088 857 q 1100 908 1100 907 q 1042 867 1075 893 q 972 806 1008 840 q 895 733 935 772 q 818 650 856 693 q 916 488 878 567 q 974 360 954 408 z "},"":{"ha":1043,"x_min":0,"x_max":1014,"o":"m 488 1089 l 360 1324 l 521 1324 l 649 1089 l 488 1089 m 676 285 q 665 269 665 278 q 675 253 664 260 q 732 194 711 233 q 758 108 753 156 q 751 13 763 61 q 710 -74 739 -36 q 634 -135 681 -112 q 522 -150 588 -157 q 416 -110 460 -144 q 347 -26 372 -76 q 315 87 322 25 q 317 213 307 149 q 353 337 326 276 q 421 443 379 397 q 508 504 457 483 q 613 522 558 525 q 625 521 622 522 q 651 526 640 518 q 665 545 661 533 q 664 569 668 557 q 647 588 660 581 q 578 611 618 604 q 554 615 567 614 q 526 617 542 617 q 435 679 468 632 q 401 786 401 726 q 413 862 401 824 q 448 931 425 900 q 504 981 471 963 q 579 997 538 1000 q 642 977 618 994 q 676 931 667 960 q 681 867 685 903 q 658 792 676 831 q 663 778 654 783 q 683 769 672 772 q 776 768 732 758 q 839 810 819 778 q 852 888 861 844 q 805 971 843 932 q 701 1036 767 1010 q 546 1063 636 1063 q 408 1044 472 1063 q 297 991 344 1025 q 219 910 249 957 q 186 810 190 864 q 235 658 179 721 q 390 567 290 594 q 217 503 290 546 q 96 405 144 461 q 24 281 47 349 q 0 140 0 213 q 40 -12 0 58 q 149 -133 79 -82 q 314 -210 218 -183 q 522 -232 410 -236 q 784 -169 679 -225 q 944 -35 889 -112 q 1006 122 999 42 q 978 258 1014 203 q 867 328 943 314 q 676 285 790 342 z "},"":{"ha":1043,"x_min":0,"x_max":1014,"o":"m 425 1089 l 551 1324 l 713 1324 l 585 1089 l 425 1089 m 676 285 q 867 328 790 342 q 978 258 943 314 q 1006 122 1014 203 q 944 -35 999 42 q 784 -169 889 -112 q 522 -232 679 -225 q 314 -210 410 -236 q 149 -133 218 -183 q 40 -12 79 -82 q 0 140 0 58 q 24 281 0 213 q 96 405 47 349 q 217 503 144 461 q 390 567 290 546 q 235 658 290 594 q 186 810 179 721 q 219 910 190 864 q 297 991 249 957 q 408 1044 344 1025 q 546 1063 472 1063 q 701 1036 636 1063 q 805 971 767 1010 q 852 888 843 932 q 839 810 861 844 q 776 768 819 778 q 683 769 732 758 q 663 778 672 772 q 658 792 654 783 q 681 867 676 831 q 676 931 685 903 q 642 977 667 960 q 579 997 618 994 q 504 981 538 1000 q 448 931 471 963 q 413 862 425 900 q 401 786 401 824 q 435 679 401 726 q 526 617 468 632 q 554 615 542 617 q 578 611 567 614 q 647 588 618 604 q 664 569 660 581 q 665 545 668 557 q 651 526 661 533 q 625 521 640 518 q 613 522 622 522 q 508 504 558 525 q 421 443 457 483 q 353 337 379 397 q 317 213 326 276 q 315 87 307 149 q 347 -26 322 25 q 416 -110 372 -76 q 522 -150 460 -144 q 634 -135 588 -157 q 710 -74 681 -112 q 751 13 739 -36 q 758 108 763 61 q 732 194 753 156 q 675 253 711 233 q 665 269 664 260 q 676 285 665 278 z "},"":{"ha":1043,"x_min":0,"x_max":1014,"o":"m 240 1089 l 368 1324 l 529 1324 l 401 1089 l 240 1089 m 682 1089 l 554 1324 l 715 1324 l 842 1089 l 682 1089 m 676 285 q 867 328 790 342 q 978 258 943 314 q 1006 122 1014 203 q 944 -35 999 42 q 784 -169 889 -112 q 522 -232 679 -225 q 314 -210 410 -236 q 149 -133 218 -183 q 40 -12 79 -82 q 0 140 0 58 q 24 281 0 213 q 96 405 47 349 q 217 503 144 461 q 390 567 290 546 q 235 658 290 594 q 186 810 179 721 q 219 910 190 864 q 297 991 249 957 q 408 1044 344 1025 q 546 1063 472 1063 q 701 1036 636 1063 q 805 971 767 1010 q 852 888 843 932 q 839 810 861 844 q 776 768 819 778 q 683 769 732 758 q 663 778 672 772 q 658 792 654 783 q 681 867 676 831 q 676 931 685 903 q 642 977 667 960 q 579 997 618 994 q 504 981 538 1000 q 448 931 471 963 q 413 862 425 900 q 401 786 401 824 q 435 679 401 726 q 526 617 468 632 q 554 615 542 617 q 578 611 567 614 q 647 588 618 604 q 664 569 660 581 q 665 545 668 557 q 651 526 661 533 q 625 521 640 518 q 613 522 622 522 q 508 504 558 525 q 421 443 457 483 q 353 337 379 397 q 317 213 326 276 q 315 87 307 149 q 347 -26 322 25 q 416 -110 372 -76 q 522 -150 460 -144 q 634 -135 588 -157 q 710 -74 681 -112 q 751 13 739 -36 q 758 108 763 61 q 732 194 753 156 q 675 253 711 233 q 665 269 664 260 q 676 285 665 278 z "},"":{"ha":1043,"x_min":0,"x_max":1014,"o":"m 444 1319 q 525 1286 492 1319 q 558 1206 558 1253 q 525 1125 558 1158 q 444 1092 492 1092 q 363 1125 396 1092 q 329 1206 329 1158 q 363 1286 329 1253 q 444 1319 396 1319 m 696 1319 q 777 1286 744 1319 q 810 1206 810 1253 q 777 1125 810 1158 q 696 1092 744 1092 q 615 1125 649 1092 q 582 1206 582 1158 q 615 1286 582 1253 q 696 1319 649 1319 m 676 285 q 867 328 790 342 q 978 258 943 314 q 1006 122 1014 203 q 944 -35 999 42 q 784 -169 889 -112 q 522 -232 679 -225 q 314 -210 410 -236 q 149 -133 218 -183 q 40 -12 79 -82 q 0 140 0 58 q 24 281 0 213 q 96 405 47 349 q 217 503 144 461 q 390 567 290 546 q 235 658 290 594 q 186 810 179 721 q 219 910 190 864 q 297 991 249 957 q 408 1044 344 1025 q 546 1063 472 1063 q 701 1036 636 1063 q 805 971 767 1010 q 852 888 843 932 q 839 810 861 844 q 776 768 819 778 q 683 769 732 758 q 663 778 672 772 q 658 792 654 783 q 681 867 676 831 q 676 931 685 903 q 642 977 667 960 q 579 997 618 994 q 504 981 538 1000 q 448 931 471 963 q 413 862 425 900 q 401 786 401 824 q 435 679 401 726 q 526 617 468 632 q 554 615 542 617 q 578 611 567 614 q 647 588 618 604 q 664 569 660 581 q 665 545 668 557 q 651 526 661 533 q 625 521 640 518 q 613 522 622 522 q 508 504 558 525 q 421 443 457 483 q 353 337 379 397 q 317 213 326 276 q 315 87 307 149 q 347 -26 322 25 q 416 -110 372 -76 q 522 -150 460 -144 q 634 -135 588 -157 q 710 -74 681 -112 q 751 13 739 -36 q 758 108 763 61 q 732 194 753 156 q 675 253 711 233 q 665 269 664 260 q 676 285 665 278 z "},"":{"ha":1301,"x_min":-3,"x_max":1267,"o":"m 1032 1089 l 904 1324 l 1064 1324 l 1192 1089 l 1032 1089 m 1222 972 l 1169 972 q 1049 986 1106 972 q 924 1013 1001 999 q 760 1033 846 1028 q 590 1027 674 1038 q 444 978 506 1017 q 344 878 374 932 q 318 772 315 824 q 351 679 321 721 q 430 616 382 638 q 539 599 478 594 q 664 647 600 604 q 672 669 675 656 q 656 685 669 682 q 615 716 628 689 q 608 778 603 743 q 637 851 613 814 q 708 912 661 888 q 825 940 754 936 q 993 913 896 943 q 1003 908 1000 910 q 1008 906 1007 907 l 1010 904 q 859 812 917 871 q 767 680 801 753 q 717 525 733 607 q 688 365 700 443 q 665 215 676 286 q 627 93 653 144 q 556 16 601 42 q 435 0 511 -10 q 353 34 383 7 q 312 98 322 61 q 310 175 301 135 q 344 247 318 215 q 412 296 369 278 q 510 306 454 314 q 531 317 525 303 q 536 346 536 331 q 503 489 540 433 q 409 570 467 544 q 283 592 351 596 q 153 557 214 589 q 49 466 92 525 q 1 321 7 407 q 20 190 -3 258 q 93 64 43 122 q 220 -35 143 6 q 404 -83 297 -75 q 622 -68 528 -93 q 788 5 717 -43 q 907 117 858 53 q 988 249 956 181 q 1038 385 1019 318 q 1067 508 1057 453 q 1103 697 1088 626 q 1137 809 1118 767 q 1182 876 1156 851 q 1251 926 1208 900 q 1263 939 1258 931 q 1265 954 1267 947 q 1253 967 1263 961 q 1222 972 1243 972 z "},"":{"ha":1386,"x_min":-3,"x_max":1351,"o":"m 1064 1089 l 1192 1324 l 1351 1324 l 1225 1089 l 1064 1089 m 1222 972 q 1253 967 1243 972 q 1265 954 1263 961 q 1263 939 1267 947 q 1251 926 1258 931 q 1182 876 1208 900 q 1137 809 1156 851 q 1103 697 1118 767 q 1067 508 1088 626 q 1038 385 1057 453 q 988 249 1019 318 q 907 117 956 181 q 788 5 858 53 q 622 -68 717 -43 q 404 -83 528 -93 q 220 -35 297 -75 q 93 64 143 6 q 20 190 43 122 q 1 321 -3 258 q 49 466 7 407 q 153 557 92 525 q 283 592 214 589 q 409 570 351 596 q 503 489 467 544 q 536 346 540 433 q 531 317 536 331 q 510 306 525 303 q 412 296 454 314 q 344 247 369 278 q 310 175 318 215 q 312 98 301 135 q 353 34 322 61 q 435 0 383 7 q 556 16 511 -10 q 627 93 601 42 q 665 215 653 144 q 688 365 676 286 q 717 525 700 443 q 767 680 733 607 q 859 812 801 753 q 1010 904 917 871 l 1008 906 q 1003 908 1007 907 q 993 913 1000 910 q 825 940 896 943 q 708 912 754 936 q 637 851 661 888 q 608 778 613 814 q 615 716 603 743 q 656 685 628 689 q 672 669 669 682 q 664 647 675 656 q 539 599 600 604 q 430 616 478 594 q 351 679 382 638 q 318 772 321 721 q 344 878 315 824 q 444 978 374 932 q 590 1027 506 1017 q 760 1033 674 1038 q 924 1013 846 1028 q 1049 986 1001 999 q 1169 972 1106 972 l 1222 972 z "},"":{"ha":1301,"x_min":-3,"x_max":1267,"o":"m 547 1089 l 675 1324 l 835 1324 l 708 1089 l 547 1089 m 988 1089 l 860 1324 l 1021 1324 l 1149 1089 l 988 1089 m 1222 972 q 1253 967 1243 972 q 1265 954 1263 961 q 1263 939 1267 947 q 1251 926 1258 931 q 1182 876 1208 900 q 1137 809 1156 851 q 1103 697 1118 767 q 1067 508 1088 626 q 1038 385 1057 453 q 988 249 1019 318 q 907 117 956 181 q 788 5 858 53 q 622 -68 717 -43 q 404 -83 528 -93 q 220 -35 297 -75 q 93 64 143 6 q 20 190 43 122 q 1 321 -3 258 q 49 466 7 407 q 153 557 92 525 q 283 592 214 589 q 409 570 351 596 q 503 489 467 544 q 536 346 540 433 q 531 317 536 331 q 510 306 525 303 q 412 296 454 314 q 344 247 369 278 q 310 175 318 215 q 312 98 301 135 q 353 34 322 61 q 435 0 383 7 q 556 16 511 -10 q 627 93 601 42 q 665 215 653 144 q 688 365 676 286 q 717 525 700 443 q 767 680 733 607 q 859 812 801 753 q 1010 904 917 871 l 1008 906 q 1003 908 1007 907 q 993 913 1000 910 q 825 940 896 943 q 708 912 754 936 q 637 851 661 888 q 608 778 613 814 q 615 716 603 743 q 656 685 628 689 q 672 669 669 682 q 664 647 675 656 q 539 599 600 604 q 430 616 478 594 q 351 679 382 638 q 318 772 321 721 q 344 878 315 824 q 444 978 374 932 q 590 1027 506 1017 q 760 1033 674 1038 q 924 1013 846 1028 q 1049 986 1001 999 q 1169 972 1106 972 l 1222 972 z "},"":{"ha":1301,"x_min":-3,"x_max":1267,"o":"m 721 1319 q 801 1286 768 1319 q 835 1206 835 1253 q 801 1125 835 1158 q 721 1092 768 1092 q 640 1125 672 1092 q 607 1206 607 1158 q 640 1286 607 1253 q 721 1319 672 1319 m 972 1319 q 1054 1286 1021 1319 q 1088 1206 1088 1253 q 1054 1125 1088 1158 q 972 1092 1021 1092 q 892 1125 925 1092 q 858 1206 858 1158 q 892 1286 858 1253 q 972 1319 925 1319 m 1222 972 q 1253 967 1243 972 q 1265 954 1263 961 q 1263 939 1267 947 q 1251 926 1258 931 q 1182 876 1208 900 q 1137 809 1156 851 q 1103 697 1118 767 q 1067 508 1088 626 q 1038 385 1057 453 q 988 249 1019 318 q 907 117 956 181 q 788 5 858 53 q 622 -68 717 -43 q 404 -83 528 -93 q 220 -35 297 -75 q 93 64 143 6 q 20 190 43 122 q 1 321 -3 258 q 49 466 7 407 q 153 557 92 525 q 283 592 214 589 q 409 570 351 596 q 503 489 467 544 q 536 346 540 433 q 531 317 536 331 q 510 306 525 303 q 412 296 454 314 q 344 247 369 278 q 310 175 318 215 q 312 98 301 135 q 353 34 322 61 q 435 0 383 7 q 556 16 511 -10 q 627 93 601 42 q 665 215 653 144 q 688 365 676 286 q 717 525 700 443 q 767 680 733 607 q 859 812 801 753 q 1010 904 917 871 l 1008 906 q 1003 908 1007 907 q 993 913 1000 910 q 825 940 896 943 q 708 912 754 936 q 637 851 661 888 q 608 778 613 814 q 615 716 603 743 q 656 685 628 689 q 672 669 669 682 q 664 647 675 656 q 539 599 600 604 q 430 616 478 594 q 351 679 382 638 q 318 772 321 721 q 344 878 315 824 q 444 978 374 932 q 590 1027 506 1017 q 760 1033 674 1038 q 924 1013 846 1028 q 1049 986 1001 999 q 1169 972 1106 972 l 1222 972 z "},"":{"ha":2122,"x_min":-4,"x_max":2086,"o":"m 1319 1276 q 1406 1265 1365 1276 q 1483 1247 1446 1254 q 1556 1242 1519 1239 q 1631 1274 1592 1244 q 1639 1276 1636 1276 q 1650 1271 1646 1276 q 1653 1258 1654 1265 q 1625 1170 1650 1206 q 1535 1135 1600 1135 q 1449 1144 1490 1135 q 1370 1161 1408 1154 q 1297 1166 1332 1168 q 1228 1139 1261 1164 q 1218 1136 1225 1136 q 1206 1142 1211 1135 q 1201 1157 1200 1149 q 1237 1242 1207 1208 q 1319 1276 1267 1276 m 1918 1042 q 1797 994 1850 1036 q 1703 885 1743 953 q 1637 729 1664 817 q 1593 547 1610 642 q 1569 354 1576 451 q 1561 169 1561 257 q 1490 280 1529 217 q 1410 413 1450 343 q 1333 557 1369 483 q 1272 699 1296 631 q 1238 825 1247 767 q 1244 922 1229 883 q 1259 963 1253 943 q 1286 990 1265 982 q 1299 1001 1294 993 q 1301 1016 1303 1008 q 1288 1030 1299 1024 q 1257 1036 1278 1036 l 1139 1036 q 731 1024 914 1049 q 576 992 653 1013 q 436 939 499 972 q 331 858 374 906 q 276 742 288 810 q 285 612 264 665 q 349 526 307 558 q 444 483 390 493 q 548 485 497 474 q 639 532 599 497 q 694 625 679 567 q 647 632 667 613 q 622 687 628 651 q 631 767 617 722 q 683 852 644 813 q 791 919 722 892 q 967 946 860 946 q 982 947 974 946 q 1006 947 990 947 q 1045 948 1021 947 q 1110 949 1069 949 q 930 865 999 925 q 822 721 861 804 q 763 538 782 638 q 733 338 744 439 q 710 143 721 238 q 674 -26 699 49 q 603 -146 649 -100 q 476 -196 557 -192 q 407 -178 432 -199 q 374 -126 382 -157 q 373 -58 365 -94 q 403 8 381 -22 q 461 55 425 38 q 546 65 497 72 q 565 76 561 63 q 572 106 569 90 q 550 246 585 189 q 455 332 515 303 q 319 361 394 361 q 176 329 243 361 q 59 233 108 297 q 1 71 10 169 q 24 -60 -4 8 q 108 -185 51 -128 q 249 -280 165 -243 q 439 -317 332 -317 q 642 -287 553 -317 q 797 -203 732 -257 q 904 -73 863 -149 q 965 93 946 3 q 990 260 982 172 q 999 424 997 347 q 1001 559 1001 501 q 1001 636 1000 617 q 1003 639 1001 639 q 1006 638 1006 639 q 1035 478 1007 557 q 1103 322 1063 399 q 1189 169 1143 244 q 1273 21 1235 93 q 1335 -119 1311 -51 q 1357 -251 1360 -187 q 1374 -298 1354 -279 q 1419 -314 1393 -317 q 1557 -288 1507 -308 q 1633 -239 1607 -268 q 1665 -172 1658 -210 q 1675 -93 1672 -135 l 1675 -87 q 1665 24 1667 -43 q 1669 167 1664 90 q 1688 326 1675 243 q 1724 487 1701 408 q 1781 634 1747 565 q 1858 752 1814 703 q 1959 826 1903 801 q 2086 839 2015 850 q 2067 944 2085 899 q 2047 983 2058 964 q 2017 1015 2035 1001 q 1974 1036 1999 1029 q 1918 1042 1950 1043 z "},"":{"ha":2075,"x_min":-7,"x_max":2040,"o":"m 1632 1089 l 1504 1324 l 1665 1324 l 1792 1089 l 1632 1089 m 2019 654 q 1965 720 1999 696 q 1890 756 1931 744 q 1808 764 1850 767 q 1730 747 1767 761 q 1666 710 1693 733 q 1629 657 1639 688 q 1625 626 1622 640 q 1643 607 1628 613 q 1699 551 1679 594 q 1722 444 1719 508 q 1707 297 1724 379 q 1651 126 1690 215 q 1562 -23 1614 40 q 1454 -124 1510 -86 q 1344 -175 1399 -162 q 1246 -172 1289 -187 q 1161 -93 1189 -153 q 1130 49 1133 -33 q 1146 228 1126 131 q 1204 422 1165 325 q 1299 607 1243 519 q 1425 757 1356 694 q 1492 742 1457 747 q 1557 734 1521 736 q 1629 739 1593 732 q 1719 771 1685 747 q 1771 825 1754 794 q 1788 890 1788 856 q 1772 953 1788 924 q 1725 1003 1756 982 q 1653 1028 1694 1024 q 1419 1019 1533 1046 q 1204 925 1306 992 q 1035 958 1124 939 q 856 992 947 976 q 676 1017 765 1007 q 503 1022 586 1026 q 252 974 354 1017 q 90 872 150 932 q 12 740 31 811 q 9 605 -7 669 q 74 492 25 540 q 200 429 122 444 q 226 424 213 426 q 249 421 239 421 q 267 426 260 421 q 274 443 274 431 q 310 610 274 542 q 410 723 347 679 q 556 789 474 767 q 726 819 638 811 q 903 824 814 828 q 1071 814 993 821 q 944 662 1001 757 q 853 454 888 567 q 815 223 819 342 q 846 1 810 104 q 964 -177 882 -101 q 1186 -279 1046 -253 q 1394 -281 1296 -300 q 1577 -212 1492 -261 q 1734 -91 1663 -162 q 1862 63 1806 -19 q 1958 232 1918 144 q 2017 399 1997 319 q 2039 546 2038 479 q 2019 654 2040 613 m 1628 840 q 1574 840 1606 833 q 1515 856 1543 846 q 1536 872 1525 864 q 1583 903 1557 889 q 1627 912 1608 917 q 1653 894 1646 907 q 1655 865 1660 881 q 1628 840 1650 849 z "},"":{"ha":2075,"x_min":-7,"x_max":2040,"o":"m 1564 1276 q 1650 1265 1610 1276 q 1727 1247 1690 1254 q 1800 1242 1764 1239 q 1875 1274 1836 1244 q 1883 1276 1881 1276 q 1894 1271 1890 1276 q 1897 1258 1899 1265 q 1869 1170 1894 1206 q 1779 1135 1844 1135 q 1694 1144 1735 1135 q 1614 1161 1653 1154 q 1540 1166 1575 1168 q 1471 1139 1504 1164 q 1463 1136 1469 1136 q 1450 1142 1456 1135 q 1446 1157 1444 1149 q 1481 1242 1451 1208 q 1564 1276 1511 1276 m 2019 654 q 1965 720 1999 696 q 1890 756 1931 744 q 1808 764 1850 767 q 1730 747 1767 761 q 1666 710 1693 733 q 1629 657 1639 688 q 1625 626 1622 640 q 1643 607 1628 613 q 1699 551 1679 594 q 1722 444 1719 508 q 1707 297 1724 379 q 1651 126 1690 215 q 1562 -23 1614 40 q 1454 -124 1510 -86 q 1344 -175 1399 -162 q 1246 -172 1289 -187 q 1161 -93 1189 -153 q 1130 49 1133 -33 q 1146 228 1126 131 q 1204 422 1165 325 q 1299 607 1243 519 q 1425 757 1356 694 q 1492 742 1457 747 q 1557 734 1521 736 q 1629 739 1593 732 q 1719 771 1685 747 q 1771 825 1754 794 q 1788 890 1788 856 q 1772 953 1788 924 q 1725 1003 1756 982 q 1653 1028 1694 1024 q 1419 1019 1533 1046 q 1204 925 1306 992 q 1035 958 1124 939 q 856 992 947 976 q 676 1017 765 1007 q 503 1022 586 1026 q 252 974 354 1017 q 90 872 150 932 q 12 740 31 811 q 9 605 -7 669 q 74 492 25 540 q 200 429 122 444 q 226 424 213 426 q 249 421 239 421 q 267 426 260 421 q 274 443 274 431 q 310 610 274 542 q 410 723 347 679 q 556 789 474 767 q 726 819 638 811 q 903 824 814 828 q 1071 814 993 821 q 944 662 1001 757 q 853 454 888 567 q 815 223 819 342 q 846 1 810 104 q 964 -177 882 -101 q 1186 -279 1046 -253 q 1394 -281 1296 -300 q 1577 -212 1492 -261 q 1734 -91 1663 -162 q 1862 63 1806 -19 q 1958 232 1918 144 q 2017 399 1997 319 q 2039 546 2038 479 q 2019 654 2040 613 m 1628 840 q 1574 840 1606 833 q 1515 856 1543 846 q 1536 872 1525 864 q 1583 903 1557 889 q 1627 912 1608 917 q 1653 894 1646 907 q 1655 865 1660 881 q 1628 840 1650 849 z "},"":{"ha":2075,"x_min":-7,"x_max":2040,"o":"m 1515 1319 q 1597 1286 1564 1319 q 1631 1206 1631 1253 q 1597 1125 1631 1158 q 1515 1092 1564 1092 q 1435 1125 1468 1092 q 1401 1206 1401 1158 q 1435 1286 1401 1253 q 1515 1319 1468 1319 m 1768 1319 q 1849 1286 1815 1319 q 1882 1206 1882 1253 q 1849 1125 1882 1158 q 1768 1092 1815 1092 q 1687 1125 1719 1092 q 1654 1206 1654 1158 q 1687 1286 1654 1253 q 1768 1319 1719 1319 m 2019 654 q 2039 546 2040 613 q 2017 399 2038 479 q 1958 232 1997 319 q 1862 63 1918 144 q 1734 -91 1806 -19 q 1577 -212 1663 -162 q 1394 -281 1492 -261 q 1186 -279 1296 -300 q 964 -177 1046 -253 q 846 1 882 -101 q 815 223 810 104 q 853 454 819 342 q 944 662 888 567 q 1071 814 1001 757 q 903 824 993 821 q 726 819 814 828 q 556 789 638 811 q 410 723 474 767 q 310 610 347 679 q 274 443 274 542 q 267 426 274 431 q 249 421 260 421 q 226 424 239 421 q 200 429 213 426 q 74 492 122 444 q 9 605 25 540 q 12 740 -7 669 q 90 872 31 811 q 252 974 150 932 q 503 1022 354 1017 q 676 1017 586 1026 q 856 992 765 1007 q 1035 958 947 976 q 1204 925 1124 939 q 1419 1019 1306 992 q 1653 1028 1533 1046 q 1725 1003 1694 1024 q 1772 953 1756 982 q 1788 890 1788 924 q 1771 825 1788 856 q 1719 771 1754 794 q 1629 739 1685 747 q 1557 734 1593 732 q 1492 742 1521 736 q 1425 757 1457 747 q 1299 607 1356 694 q 1204 422 1243 519 q 1146 228 1165 325 q 1130 49 1126 131 q 1161 -93 1133 -33 q 1246 -172 1189 -153 q 1344 -175 1289 -187 q 1454 -124 1399 -162 q 1562 -23 1510 -86 q 1651 126 1614 40 q 1707 297 1690 215 q 1722 444 1724 379 q 1699 551 1719 508 q 1643 607 1679 594 q 1625 626 1628 613 q 1629 657 1622 640 q 1666 710 1639 688 q 1730 747 1693 733 q 1808 764 1767 761 q 1890 756 1850 767 q 1965 720 1931 744 q 2019 654 1999 696 m 1628 840 q 1655 865 1650 849 q 1653 894 1660 881 q 1627 912 1646 907 q 1583 903 1608 917 q 1536 872 1557 889 q 1515 856 1525 864 q 1574 840 1543 846 q 1628 840 1606 833 z "},"":{"ha":2075,"x_min":-7,"x_max":2040,"o":"m 1515 1089 l 1643 1324 l 1804 1324 l 1676 1089 l 1515 1089 m 2019 654 q 2039 546 2040 613 q 2017 399 2038 479 q 1958 232 1997 319 q 1862 63 1918 144 q 1734 -91 1806 -19 q 1577 -212 1663 -162 q 1394 -281 1492 -261 q 1186 -279 1296 -300 q 964 -177 1046 -253 q 846 1 882 -101 q 815 223 810 104 q 853 454 819 342 q 944 662 888 567 q 1071 814 1001 757 q 903 824 993 821 q 726 819 814 828 q 556 789 638 811 q 410 723 474 767 q 310 610 347 679 q 274 443 274 542 q 267 426 274 431 q 249 421 260 421 q 226 424 239 421 q 200 429 213 426 q 74 492 122 444 q 9 605 25 540 q 12 740 -7 669 q 90 872 31 811 q 252 974 150 932 q 503 1022 354 1017 q 676 1017 586 1026 q 856 992 765 1007 q 1035 958 947 976 q 1204 925 1124 939 q 1419 1019 1306 992 q 1653 1028 1533 1046 q 1725 1003 1694 1024 q 1772 953 1756 982 q 1788 890 1788 924 q 1771 825 1788 856 q 1719 771 1754 794 q 1629 739 1685 747 q 1557 734 1593 732 q 1492 742 1521 736 q 1425 757 1457 747 q 1299 607 1356 694 q 1204 422 1243 519 q 1146 228 1165 325 q 1130 49 1126 131 q 1161 -93 1133 -33 q 1246 -172 1189 -153 q 1344 -175 1289 -187 q 1454 -124 1399 -162 q 1562 -23 1510 -86 q 1651 126 1614 40 q 1707 297 1690 215 q 1722 444 1724 379 q 1699 551 1719 508 q 1643 607 1679 594 q 1625 626 1628 613 q 1629 657 1622 640 q 1666 710 1639 688 q 1730 747 1693 733 q 1808 764 1767 761 q 1890 756 1850 767 q 1965 720 1931 744 q 2019 654 1999 696 m 1628 840 q 1655 865 1650 849 q 1653 894 1660 881 q 1627 912 1646 907 q 1583 903 1608 917 q 1536 872 1557 889 q 1515 856 1525 864 q 1574 840 1543 846 q 1628 840 1606 833 z "},"":{"ha":2075,"x_min":-7,"x_max":2040,"o":"m 1378 1089 l 1504 1324 l 1665 1324 l 1538 1089 l 1378 1089 m 1821 1089 l 1694 1324 l 1854 1324 l 1982 1089 l 1821 1089 m 2019 654 q 2039 546 2040 613 q 2017 399 2038 479 q 1958 232 1997 319 q 1862 63 1918 144 q 1734 -91 1806 -19 q 1577 -212 1663 -162 q 1394 -281 1492 -261 q 1186 -279 1296 -300 q 964 -177 1046 -253 q 846 1 882 -101 q 815 223 810 104 q 853 454 819 342 q 944 662 888 567 q 1071 814 1001 757 q 903 824 993 821 q 726 819 814 828 q 556 789 638 811 q 410 723 474 767 q 310 610 347 679 q 274 443 274 542 q 267 426 274 431 q 249 421 260 421 q 226 424 239 421 q 200 429 213 426 q 74 492 122 444 q 9 605 25 540 q 12 740 -7 669 q 90 872 31 811 q 252 974 150 932 q 503 1022 354 1017 q 676 1017 586 1026 q 856 992 765 1007 q 1035 958 947 976 q 1204 925 1124 939 q 1419 1019 1306 992 q 1653 1028 1533 1046 q 1725 1003 1694 1024 q 1772 953 1756 982 q 1788 890 1788 924 q 1771 825 1788 856 q 1719 771 1754 794 q 1629 739 1685 747 q 1557 734 1593 732 q 1492 742 1521 736 q 1425 757 1457 747 q 1299 607 1356 694 q 1204 422 1243 519 q 1146 228 1165 325 q 1130 49 1126 131 q 1161 -93 1133 -33 q 1246 -172 1189 -153 q 1344 -175 1289 -187 q 1454 -124 1399 -162 q 1562 -23 1510 -86 q 1651 126 1614 40 q 1707 297 1690 215 q 1722 444 1724 379 q 1699 551 1719 508 q 1643 607 1679 594 q 1625 626 1628 613 q 1629 657 1622 640 q 1666 710 1639 688 q 1730 747 1693 733 q 1808 764 1767 761 q 1890 756 1850 767 q 1965 720 1931 744 q 2019 654 1999 696 m 1628 840 q 1655 865 1650 849 q 1653 894 1660 881 q 1627 912 1646 907 q 1583 903 1608 917 q 1536 872 1557 889 q 1515 856 1525 864 q 1574 840 1543 846 q 1628 840 1606 833 z "},"":{"ha":1832,"x_min":-8,"x_max":1797,"o":"m 1117 1089 l 1244 1324 l 1404 1324 l 1278 1089 l 1117 1089 m 1760 971 q 1786 964 1778 969 q 1796 951 1794 958 q 1793 936 1797 943 q 1782 925 1789 929 q 1726 868 1749 908 q 1690 785 1704 828 q 1670 710 1676 743 q 1664 676 1664 676 l 1535 47 q 1524 -15 1528 15 q 1523 -72 1521 -46 q 1534 -119 1525 -99 q 1561 -149 1543 -139 q 1570 -165 1572 -156 q 1563 -185 1568 -174 q 1520 -222 1553 -204 q 1444 -249 1488 -239 q 1353 -257 1401 -258 q 1267 -237 1306 -256 q 1204 -179 1228 -218 q 1185 -74 1181 -140 q 1183 -69 1185 -71 q 1179 -71 1182 -68 q 996 -212 1083 -168 q 835 -262 908 -257 q 706 -238 763 -267 q 613 -161 649 -210 q 566 -49 578 -112 q 572 79 554 14 l 708 728 q 720 822 719 775 q 708 901 721 869 q 669 940 696 932 q 597 919 642 949 q 481 826 533 879 q 391 715 428 774 q 334 595 354 656 q 316 480 314 535 q 344 380 318 425 q 422 307 369 335 q 424 304 422 307 q 367 211 408 247 q 275 162 326 175 q 170 158 224 149 q 75 199 117 167 q 13 286 33 231 q 6 422 -8 342 q 58 576 19 499 q 153 723 96 653 q 285 854 211 793 q 447 958 360 915 q 629 1024 533 1001 q 825 1040 725 1046 q 920 1017 882 1038 q 981 964 958 996 q 1014 892 1004 932 q 1026 812 1024 853 q 1024 732 1028 771 q 1017 663 1021 693 q 1016 659 1017 660 q 1015 657 1015 658 l 1015 656 l 913 154 q 903 28 897 75 q 929 -37 908 -18 q 983 -51 950 -56 q 1056 -23 1017 -46 q 1139 37 1096 0 q 1224 118 1182 74 l 1224 119 q 1253 265 1238 188 q 1283 413 1269 343 q 1308 535 1297 482 q 1324 608 1319 588 q 1392 784 1346 714 q 1496 896 1439 854 q 1613 954 1553 938 q 1721 971 1672 971 l 1753 971 l 1760 971 z "},"":{"ha":1832,"x_min":-8,"x_max":1797,"o":"m 1175 1089 l 1049 1324 l 1208 1324 l 1336 1089 l 1175 1089 m 1760 971 l 1753 971 l 1721 971 q 1613 954 1672 971 q 1496 896 1553 938 q 1392 784 1439 854 q 1324 608 1346 714 q 1308 535 1319 588 q 1283 413 1297 482 q 1253 265 1269 343 q 1224 119 1238 188 l 1224 118 q 1139 37 1182 74 q 1056 -23 1096 0 q 983 -51 1017 -46 q 929 -37 950 -56 q 903 28 908 -18 q 913 154 897 75 l 1015 656 l 1015 657 q 1016 659 1015 658 q 1017 663 1017 660 q 1024 732 1021 693 q 1026 812 1028 771 q 1014 892 1024 853 q 981 964 1004 932 q 920 1017 958 996 q 825 1040 882 1038 q 629 1024 725 1046 q 447 958 533 1001 q 285 854 360 915 q 153 723 211 793 q 58 576 96 653 q 6 422 19 499 q 13 286 -8 342 q 75 199 33 231 q 170 158 117 167 q 275 162 224 149 q 367 211 326 175 q 424 304 408 247 q 422 307 422 307 q 344 380 369 335 q 316 480 318 425 q 334 595 314 535 q 391 715 354 656 q 481 826 428 774 q 597 919 533 879 q 669 940 642 949 q 708 901 696 932 q 720 822 721 869 q 708 728 719 775 l 572 79 q 566 -49 554 14 q 613 -161 578 -112 q 706 -238 649 -210 q 835 -262 763 -267 q 996 -212 908 -257 q 1179 -71 1083 -168 q 1183 -69 1182 -68 q 1185 -74 1185 -71 q 1204 -179 1181 -140 q 1267 -237 1228 -218 q 1353 -257 1306 -256 q 1444 -249 1401 -258 q 1520 -222 1488 -239 q 1563 -185 1553 -204 q 1570 -165 1568 -174 q 1561 -149 1572 -156 q 1534 -119 1543 -139 q 1523 -72 1525 -99 q 1524 -15 1521 -46 q 1535 47 1528 15 l 1664 676 q 1670 710 1664 676 q 1690 785 1676 743 q 1726 868 1704 828 q 1782 925 1749 908 q 1793 936 1789 929 q 1796 951 1797 943 q 1786 964 1794 958 q 1760 971 1778 969 z "},"":{"ha":1832,"x_min":-8,"x_max":1797,"o":"m 928 1089 l 1056 1324 l 1215 1324 l 1089 1089 l 928 1089 m 1376 1089 l 1249 1324 l 1410 1324 l 1538 1089 l 1376 1089 m 1760 971 q 1786 964 1778 969 q 1796 951 1794 958 q 1793 936 1797 943 q 1782 925 1789 929 q 1726 868 1749 908 q 1690 785 1704 828 q 1670 710 1676 743 q 1664 676 1664 676 l 1535 47 q 1524 -15 1528 15 q 1523 -72 1521 -46 q 1534 -119 1525 -99 q 1561 -149 1543 -139 q 1570 -165 1572 -156 q 1563 -185 1568 -174 q 1520 -222 1553 -204 q 1444 -249 1488 -239 q 1353 -257 1401 -258 q 1267 -237 1306 -256 q 1204 -179 1228 -218 q 1185 -74 1181 -140 q 1183 -69 1185 -71 q 1179 -71 1182 -68 q 996 -212 1083 -168 q 835 -262 908 -257 q 706 -238 763 -267 q 613 -161 649 -210 q 566 -49 578 -112 q 572 79 554 14 l 708 728 q 720 822 719 775 q 708 901 721 869 q 669 940 696 932 q 597 919 642 949 q 481 826 533 879 q 391 715 428 774 q 334 595 354 656 q 316 480 314 535 q 344 380 318 425 q 422 307 369 335 q 424 304 422 307 q 367 211 408 247 q 275 162 326 175 q 170 158 224 149 q 75 199 117 167 q 13 286 33 231 q 6 422 -8 342 q 58 576 19 499 q 153 723 96 653 q 285 854 211 793 q 447 958 360 915 q 629 1024 533 1001 q 825 1040 725 1046 q 920 1017 882 1038 q 981 964 958 996 q 1014 892 1004 932 q 1026 812 1024 853 q 1024 732 1028 771 q 1017 663 1021 693 q 1016 659 1017 660 q 1015 657 1015 658 l 1015 656 l 913 154 q 903 28 897 75 q 929 -37 908 -18 q 983 -51 950 -56 q 1056 -23 1017 -46 q 1139 37 1096 0 q 1224 118 1182 74 l 1224 119 q 1253 265 1238 188 q 1283 413 1269 343 q 1308 535 1297 482 q 1324 608 1319 588 q 1392 784 1346 714 q 1496 896 1439 854 q 1613 954 1553 938 q 1721 971 1672 971 l 1753 971 l 1760 971 z "},"":{"ha":1832,"x_min":-8,"x_max":1797,"o":"m 1135 1319 q 1215 1286 1182 1319 q 1249 1206 1249 1253 q 1215 1125 1249 1158 q 1135 1092 1182 1092 q 1053 1125 1086 1092 q 1021 1206 1021 1158 q 1053 1286 1021 1253 q 1135 1319 1086 1319 m 1386 1319 q 1468 1286 1435 1319 q 1501 1206 1501 1253 q 1468 1125 1501 1158 q 1386 1092 1435 1092 q 1306 1125 1339 1092 q 1272 1206 1272 1158 q 1306 1286 1272 1253 q 1386 1319 1339 1319 m 1760 971 q 1786 964 1778 969 q 1796 951 1794 958 q 1793 936 1797 943 q 1782 925 1789 929 q 1726 868 1749 908 q 1690 785 1704 828 q 1670 710 1676 743 q 1664 676 1664 676 l 1535 47 q 1524 -15 1528 15 q 1523 -72 1521 -46 q 1534 -119 1525 -99 q 1561 -149 1543 -139 q 1570 -165 1572 -156 q 1563 -185 1568 -174 q 1520 -222 1553 -204 q 1444 -249 1488 -239 q 1353 -257 1401 -258 q 1267 -237 1306 -256 q 1204 -179 1228 -218 q 1185 -74 1181 -140 q 1183 -69 1185 -71 q 1179 -71 1182 -68 q 996 -212 1083 -168 q 835 -262 908 -257 q 706 -238 763 -267 q 613 -161 649 -210 q 566 -49 578 -112 q 572 79 554 14 l 708 728 q 720 822 719 775 q 708 901 721 869 q 669 940 696 932 q 597 919 642 949 q 481 826 533 879 q 391 715 428 774 q 334 595 354 656 q 316 480 314 535 q 344 380 318 425 q 422 307 369 335 q 424 304 422 307 q 367 211 408 247 q 275 162 326 175 q 170 158 224 149 q 75 199 117 167 q 13 286 33 231 q 6 422 -8 342 q 58 576 19 499 q 153 723 96 653 q 285 854 211 793 q 447 958 360 915 q 629 1024 533 1001 q 825 1040 725 1046 q 920 1017 882 1038 q 981 964 958 996 q 1014 892 1004 932 q 1026 812 1024 853 q 1024 732 1028 771 q 1017 663 1021 693 q 1016 659 1017 660 q 1015 657 1015 658 l 1015 656 l 913 154 q 903 28 897 75 q 929 -37 908 -18 q 983 -51 950 -56 q 1056 -23 1017 -46 q 1139 37 1096 0 q 1224 118 1182 74 l 1224 119 q 1253 265 1238 188 q 1283 413 1269 343 q 1308 535 1297 482 q 1324 608 1319 588 q 1392 784 1346 714 q 1496 896 1439 854 q 1613 954 1553 938 q 1721 971 1672 971 l 1753 971 l 1760 971 z "},"":{"ha":1738,"x_min":-8,"x_max":1703,"o":"m 1117 1089 l 1244 1324 l 1404 1324 l 1278 1089 l 1117 1089 m 1703 1039 l 1585 463 q 1504 135 1557 288 q 1369 -126 1451 -17 q 1172 -295 1288 -236 q 904 -343 1057 -354 q 769 -315 826 -337 q 673 -258 711 -292 q 615 -183 635 -225 q 589 -100 594 -142 q 592 -18 583 -58 q 619 53 600 22 q 650 89 629 69 q 701 123 671 108 q 768 143 731 138 q 851 138 806 149 q 931 100 906 124 q 965 53 956 76 q 972 -6 976 25 q 967 -7 971 -6 q 951 -11 963 -8 q 857 -68 883 -31 q 835 -144 831 -106 q 868 -212 839 -182 q 939 -243 897 -242 q 1050 -194 1003 -247 q 1133 -56 1097 -142 q 1194 135 1168 29 q 1239 346 1219 242 q 1234 346 1238 346 q 1229 344 1231 346 q 1083 235 1160 271 q 932 195 1006 200 q 794 212 858 190 q 686 275 731 233 q 623 373 642 317 q 621 494 604 429 l 669 713 q 692 810 681 761 q 703 899 703 860 q 686 958 703 938 q 624 971 669 979 q 492 922 550 957 q 393 841 433 888 q 333 741 353 794 q 315 636 313 688 q 343 540 317 585 q 422 467 369 494 q 424 464 422 467 q 367 372 408 407 q 275 322 326 336 q 170 317 224 308 q 75 359 117 326 q 13 447 33 392 q 6 583 -8 503 q 60 726 19 660 q 159 848 100 793 q 292 944 218 903 q 449 1010 367 986 q 618 1038 532 1033 q 786 1026 704 1043 q 914 964 871 1008 q 974 865 957 919 q 988 751 990 810 q 978 647 985 693 q 977 644 978 644 q 976 642 976 643 l 976 640 l 963 569 q 964 400 939 450 q 1040 353 989 350 q 1154 406 1090 357 q 1272 535 1218 456 q 1274 536 1274 535 q 1297 644 1285 585 q 1319 763 1308 703 q 1363 874 1332 822 q 1440 961 1394 925 q 1541 1018 1485 997 q 1660 1039 1597 1039 l 1703 1039 z "},"":{"ha":986,"x_min":1,"x_max":958,"o":"m 565 364 q 547 327 553 346 q 543 292 542 308 q 555 262 544 275 q 586 243 565 249 q 644 205 622 233 q 675 139 667 176 q 676 60 683 101 q 646 -15 668 19 q 585 -71 624 -49 q 490 -93 546 -93 q 368 -31 411 -93 q 333 136 325 32 q 367 253 339 206 q 435 336 396 300 q 517 402 474 372 q 598 466 561 432 q 659 544 635 500 q 683 653 683 589 q 665 724 683 693 q 606 756 646 756 l 603 756 q 553 742 578 756 q 528 703 528 728 q 489 611 528 646 q 391 547 450 576 q 264 489 332 518 q 138 415 196 460 q 40 304 79 371 q 1 135 1 238 q 38 -6 1 57 q 133 -112 74 -68 q 270 -184 193 -157 q 430 -217 347 -211 q 594 -207 513 -222 q 747 -153 676 -192 q 868 -49 817 -114 q 940 106 919 15 q 946 248 958 186 q 901 352 933 310 q 822 417 868 394 q 728 441 776 439 q 637 424 681 443 q 565 364 593 404 m 476 918 q 510 1001 476 967 q 593 1035 544 1035 q 638 1026 617 1035 q 676 1001 660 1017 q 701 964 692 985 q 710 918 710 943 q 676 835 710 869 q 593 801 642 801 q 547 810 568 801 q 510 835 526 819 q 485 873 494 851 q 476 918 476 894 z "},"":{"ha":1775,"x_min":-3,"x_max":1740,"o":"m 1378 528 q 1526 480 1460 514 q 1641 397 1593 446 q 1715 283 1689 347 q 1740 147 1740 219 q 1708 -12 1740 65 q 1615 -149 1676 -89 q 1465 -244 1554 -208 q 1258 -279 1375 -279 q 1113 -246 1168 -279 q 1029 -169 1057 -212 q 1000 -81 1001 -125 q 1019 -15 999 -36 q 1030 -3 1025 -10 q 1039 -1 1035 4 q 1139 -83 1079 -67 q 1256 -71 1199 -99 q 1357 24 1314 -43 q 1406 190 1400 90 l 1406 196 q 1395 285 1407 246 q 1362 353 1383 324 q 1312 403 1340 382 q 1254 439 1283 424 q 1094 482 1185 472 q 1088 407 1090 456 q 1077 296 1085 358 q 1053 164 1069 233 q 1008 27 1038 94 q 930 -100 978 -40 q 810 -201 882 -160 q 638 -262 738 -243 q 404 -267 538 -282 q 221 -213 299 -254 q 93 -116 143 -172 q 20 6 43 -60 q 1 135 -3 72 q 49 278 7 219 q 153 367 92 336 q 283 402 214 399 q 409 380 351 406 q 503 299 467 354 q 536 160 540 244 q 531 131 536 144 q 510 119 525 117 q 412 110 454 128 q 344 61 369 92 q 310 -9 318 31 q 312 -85 301 -49 q 353 -148 322 -121 q 435 -182 383 -175 q 555 -153 508 -192 q 631 -44 601 -115 q 678 124 660 28 q 713 325 696 219 q 751 538 729 431 q 808 738 772 644 q 901 904 844 832 q 1046 1011 958 976 q 1138 1035 1088 1026 q 1238 1042 1181 1042 q 1363 1026 1294 1042 q 1517 946 1464 994 q 1588 842 1571 897 q 1591 732 1604 788 q 1545 632 1578 676 q 1468 558 1513 588 q 1378 528 1424 529 m 1110 575 q 1226 607 1176 575 q 1308 686 1276 639 q 1353 788 1340 733 q 1360 888 1367 843 q 1326 962 1353 933 q 1250 985 1299 990 q 1201 928 1226 974 q 1156 806 1181 888 q 1110 575 1131 724 z "},"":{"ha":1738,"x_min":-8,"x_max":1703,"o":"m 1072 1319 q 1153 1286 1119 1319 q 1186 1206 1186 1253 q 1153 1125 1186 1158 q 1072 1092 1119 1092 q 992 1125 1025 1092 q 958 1206 958 1158 q 992 1286 958 1253 q 1072 1319 1025 1319 m 1324 1319 q 1406 1286 1372 1319 q 1439 1206 1439 1253 q 1406 1125 1439 1158 q 1324 1092 1372 1092 q 1243 1125 1276 1092 q 1210 1206 1210 1158 q 1243 1286 1210 1253 q 1324 1319 1276 1319 m 1703 1039 l 1585 463 q 1504 135 1557 288 q 1369 -126 1451 -17 q 1172 -295 1288 -236 q 904 -343 1057 -354 q 769 -315 826 -337 q 673 -258 711 -292 q 615 -183 635 -225 q 589 -100 594 -142 q 592 -18 583 -58 q 619 53 600 22 q 650 89 629 69 q 701 123 671 108 q 768 143 731 138 q 851 138 806 149 q 931 100 906 124 q 965 53 956 76 q 972 -6 976 25 q 967 -7 971 -6 q 951 -11 963 -8 q 857 -68 883 -31 q 835 -144 831 -106 q 868 -212 839 -182 q 939 -243 897 -242 q 1050 -194 1003 -247 q 1133 -56 1097 -142 q 1194 135 1168 29 q 1239 346 1219 242 q 1234 346 1238 346 q 1229 344 1231 346 q 1083 235 1160 271 q 932 195 1006 200 q 794 212 858 190 q 686 275 731 233 q 623 373 642 317 q 621 494 604 429 l 669 713 q 692 810 681 761 q 703 899 703 860 q 686 958 703 938 q 624 971 669 979 q 492 922 550 957 q 393 841 433 888 q 333 741 353 794 q 315 636 313 688 q 343 540 317 585 q 422 467 369 494 q 424 464 422 467 q 367 372 408 407 q 275 322 326 336 q 170 317 224 308 q 75 359 117 326 q 13 447 33 392 q 6 583 -8 503 q 60 726 19 660 q 159 848 100 793 q 292 944 218 903 q 449 1010 367 986 q 618 1038 532 1033 q 786 1026 704 1043 q 914 964 871 1008 q 974 865 957 919 q 988 751 990 810 q 978 647 985 693 q 977 644 978 644 q 976 642 976 643 l 976 640 l 963 569 q 964 400 939 450 q 1040 353 989 350 q 1154 406 1090 357 q 1272 535 1218 456 q 1274 536 1274 535 q 1297 644 1285 585 q 1319 763 1308 703 q 1363 874 1332 822 q 1440 961 1394 925 q 1541 1018 1485 997 q 1660 1039 1597 1039 l 1703 1039 z "},"":{"ha":706,"x_min":-8,"x_max":824,"o":"m 785 324 q 806 317 797 324 q 819 301 815 311 q 823 281 824 292 q 814 260 822 269 q 726 172 774 215 q 620 92 678 128 q 496 32 563 57 q 354 1 429 7 q 332 -101 350 -58 q 288 -175 314 -144 q 231 -224 263 -206 q 168 -253 200 -243 q 0 -268 92 -278 l 0 -164 q 134 -137 89 -164 q 199 -79 179 -111 q 221 7 221 -42 q 72 81 124 25 q 6 212 19 138 q 13 369 -8 286 q 81 522 33 451 q 201 640 129 592 q 361 693 272 688 q 502 680 442 699 q 603 629 563 661 q 663 558 643 597 q 685 485 683 519 q 671 408 686 439 q 631 360 656 378 q 580 339 607 343 q 530 343 553 335 q 494 370 507 351 q 488 419 482 389 q 510 439 490 439 q 551 451 539 438 q 564 483 564 465 q 553 517 564 501 q 526 536 543 533 q 458 511 490 542 q 399 434 425 481 q 358 336 374 388 q 338 249 342 285 q 365 154 331 188 q 458 124 399 121 q 594 172 517 128 q 756 311 672 217 q 785 324 765 324 z "},"":{"ha":1863,"x_min":-7,"x_max":1832,"o":"m 1567 504 q 1705 515 1649 526 q 1792 469 1761 504 q 1827 384 1822 435 q 1811 276 1832 333 q 1745 163 1790 219 q 1630 60 1700 106 q 1466 -15 1560 14 q 1254 -43 1372 -43 q 1240 -43 1247 -43 q 1226 -42 1233 -43 q 1197 -149 1218 -104 q 1147 -226 1176 -194 q 1082 -278 1117 -258 q 1013 -310 1047 -299 q 831 -331 929 -336 l 831 -232 q 924 -235 883 -240 q 994 -218 964 -231 q 1044 -187 1024 -206 q 1078 -147 1064 -168 q 1114 -32 1110 -99 q 910 44 988 -11 q 798 177 832 100 q 769 345 764 254 q 811 528 774 436 q 915 704 849 619 q 1071 854 982 789 q 903 863 993 860 q 726 859 814 865 q 556 834 638 853 q 410 780 474 815 q 310 688 347 744 q 274 551 274 632 q 267 538 274 542 q 249 533 260 533 q 226 535 239 533 q 200 540 213 538 q 74 592 122 553 q 9 684 25 632 q 12 794 -7 736 q 90 902 31 853 q 252 985 150 951 q 503 1025 354 1019 q 676 1020 586 1028 q 856 1000 765 1013 q 1035 972 947 988 q 1204 946 1124 957 q 1419 1022 1306 1000 q 1653 1029 1533 1044 q 1752 990 1717 1024 q 1788 917 1788 957 q 1750 840 1788 876 q 1629 793 1713 804 q 1557 790 1593 788 q 1492 796 1521 792 q 1425 808 1457 801 q 1294 685 1356 757 q 1185 535 1232 614 q 1112 378 1139 457 q 1084 233 1085 299 q 1112 120 1083 167 q 1207 61 1140 74 q 1315 69 1260 50 q 1420 123 1371 88 q 1508 205 1469 158 q 1565 298 1546 251 q 1579 384 1585 344 q 1536 446 1574 424 q 1531 454 1532 449 q 1531 465 1531 460 q 1541 489 1529 478 q 1567 504 1553 500 m 1583 928 q 1558 915 1569 921 q 1536 901 1546 908 l 1515 888 q 1574 875 1543 881 q 1628 876 1606 869 q 1655 895 1650 882 q 1653 919 1660 908 q 1627 935 1646 931 q 1583 928 1608 939 z "},"":{"ha":975,"x_min":0,"x_max":940,"o":"m 690 622 q 709 606 699 615 q 731 583 719 597 q 754 519 749 561 q 751 426 760 476 q 719 323 743 376 q 653 224 696 269 q 550 149 611 179 q 407 113 489 118 q 401 112 404 113 q 393 111 397 111 q 322 115 356 111 l 96 -197 l 0 -128 l 201 150 q 81 252 122 188 q 31 392 39 317 q 44 544 22 467 q 117 685 67 622 q 242 788 167 749 q 413 828 317 828 q 545 800 492 828 q 621 728 599 772 l 843 1036 l 940 967 l 690 622 m 482 597 q 416 580 446 604 q 365 515 386 556 q 336 426 344 475 q 336 336 328 378 l 513 579 q 482 597 501 593 m 435 239 q 518 265 478 236 q 587 337 558 293 q 626 432 615 381 q 621 526 636 483 l 414 242 q 435 239 428 239 z "},"":{"ha":2075,"x_min":-7,"x_max":2040,"o":"m 2019 654 q 2039 546 2040 613 q 2017 399 2038 479 q 1958 232 1997 319 q 1862 63 1918 144 q 1734 -91 1806 -19 q 1577 -212 1663 -162 q 1394 -281 1492 -261 q 1186 -279 1296 -300 q 1078 -247 1128 -269 l 1007 -346 l 911 -276 l 975 -187 q 864 -44 901 -128 q 817 135 826 40 q 825 331 808 231 q 877 522 842 431 q 963 690 913 614 q 1071 814 1013 765 q 903 824 993 821 q 726 819 814 828 q 556 789 638 811 q 410 723 474 767 q 310 610 347 679 q 274 443 274 542 q 267 426 274 431 q 249 421 260 421 q 226 424 239 421 q 200 429 213 426 q 74 492 122 444 q 9 605 25 540 q 12 740 -7 669 q 90 872 31 811 q 252 974 150 932 q 503 1022 354 1017 q 676 1017 586 1026 q 856 992 765 1007 q 1035 958 947 976 q 1204 925 1124 939 q 1419 1019 1306 992 q 1653 1028 1533 1046 q 1738 993 1704 1022 q 1782 925 1771 964 l 1868 1044 l 1964 975 l 1811 764 q 1930 742 1872 767 q 2019 654 1988 717 m 1583 903 q 1536 872 1557 889 q 1515 856 1525 864 q 1574 840 1543 846 q 1628 840 1606 833 q 1655 865 1650 849 q 1653 894 1660 881 q 1627 912 1646 907 q 1583 903 1608 917 m 1425 757 q 1296 601 1353 692 q 1200 410 1239 510 q 1143 210 1161 310 q 1132 28 1125 110 l 1649 742 q 1629 739 1638 739 q 1557 734 1593 732 q 1492 742 1521 736 q 1425 757 1457 747 m 1651 126 q 1702 274 1685 203 q 1722 405 1719 344 q 1714 511 1725 465 q 1679 582 1703 557 l 1175 -115 q 1246 -172 1203 -156 q 1344 -175 1289 -187 q 1454 -124 1399 -162 q 1562 -23 1510 -86 q 1651 126 1614 40 z "},"":{"ha":1735,"x_min":-12,"x_max":1710,"o":"m 869 1039 q 1096 1030 985 1046 q 1306 976 1207 1014 q 1484 878 1404 938 q 1617 738 1564 818 q 1690 556 1669 657 q 1689 335 1710 456 q 1610 84 1664 189 q 1483 -89 1556 -21 q 1327 -192 1411 -157 q 1158 -232 1243 -226 q 991 -218 1072 -237 q 843 -158 910 -199 q 826 -150 835 -154 q 811 -140 818 -146 l 769 -117 q 597 -273 692 -219 q 409 -340 503 -326 q 231 -331 315 -354 q 88 -258 146 -308 q 9 -131 31 -207 q 19 36 -12 -56 q 83 135 40 97 q 181 192 126 174 q 295 211 235 211 q 413 197 356 211 q 445 187 429 192 q 476 175 461 182 q 558 142 515 161 q 565 183 561 161 q 571 229 568 206 l 263 229 l 263 465 l 381 465 q 272 554 303 500 q 250 669 240 608 q 307 793 260 731 q 434 908 354 856 q 624 995 514 960 q 869 1039 735 1031 m 308 -174 q 425 -144 381 -174 q 493 -79 469 -115 q 533 15 521 -37 q 359 76 432 69 q 241 63 286 83 q 177 2 196 42 q 167 -76 158 -37 q 212 -144 176 -115 q 308 -174 247 -174 m 607 465 q 615 510 611 489 q 624 551 619 532 q 674 703 642 631 q 753 831 706 776 q 867 915 801 885 q 1018 942 933 946 l 1019 943 q 846 944 946 956 q 688 891 758 933 q 568 785 617 849 q 497 641 519 722 q 481 472 474 560 q 479 465 481 468 l 607 465 m 1322 375 q 1307 757 1369 617 q 1063 933 1244 897 q 1017 857 1036 908 q 986 741 999 806 q 965 605 974 676 q 950 465 957 533 l 1165 465 l 1165 229 l 919 229 q 886 115 907 172 q 831 -1 865 58 q 966 -58 893 -50 q 1108 -24 1039 -65 q 1233 115 1176 18 q 1322 375 1290 213 z "},"":{"ha":1017,"x_min":0,"x_max":986,"o":"m 675 696 q 829 679 767 706 q 928 603 892 653 q 975 488 964 554 q 976 353 986 422 q 936 217 967 283 q 859 99 906 150 q 750 21 813 49 q 614 1 688 -7 q 536 19 572 6 q 472 52 500 33 q 423 92 443 71 q 392 129 403 113 q 376 55 386 106 q 354 -48 365 4 q 335 -142 343 -100 q 325 -190 326 -183 l 0 -190 q 15 -119 4 -171 q 40 3 25 -68 q 74 160 56 75 q 110 333 92 246 q 145 503 128 421 q 176 652 163 586 q 199 761 190 718 q 210 813 208 804 q 216 865 215 840 q 204 897 217 890 q 197 922 190 906 q 228 944 204 938 q 365 969 299 963 q 478 971 432 976 q 537 942 517 967 q 550 882 557 917 q 531 788 547 863 q 493 608 515 713 q 576 665 529 640 q 675 696 622 690 m 657 447 q 642 523 663 497 q 590 547 622 549 q 522 517 558 546 q 456 429 485 488 l 444 378 q 430 308 438 342 q 415 242 422 274 q 438 215 419 225 q 474 203 457 206 q 542 222 510 197 q 598 283 574 246 q 638 366 622 321 q 657 447 653 411 z "},"":{"ha":1043,"x_min":0,"x_max":1013,"o":"m 700 807 q 854 790 792 817 q 953 715 917 764 q 1001 599 990 665 q 1002 464 1013 533 q 962 328 992 394 q 885 211 932 261 q 775 133 838 161 q 639 113 713 106 q 562 131 597 117 q 498 165 526 146 q 449 204 469 183 q 418 242 429 225 q 406 188 414 225 q 388 105 399 151 q 367 8 378 58 q 347 -85 357 -42 q 331 -157 338 -128 q 325 -190 325 -186 l 0 -190 q 15 -119 4 -171 q 40 3 25 -68 q 74 160 56 75 q 110 333 92 246 q 145 503 128 421 q 176 652 163 586 q 199 761 190 718 q 210 813 208 804 q 216 865 215 840 q 204 897 217 890 q 197 922 190 906 q 228 944 204 938 q 365 969 299 963 q 478 971 432 976 q 537 942 517 967 q 550 882 557 917 q 547 865 549 872 q 543 843 546 858 q 535 799 540 828 q 518 719 529 771 q 601 776 554 751 q 700 807 647 801 m 683 558 q 669 634 689 608 q 617 659 649 660 q 548 629 585 658 q 482 542 511 600 l 469 489 q 456 419 463 453 q 442 353 449 385 q 464 327 446 338 q 499 314 482 317 q 567 333 535 308 q 624 395 599 357 q 664 478 649 433 q 683 558 679 522 z "},"":{"ha":1394,"x_min":-8,"x_max":1383,"o":"m 11 103 q 8 210 -8 163 q 31 249 15 229 q 76 283 47 268 q 150 308 106 299 q 258 317 194 317 q 268 364 264 340 q 278 410 272 388 q 407 722 318 586 q 497 833 444 779 q 620 928 550 888 q 778 990 690 968 q 978 1003 867 1011 q 1161 956 1083 996 q 1289 857 1239 915 q 1361 731 1339 799 q 1379 600 1383 663 q 1343 455 1374 514 q 1267 359 1313 396 q 1167 306 1221 322 q 1061 292 1113 290 q 1001 304 1032 293 q 944 337 969 315 q 903 389 918 358 q 893 458 888 419 q 899 472 896 465 q 911 478 903 479 q 1011 508 971 476 q 1073 588 1051 540 q 1097 693 1094 636 q 1081 799 1099 750 q 1025 883 1064 849 q 928 921 986 917 q 826 883 872 924 q 742 780 779 843 q 676 641 704 717 q 628 498 647 565 q 597 382 608 431 q 585 324 586 333 q 583 319 583 321 q 582 314 583 317 q 626 315 606 314 q 667 320 646 317 q 715 328 689 324 q 778 340 742 333 q 753 251 776 290 q 686 190 732 218 q 551 163 640 163 q 533 79 542 118 q 518 6 525 40 q 506 -47 515 -10 q 476 -129 496 -85 q 424 -216 457 -174 q 343 -282 392 -258 l 378 -282 l 381 -282 q 574 -259 499 -282 q 693 -202 650 -236 q 751 -128 736 -168 q 763 -50 765 -87 q 744 16 760 -12 q 710 54 728 44 q 698 69 701 60 q 699 89 694 79 q 752 151 715 128 q 834 179 789 174 q 925 172 879 185 q 1007 131 971 160 q 1062 53 1043 101 q 1071 -61 1081 6 q 1024 -172 1061 -125 q 933 -251 988 -218 q 812 -304 878 -283 q 678 -336 746 -325 q 322 -356 519 -362 l 90 -356 q 59 -350 69 -356 q 47 -337 49 -344 q 49 -322 44 -329 q 61 -311 53 -315 q 115 -254 93 -294 q 151 -171 138 -214 q 178 -62 167 -121 q 201 44 189 -14 q 226 165 213 103 q 94 146 154 160 q 11 103 35 132 z "},"":{"ha":1478,"x_min":-8,"x_max":1442,"o":"m 1092 1324 l 965 1089 l 860 1089 l 804 1089 l 699 1089 l 572 1324 l 732 1324 l 832 1139 l 932 1324 l 1092 1324 m 1424 -86 q 1442 -110 1442 -83 q 1420 -176 1442 -137 q 1356 -256 1399 -215 q 1247 -318 1314 -296 q 1072 -349 1160 -349 q 899 -331 985 -349 q 731 -282 814 -312 q 569 -221 647 -251 q 418 -166 490 -190 q 281 -135 346 -142 q 160 -144 217 -128 q 60 -214 104 -161 q 15 -185 28 -206 q 4 -151 7 -172 q 19 17 -8 -58 q 99 156 46 93 q 225 269 151 218 q 381 363 299 319 q 549 444 464 406 q 708 519 633 482 q 844 595 783 557 q 936 676 904 633 q 762 684 849 674 q 592 706 675 694 q 434 723 510 717 q 294 720 358 729 q 181 682 231 711 q 100 592 131 653 l 99 592 q 53 605 69 592 q 31 638 38 618 q 26 682 25 658 q 33 726 28 706 q 85 848 51 797 q 162 933 119 899 q 253 990 204 968 q 350 1022 301 1011 q 593 1036 463 1049 q 764 1024 664 1038 q 974 1001 864 1011 q 1193 996 1083 992 q 1394 1038 1303 1000 q 1407 1038 1400 1039 q 1419 1001 1419 1031 q 1385 832 1424 911 q 1280 683 1347 753 q 1124 555 1213 614 q 941 445 1036 496 q 751 351 846 394 q 574 272 656 308 q 433 203 493 235 q 350 144 374 171 q 462 144 408 150 q 556 129 515 139 q 644 103 603 118 q 749 72 690 93 q 872 27 807 51 q 1006 -22 936 3 q 1147 -63 1076 -46 q 1288 -88 1218 -81 q 1424 -86 1358 -96 z "},"":{"ha":1139,"x_min":-6,"x_max":1106,"o":"m 867 1031 l 739 796 l 633 796 l 578 796 l 474 796 l 346 1031 l 506 1031 l 606 847 l 706 1031 l 867 1031 m 1078 322 q 1099 306 1092 318 q 1101 278 1106 293 q 1077 203 1093 249 q 1035 106 1061 157 q 974 5 1010 56 q 890 -86 938 -46 q 783 -150 843 -126 q 650 -169 724 -174 l 649 -169 q 520 -156 575 -169 q 422 -124 465 -143 q 344 -81 379 -104 q 273 -37 308 -57 q 200 -5 238 -18 q 114 8 163 8 q 46 0 72 8 q 9 12 24 -6 q 3 50 -6 29 q 10 65 6 57 q 19 81 14 74 q 60 131 35 108 q 194 239 115 188 q 350 335 272 290 q 494 418 428 381 q 592 483 561 456 l 42 483 q 58 565 42 526 q 104 633 75 604 q 172 678 133 661 q 253 694 210 694 l 908 694 q 900 623 908 658 q 869 561 892 588 q 783 472 840 517 q 655 385 725 428 q 509 303 585 343 q 368 229 433 264 q 256 165 303 194 q 193 113 208 135 q 313 136 260 139 q 414 117 365 133 q 514 81 463 101 q 628 53 565 61 q 731 49 675 46 q 842 78 788 53 q 947 155 897 103 q 1033 300 997 207 q 1051 320 1039 314 q 1078 322 1064 326 z "},"":{"ha":556,"x_min":0,"x_max":521,"o":"m 360 972 l 521 972 l 393 738 l 288 738 l 232 738 l 128 738 l 0 972 l 161 972 l 260 789 l 360 972 l 360 972 z "},"|":{"ha":194,"x_min":0,"x_max":118,"o":"m 118 -224 l 0 -224 l 0 874 l 118 874 l 118 -224 l 118 -224 z "},"d":{"ha":950,"x_min":-4,"x_max":989,"o":"m 910 971 q 969 942 949 967 q 982 882 989 917 q 971 828 979 869 q 949 728 963 788 q 921 597 936 669 q 890 449 906 524 q 858 300 874 374 q 830 165 843 226 q 808 59 817 103 q 796 -1 799 15 l 471 -1 q 478 34 474 11 q 490 88 483 57 q 408 31 454 56 q 308 0 361 7 q 154 17 217 -10 q 55 94 92 44 q 7 209 18 143 q 6 344 -4 275 q 47 481 17 414 q 124 597 76 547 q 233 675 171 647 q 369 696 296 703 q 452 678 415 692 q 517 647 489 664 q 565 612 546 629 q 593 582 583 594 q 610 667 603 628 q 624 737 618 707 q 635 787 631 767 q 640 813 639 807 q 647 865 647 840 q 635 897 647 890 q 628 922 621 906 q 658 944 635 938 q 797 969 729 963 q 910 971 864 976 m 325 250 q 340 174 319 200 q 392 149 360 149 q 460 179 424 150 q 526 267 497 208 q 529 279 529 275 l 567 469 q 467 500 510 513 q 394 446 424 488 q 347 349 364 404 q 325 250 329 293 z "},"a":{"ha":1025,"x_min":-4,"x_max":1149,"o":"m 1106 324 q 1138 307 1126 324 q 1139 271 1149 290 q 1078 166 1113 215 q 1002 80 1044 117 q 908 22 960 43 q 793 0 856 0 q 731 8 767 0 q 660 35 696 17 q 594 81 625 53 q 544 150 563 110 q 505 103 529 128 q 449 58 481 79 q 382 21 418 36 q 307 1 346 6 q 148 18 211 -8 q 49 94 85 44 q 5 209 14 143 q 9 344 -4 275 q 55 479 22 413 q 138 596 88 546 q 251 674 188 646 q 389 693 315 701 q 459 676 428 689 q 515 647 490 664 q 556 610 539 629 q 585 574 572 590 q 585 603 588 590 q 574 621 582 615 q 568 645 561 629 q 597 667 575 661 q 735 692 668 685 q 849 693 803 699 q 908 664 888 689 q 921 604 928 639 q 899 503 910 554 q 878 407 888 451 q 862 327 869 363 q 851 274 854 292 q 850 219 844 240 q 867 184 856 197 q 892 165 879 171 q 917 158 906 158 q 999 197 960 156 q 1074 304 1039 238 q 1106 324 1086 324 m 563 454 q 543 481 560 471 q 508 494 526 492 q 440 476 472 500 q 384 414 408 451 q 344 331 360 376 q 324 250 328 286 q 338 174 318 200 q 390 150 358 149 q 460 180 422 151 q 526 267 497 208 q 528 284 526 275 q 532 303 529 293 q 538 329 533 314 q 544 359 540 342 q 551 397 547 376 l 563 454 z "},"b":{"ha":976,"x_min":0,"x_max":947,"o":"m 635 696 q 789 678 726 706 q 888 602 851 651 q 935 487 924 553 q 937 351 947 421 q 897 215 926 282 q 819 99 867 149 q 710 21 772 49 q 574 0 647 -7 q 497 19 532 4 q 433 52 461 33 q 383 92 404 71 q 351 129 363 113 q 335 47 342 81 q 325 -3 328 13 l 0 -3 q 19 90 6 22 q 51 244 33 157 q 90 426 69 331 q 126 604 110 522 q 155 743 143 686 q 169 811 167 800 q 176 865 175 840 q 164 897 176 889 q 157 922 150 906 q 188 943 164 938 q 326 968 258 961 q 439 969 393 975 q 497 940 476 965 q 511 881 518 915 q 503 847 508 872 q 491 786 499 822 q 474 705 483 750 q 453 608 464 660 q 535 665 489 640 q 635 696 582 690 m 618 446 q 603 522 624 496 q 551 547 583 547 q 481 517 518 546 q 415 429 444 488 l 404 376 q 390 306 397 340 q 375 240 382 272 q 398 215 379 225 q 433 203 417 206 q 501 222 469 197 q 558 283 533 246 q 598 365 582 321 q 618 446 614 410 z "},"c":{"ha":707,"x_min":-8,"x_max":825,"o":"m 786 324 q 808 317 799 324 q 821 301 817 311 q 824 281 825 292 q 815 260 824 269 q 721 165 774 211 q 604 82 668 118 q 467 23 540 46 q 308 0 393 0 q 113 49 183 0 q 17 174 42 99 q 7 337 -8 249 q 70 502 22 425 q 193 633 118 579 q 363 693 268 686 q 503 680 443 699 q 604 629 564 661 q 665 558 644 597 q 686 485 685 519 q 672 408 688 439 q 633 360 657 378 q 581 339 608 343 q 531 343 554 335 q 496 370 508 351 q 489 419 483 389 q 511 439 492 439 q 553 451 540 438 q 565 483 565 465 q 555 517 565 501 q 528 536 544 533 q 459 511 492 542 q 401 434 426 481 q 359 336 375 388 q 339 249 343 285 q 366 154 332 188 q 459 124 400 121 q 596 172 518 128 q 757 311 674 217 q 786 324 767 324 z "}}}
